G04 #@! TF.GenerationSoftware,KiCad,Pcbnew,(5.1.9)-1*
G04 #@! TF.CreationDate,2021-01-29T11:50:50-08:00*
G04 #@! TF.ProjectId,foursu-pcb,666f7572-7375-42d7-9063-622e6b696361,rev?*
G04 #@! TF.SameCoordinates,Original*
G04 #@! TF.FileFunction,Legend,Bot*
G04 #@! TF.FilePolarity,Positive*
%FSLAX46Y46*%
G04 Gerber Fmt 4.6, Leading zero omitted, Abs format (unit mm)*
G04 Created by KiCad (PCBNEW (5.1.9)-1) date 2021-01-29 11:50:50*
%MOMM*%
%LPD*%
G01*
G04 APERTURE LIST*
%ADD10C,0.120000*%
%ADD11C,0.150000*%
%ADD12R,2.000000X2.000000*%
%ADD13C,2.000000*%
%ADD14R,2.000000X3.200000*%
%ADD15C,1.750000*%
%ADD16C,0.100000*%
%ADD17C,1.905000*%
%ADD18C,2.250000*%
%ADD19C,3.987800*%
%ADD20O,1.600000X1.600000*%
%ADD21R,1.600000X1.600000*%
%ADD22C,2.082800*%
G04 APERTURE END LIST*
D10*
G04 #@! TO.C,D5*
X92763750Y-160103750D02*
X90523750Y-160103750D01*
X90523750Y-160103750D02*
X90523750Y-155863750D01*
X90523750Y-155863750D02*
X92763750Y-155863750D01*
X92763750Y-155863750D02*
X92763750Y-160103750D01*
X91643750Y-160753750D02*
X91643750Y-160103750D01*
X91643750Y-155213750D02*
X91643750Y-155863750D01*
X92763750Y-159383750D02*
X90523750Y-159383750D01*
X92763750Y-159263750D02*
X90523750Y-159263750D01*
X92763750Y-159503750D02*
X90523750Y-159503750D01*
G04 #@! TO.C,D4*
X128092181Y-170606655D02*
X127626458Y-168415604D01*
X127626458Y-168415604D02*
X131773804Y-167534058D01*
X131773804Y-167534058D02*
X132239526Y-169725109D01*
X132239526Y-169725109D02*
X128092181Y-170606655D01*
X127223524Y-169646272D02*
X127859319Y-169511129D01*
X132642461Y-168494441D02*
X132006665Y-168629584D01*
X128796447Y-170456958D02*
X128330725Y-168265908D01*
X128913825Y-170432009D02*
X128448102Y-168240958D01*
X128679069Y-170481908D02*
X128213347Y-168290857D01*
G04 #@! TO.C,D3*
X109526196Y-174572192D02*
X109060473Y-172381141D01*
X109060473Y-172381141D02*
X113207819Y-171499595D01*
X113207819Y-171499595D02*
X113673541Y-173690646D01*
X113673541Y-173690646D02*
X109526196Y-174572192D01*
X108657539Y-173611809D02*
X109293334Y-173476666D01*
X114076476Y-172459978D02*
X113440680Y-172595121D01*
X110230462Y-174422495D02*
X109764740Y-172231445D01*
X110347840Y-174397546D02*
X109882117Y-172206495D01*
X110113084Y-174447445D02*
X109647362Y-172256394D01*
G04 #@! TO.C,D2*
X67663958Y-174353146D02*
X68129681Y-172162095D01*
X68129681Y-172162095D02*
X72277026Y-173043641D01*
X72277026Y-173043641D02*
X71811304Y-175234692D01*
X71811304Y-175234692D02*
X67663958Y-174353146D01*
X67261024Y-173122478D02*
X67896819Y-173257621D01*
X72679961Y-174274309D02*
X72044165Y-174139166D01*
X68368225Y-174502842D02*
X68833947Y-172311792D01*
X68485602Y-174527792D02*
X68951325Y-172336741D01*
X68250847Y-174477893D02*
X68716569Y-172286842D01*
G04 #@! TO.C,D1*
X49407708Y-169590646D02*
X49873431Y-167399595D01*
X49873431Y-167399595D02*
X54020776Y-168281141D01*
X54020776Y-168281141D02*
X53555054Y-170472192D01*
X53555054Y-170472192D02*
X49407708Y-169590646D01*
X49004774Y-168359978D02*
X49640569Y-168495121D01*
X54423711Y-169511809D02*
X53787915Y-169376666D01*
X50111975Y-169740342D02*
X50577697Y-167549292D01*
X50229352Y-169765292D02*
X50695075Y-167574241D01*
X49994597Y-169715393D02*
X50460319Y-167524342D01*
G04 #@! TO.C,D5*
D11*
X94216130Y-157245654D02*
X93216130Y-157245654D01*
X93216130Y-157483750D01*
X93263750Y-157626607D01*
X93358988Y-157721845D01*
X93454226Y-157769464D01*
X93644702Y-157817083D01*
X93787559Y-157817083D01*
X93978035Y-157769464D01*
X94073273Y-157721845D01*
X94168511Y-157626607D01*
X94216130Y-157483750D01*
X94216130Y-157245654D01*
X93216130Y-158721845D02*
X93216130Y-158245654D01*
X93692321Y-158198035D01*
X93644702Y-158245654D01*
X93597083Y-158340892D01*
X93597083Y-158578988D01*
X93644702Y-158674226D01*
X93692321Y-158721845D01*
X93787559Y-158769464D01*
X94025654Y-158769464D01*
X94120892Y-158721845D01*
X94168511Y-158674226D01*
X94216130Y-158578988D01*
X94216130Y-158340892D01*
X94168511Y-158245654D01*
X94120892Y-158198035D01*
X93896130Y-161531845D02*
X92896130Y-161531845D01*
X93896130Y-162103273D02*
X93324702Y-161674702D01*
X92896130Y-162103273D02*
X93467559Y-161531845D01*
G04 #@! TO.C,D4*
X131189786Y-171433065D02*
X130981874Y-170454918D01*
X130748982Y-170504420D01*
X130619147Y-170580701D01*
X130545791Y-170693659D01*
X130519014Y-170796716D01*
X130512038Y-170992930D01*
X130541739Y-171132666D01*
X130627920Y-171309079D01*
X130694300Y-171392335D01*
X130807258Y-171465691D01*
X130956894Y-171482568D01*
X131189786Y-171433065D01*
X129653824Y-171077984D02*
X129792432Y-171730082D01*
X129807512Y-170655853D02*
X130188913Y-171305027D01*
X129583393Y-171433734D01*
X126930727Y-172011208D02*
X126722816Y-171033060D01*
X126371786Y-172130014D02*
X126672185Y-171481968D01*
X126163874Y-171151867D02*
X126841622Y-171592002D01*
G04 #@! TO.C,D3*
X112623801Y-175398602D02*
X112415889Y-174420455D01*
X112182997Y-174469957D01*
X112053162Y-174546238D01*
X111979806Y-174659196D01*
X111953029Y-174762253D01*
X111946053Y-174958467D01*
X111975754Y-175098203D01*
X112061935Y-175274616D01*
X112128315Y-175357872D01*
X112241273Y-175431228D01*
X112390909Y-175448105D01*
X112623801Y-175398602D01*
X111530898Y-174608565D02*
X110925379Y-174737272D01*
X111330632Y-175040596D01*
X111190897Y-175070298D01*
X111107640Y-175136677D01*
X111070963Y-175193156D01*
X111044185Y-175296214D01*
X111093688Y-175529106D01*
X111160068Y-175612363D01*
X111216547Y-175649040D01*
X111319604Y-175675818D01*
X111599075Y-175616414D01*
X111682331Y-175550035D01*
X111719009Y-175493556D01*
X108364742Y-175976745D02*
X108156831Y-174998597D01*
X107805801Y-176095551D02*
X108106200Y-175447505D01*
X107597889Y-175117404D02*
X108275637Y-175557539D01*
G04 #@! TO.C,D2*
X70157630Y-176368019D02*
X70365542Y-175389872D01*
X70132650Y-175340369D01*
X69983014Y-175357246D01*
X69870056Y-175430602D01*
X69803676Y-175513858D01*
X69717495Y-175690271D01*
X69687794Y-175830007D01*
X69694770Y-176026221D01*
X69721547Y-176129279D01*
X69794903Y-176242237D01*
X69924738Y-176318517D01*
X70157630Y-176368019D01*
X69414172Y-175285018D02*
X69377494Y-175228539D01*
X69294237Y-175162159D01*
X69061345Y-175112656D01*
X68958288Y-175139434D01*
X68901809Y-175176112D01*
X68835429Y-175259368D01*
X68815628Y-175352525D01*
X68832505Y-175502161D01*
X69272640Y-176179909D01*
X68667120Y-176051202D01*
X66031635Y-175163864D02*
X66239546Y-174185716D01*
X65472693Y-175045057D02*
X66010706Y-174575221D01*
X65680605Y-174066910D02*
X66120740Y-174744658D01*
G04 #@! TO.C,D1*
X51901380Y-171605519D02*
X52109292Y-170627372D01*
X51876400Y-170577869D01*
X51726764Y-170594746D01*
X51613806Y-170668102D01*
X51547426Y-170751358D01*
X51461245Y-170927771D01*
X51431544Y-171067507D01*
X51438520Y-171263721D01*
X51465297Y-171366779D01*
X51538653Y-171479737D01*
X51668488Y-171556017D01*
X51901380Y-171605519D01*
X50410870Y-171288702D02*
X50969811Y-171407508D01*
X50690340Y-171348105D02*
X50898252Y-170369957D01*
X50961707Y-170529494D01*
X51035063Y-170642452D01*
X51118320Y-170708831D01*
X47775385Y-170401364D02*
X47983296Y-169423216D01*
X47216443Y-170282557D02*
X47754456Y-169812721D01*
X47424355Y-169304410D02*
X47864490Y-169982158D01*
G04 #@! TD*
%LPC*%
D12*
G04 #@! TO.C,SW1*
X94130000Y-130300000D03*
D13*
X91630000Y-130300000D03*
X89130000Y-130300000D03*
D14*
X97230000Y-137800000D03*
X86030000Y-137800000D03*
D13*
X94130000Y-144800000D03*
X89130000Y-144800000D03*
G04 #@! TD*
D15*
G04 #@! TO.C,MX4*
X132808990Y-156783809D03*
X122871010Y-158896191D03*
D16*
G36*
X129404789Y-163674663D02*
G01*
X129008718Y-161811292D01*
X130872089Y-161415221D01*
X131268160Y-163278592D01*
X129404789Y-163674663D01*
G37*
D17*
X127653944Y-163073038D03*
D18*
X123585162Y-156147649D03*
D19*
X127840000Y-157840000D03*
D18*
X129268304Y-152342914D03*
G04 #@! TD*
D15*
G04 #@! TO.C,MX3*
X114228990Y-160733809D03*
X104291010Y-162846191D03*
D16*
G36*
X110824789Y-167624663D02*
G01*
X110428718Y-165761292D01*
X112292089Y-165365221D01*
X112688160Y-167228592D01*
X110824789Y-167624663D01*
G37*
D17*
X109073944Y-167023038D03*
D18*
X105005162Y-160097649D03*
D19*
X109260000Y-161790000D03*
D18*
X110688304Y-156292914D03*
G04 #@! TD*
D15*
G04 #@! TO.C,MX2*
X78988990Y-162816191D03*
X69051010Y-160703809D03*
D16*
G36*
X73076335Y-167726688D02*
G01*
X73472406Y-165863317D01*
X75335777Y-166259388D01*
X74939706Y-168122759D01*
X73076335Y-167726688D01*
G37*
D17*
X71721561Y-166464942D03*
D18*
X70821353Y-158483362D03*
D19*
X74020000Y-161760000D03*
D18*
X77560686Y-157319106D03*
G04 #@! TD*
D15*
G04 #@! TO.C,MX1*
X60418990Y-158886191D03*
X50481010Y-156773809D03*
D16*
G36*
X54506335Y-163796688D02*
G01*
X54902406Y-161933317D01*
X56765777Y-162329388D01*
X56369706Y-164192759D01*
X54506335Y-163796688D01*
G37*
D17*
X53151561Y-162534942D03*
D18*
X52251353Y-154553362D03*
D19*
X55450000Y-157830000D03*
D18*
X58990686Y-153389106D03*
G04 #@! TD*
D20*
G04 #@! TO.C,D5*
X91643750Y-154173750D03*
D21*
X91643750Y-161793750D03*
G04 #@! TD*
G04 #@! TO.C,D4*
G36*
G01*
X132877217Y-168444542D02*
X132877217Y-168444542D01*
G75*
G02*
X133493406Y-167495695I782518J166329D01*
G01*
X133493406Y-167495695D01*
G75*
G02*
X134442253Y-168111884I166329J-782518D01*
G01*
X134442253Y-168111884D01*
G75*
G02*
X133826064Y-169060731I-782518J-166329D01*
G01*
X133826064Y-169060731D01*
G75*
G02*
X132877217Y-168444542I-166329J782518D01*
G01*
G37*
D16*
G36*
X125590061Y-170811347D02*
G01*
X125257403Y-169246311D01*
X126822439Y-168913653D01*
X127155097Y-170478689D01*
X125590061Y-170811347D01*
G37*
G04 #@! TD*
G04 #@! TO.C,D3*
G36*
G01*
X114311232Y-172410079D02*
X114311232Y-172410079D01*
G75*
G02*
X114927421Y-171461232I782518J166329D01*
G01*
X114927421Y-171461232D01*
G75*
G02*
X115876268Y-172077421I166329J-782518D01*
G01*
X115876268Y-172077421D01*
G75*
G02*
X115260079Y-173026268I-782518J-166329D01*
G01*
X115260079Y-173026268D01*
G75*
G02*
X114311232Y-172410079I-166329J782518D01*
G01*
G37*
G36*
X107024076Y-174776884D02*
G01*
X106691418Y-173211848D01*
X108256454Y-172879190D01*
X108589112Y-174444226D01*
X107024076Y-174776884D01*
G37*
G04 #@! TD*
G04 #@! TO.C,D2*
G36*
G01*
X72914717Y-174324208D02*
X72914717Y-174324208D01*
G75*
G02*
X73863564Y-173708019I782518J-166329D01*
G01*
X73863564Y-173708019D01*
G75*
G02*
X74479753Y-174656866I-166329J-782518D01*
G01*
X74479753Y-174656866D01*
G75*
G02*
X73530906Y-175273055I-782518J166329D01*
G01*
X73530906Y-175273055D01*
G75*
G02*
X72914717Y-174324208I166329J782518D01*
G01*
G37*
G36*
X65294903Y-173522439D02*
G01*
X65627561Y-171957403D01*
X67192597Y-172290061D01*
X66859939Y-173855097D01*
X65294903Y-173522439D01*
G37*
G04 #@! TD*
G04 #@! TO.C,D1*
G36*
G01*
X54658467Y-169561708D02*
X54658467Y-169561708D01*
G75*
G02*
X55607314Y-168945519I782518J-166329D01*
G01*
X55607314Y-168945519D01*
G75*
G02*
X56223503Y-169894366I-166329J-782518D01*
G01*
X56223503Y-169894366D01*
G75*
G02*
X55274656Y-170510555I-782518J166329D01*
G01*
X55274656Y-170510555D01*
G75*
G02*
X54658467Y-169561708I166329J782518D01*
G01*
G37*
G36*
X47038653Y-168759939D02*
G01*
X47371311Y-167194903D01*
X48936347Y-167527561D01*
X48603689Y-169092597D01*
X47038653Y-168759939D01*
G37*
G04 #@! TD*
D22*
G04 #@! TO.C,B1*
X44770000Y-129880000D03*
X47310000Y-129880000D03*
X49850000Y-129880000D03*
X52390000Y-129880000D03*
X54930000Y-129880000D03*
X57470000Y-129880000D03*
X60010000Y-129880000D03*
X62550000Y-129880000D03*
X65090000Y-129880000D03*
X67630000Y-129880000D03*
X70170000Y-129880000D03*
X72710000Y-129880000D03*
X72710000Y-145120000D03*
X70170000Y-145120000D03*
X67630000Y-145120000D03*
X65090000Y-145120000D03*
X62550000Y-145120000D03*
X60010000Y-145120000D03*
X57470000Y-145120000D03*
X54930000Y-145120000D03*
X52390000Y-145120000D03*
X49850000Y-145120000D03*
X47310000Y-145120000D03*
X44770000Y-145120000D03*
G04 #@! TD*
M02*
