G04 #@! TF.GenerationSoftware,KiCad,Pcbnew,(5.1.9)-1*
G04 #@! TF.CreationDate,2021-01-29T11:52:33-08:00*
G04 #@! TF.ProjectId,foursu-pcb,666f7572-7375-42d7-9063-622e6b696361,rev?*
G04 #@! TF.SameCoordinates,Original*
G04 #@! TF.FileFunction,Legend,Top*
G04 #@! TF.FilePolarity,Positive*
%FSLAX46Y46*%
G04 Gerber Fmt 4.6, Leading zero omitted, Abs format (unit mm)*
G04 Created by KiCad (PCBNEW (5.1.9)-1) date 2021-01-29 11:52:33*
%MOMM*%
%LPD*%
G01*
G04 APERTURE LIST*
%ADD10C,0.120000*%
%ADD11C,0.150000*%
%ADD12C,0.127000*%
%ADD13R,2.000000X2.000000*%
%ADD14C,2.000000*%
%ADD15R,2.000000X3.200000*%
%ADD16C,1.750000*%
%ADD17C,3.987800*%
%ADD18O,1.600000X1.600000*%
%ADD19R,1.600000X1.600000*%
%ADD20C,0.100000*%
%ADD21C,2.082800*%
G04 APERTURE END LIST*
D10*
G04 #@! TO.C,SW1*
X91630000Y-137300000D02*
X91630000Y-138300000D01*
X92130000Y-137800000D02*
X91130000Y-137800000D01*
X88130000Y-143900000D02*
X85730000Y-143900000D01*
X92930000Y-143900000D02*
X90330000Y-143900000D01*
X97530000Y-143900000D02*
X95130000Y-143900000D01*
X95730000Y-130600000D02*
X95430000Y-130300000D01*
X95730000Y-130000000D02*
X95730000Y-130600000D01*
X95430000Y-130300000D02*
X95730000Y-130000000D01*
X97530000Y-131700000D02*
X85730000Y-131700000D01*
X97530000Y-135800000D02*
X97530000Y-131700000D01*
X85730000Y-135800000D02*
X85730000Y-131700000D01*
X85730000Y-143900000D02*
X85730000Y-139800000D01*
X97530000Y-139800000D02*
X97530000Y-143900000D01*
X94630000Y-137800000D02*
G75*
G03*
X94630000Y-137800000I-3000000J0D01*
G01*
D11*
X99234761Y-134433333D02*
X99282380Y-134290476D01*
X99282380Y-134052380D01*
X99234761Y-133957142D01*
X99187142Y-133909523D01*
X99091904Y-133861904D01*
X98996666Y-133861904D01*
X98901428Y-133909523D01*
X98853809Y-133957142D01*
X98806190Y-134052380D01*
X98758571Y-134242857D01*
X98710952Y-134338095D01*
X98663333Y-134385714D01*
X98568095Y-134433333D01*
X98472857Y-134433333D01*
X98377619Y-134385714D01*
X98330000Y-134338095D01*
X98282380Y-134242857D01*
X98282380Y-134004761D01*
X98330000Y-133861904D01*
X98282380Y-133528571D02*
X99282380Y-133290476D01*
X98568095Y-133100000D01*
X99282380Y-132909523D01*
X98282380Y-132671428D01*
X99282380Y-131766666D02*
X99282380Y-132338095D01*
X99282380Y-132052380D02*
X98282380Y-132052380D01*
X98425238Y-132147619D01*
X98520476Y-132242857D01*
X98568095Y-132338095D01*
G04 #@! TO.C,B1*
D12*
X42186457Y-137746742D02*
X42215485Y-137659657D01*
X42244514Y-137630628D01*
X42302571Y-137601600D01*
X42389657Y-137601600D01*
X42447714Y-137630628D01*
X42476742Y-137659657D01*
X42505771Y-137717714D01*
X42505771Y-137949942D01*
X41896171Y-137949942D01*
X41896171Y-137746742D01*
X41925200Y-137688685D01*
X41954228Y-137659657D01*
X42012285Y-137630628D01*
X42070342Y-137630628D01*
X42128400Y-137659657D01*
X42157428Y-137688685D01*
X42186457Y-137746742D01*
X42186457Y-137949942D01*
X42505771Y-137021028D02*
X42505771Y-137369371D01*
X42505771Y-137195200D02*
X41896171Y-137195200D01*
X41983257Y-137253257D01*
X42041314Y-137311314D01*
X42070342Y-137369371D01*
X72956742Y-142565485D02*
X72985771Y-142478400D01*
X72985771Y-142333257D01*
X72956742Y-142275200D01*
X72927714Y-142246171D01*
X72869657Y-142217142D01*
X72811600Y-142217142D01*
X72753542Y-142246171D01*
X72724514Y-142275200D01*
X72695485Y-142333257D01*
X72666457Y-142449371D01*
X72637428Y-142507428D01*
X72608400Y-142536457D01*
X72550342Y-142565485D01*
X72492285Y-142565485D01*
X72434228Y-142536457D01*
X72405200Y-142507428D01*
X72376171Y-142449371D01*
X72376171Y-142304228D01*
X72405200Y-142217142D01*
X72985771Y-141955885D02*
X72376171Y-141955885D01*
X72376171Y-141723657D01*
X72405200Y-141665600D01*
X72434228Y-141636571D01*
X72492285Y-141607542D01*
X72579371Y-141607542D01*
X72637428Y-141636571D01*
X72666457Y-141665600D01*
X72695485Y-141723657D01*
X72695485Y-141955885D01*
X72811600Y-141375314D02*
X72811600Y-141085028D01*
X72985771Y-141433371D02*
X72376171Y-141230171D01*
X72985771Y-141026971D01*
X72985771Y-140475428D02*
X72695485Y-140678628D01*
X72985771Y-140823771D02*
X72376171Y-140823771D01*
X72376171Y-140591542D01*
X72405200Y-140533485D01*
X72434228Y-140504457D01*
X72492285Y-140475428D01*
X72579371Y-140475428D01*
X72637428Y-140504457D01*
X72666457Y-140533485D01*
X72695485Y-140591542D01*
X72695485Y-140823771D01*
X72985771Y-140214171D02*
X72376171Y-140214171D01*
X72985771Y-139865828D02*
X72637428Y-140127085D01*
X72376171Y-139865828D02*
X72724514Y-140214171D01*
X72666457Y-139401371D02*
X72666457Y-139604571D01*
X72985771Y-139604571D02*
X72376171Y-139604571D01*
X72376171Y-139314285D01*
X72376171Y-139082057D02*
X72869657Y-139082057D01*
X72927714Y-139053028D01*
X72956742Y-139024000D01*
X72985771Y-138965942D01*
X72985771Y-138849828D01*
X72956742Y-138791771D01*
X72927714Y-138762742D01*
X72869657Y-138733714D01*
X72376171Y-138733714D01*
X72985771Y-138443428D02*
X72376171Y-138443428D01*
X72985771Y-138095085D01*
X72376171Y-138095085D01*
X73043828Y-137949942D02*
X73043828Y-137485485D01*
X72985771Y-137340342D02*
X72376171Y-137340342D01*
X72376171Y-137108114D01*
X72405200Y-137050057D01*
X72434228Y-137021028D01*
X72492285Y-136992000D01*
X72579371Y-136992000D01*
X72637428Y-137021028D01*
X72666457Y-137050057D01*
X72695485Y-137108114D01*
X72695485Y-137340342D01*
X72985771Y-136382400D02*
X72695485Y-136585600D01*
X72985771Y-136730742D02*
X72376171Y-136730742D01*
X72376171Y-136498514D01*
X72405200Y-136440457D01*
X72434228Y-136411428D01*
X72492285Y-136382400D01*
X72579371Y-136382400D01*
X72637428Y-136411428D01*
X72666457Y-136440457D01*
X72695485Y-136498514D01*
X72695485Y-136730742D01*
X72376171Y-136005028D02*
X72376171Y-135888914D01*
X72405200Y-135830857D01*
X72463257Y-135772800D01*
X72579371Y-135743771D01*
X72782571Y-135743771D01*
X72898685Y-135772800D01*
X72956742Y-135830857D01*
X72985771Y-135888914D01*
X72985771Y-136005028D01*
X72956742Y-136063085D01*
X72898685Y-136121142D01*
X72782571Y-136150171D01*
X72579371Y-136150171D01*
X72463257Y-136121142D01*
X72405200Y-136063085D01*
X72376171Y-136005028D01*
X73043828Y-135627657D02*
X73043828Y-135163200D01*
X72985771Y-135018057D02*
X72376171Y-135018057D01*
X72811600Y-134814857D01*
X72376171Y-134611657D01*
X72985771Y-134611657D01*
X72985771Y-134321371D02*
X72376171Y-134321371D01*
X72927714Y-133682742D02*
X72956742Y-133711771D01*
X72985771Y-133798857D01*
X72985771Y-133856914D01*
X72956742Y-133944000D01*
X72898685Y-134002057D01*
X72840628Y-134031085D01*
X72724514Y-134060114D01*
X72637428Y-134060114D01*
X72521314Y-134031085D01*
X72463257Y-134002057D01*
X72405200Y-133944000D01*
X72376171Y-133856914D01*
X72376171Y-133798857D01*
X72405200Y-133711771D01*
X72434228Y-133682742D01*
X72985771Y-133073142D02*
X72695485Y-133276342D01*
X72985771Y-133421485D02*
X72376171Y-133421485D01*
X72376171Y-133189257D01*
X72405200Y-133131200D01*
X72434228Y-133102171D01*
X72492285Y-133073142D01*
X72579371Y-133073142D01*
X72637428Y-133102171D01*
X72666457Y-133131200D01*
X72695485Y-133189257D01*
X72695485Y-133421485D01*
X72376171Y-132695771D02*
X72376171Y-132579657D01*
X72405200Y-132521600D01*
X72463257Y-132463542D01*
X72579371Y-132434514D01*
X72782571Y-132434514D01*
X72898685Y-132463542D01*
X72956742Y-132521600D01*
X72985771Y-132579657D01*
X72985771Y-132695771D01*
X72956742Y-132753828D01*
X72898685Y-132811885D01*
X72782571Y-132840914D01*
X72579371Y-132840914D01*
X72463257Y-132811885D01*
X72405200Y-132753828D01*
X72376171Y-132695771D01*
G04 #@! TD*
%LPC*%
D13*
G04 #@! TO.C,SW1*
X94130000Y-130300000D03*
D14*
X91630000Y-130300000D03*
X89130000Y-130300000D03*
D15*
X97230000Y-137800000D03*
X86030000Y-137800000D03*
D14*
X94130000Y-144800000D03*
X89130000Y-144800000D03*
G04 #@! TD*
D16*
G04 #@! TO.C,MX4*
X132808990Y-156783809D03*
X122871010Y-158896191D03*
D17*
X127840000Y-157840000D03*
G04 #@! TD*
D16*
G04 #@! TO.C,MX3*
X114228990Y-160733809D03*
X104291010Y-162846191D03*
D17*
X109260000Y-161790000D03*
G04 #@! TD*
D16*
G04 #@! TO.C,MX2*
X78988990Y-162816191D03*
X69051010Y-160703809D03*
D17*
X74020000Y-161760000D03*
G04 #@! TD*
D16*
G04 #@! TO.C,MX1*
X60418990Y-158886191D03*
X50481010Y-156773809D03*
D17*
X55450000Y-157830000D03*
G04 #@! TD*
D18*
G04 #@! TO.C,D5*
X91643750Y-154173750D03*
D19*
X91643750Y-161793750D03*
G04 #@! TD*
G04 #@! TO.C,D4*
G36*
G01*
X132877217Y-168444542D02*
X132877217Y-168444542D01*
G75*
G02*
X133493406Y-167495695I782518J166329D01*
G01*
X133493406Y-167495695D01*
G75*
G02*
X134442253Y-168111884I166329J-782518D01*
G01*
X134442253Y-168111884D01*
G75*
G02*
X133826064Y-169060731I-782518J-166329D01*
G01*
X133826064Y-169060731D01*
G75*
G02*
X132877217Y-168444542I-166329J782518D01*
G01*
G37*
D20*
G36*
X125590061Y-170811347D02*
G01*
X125257403Y-169246311D01*
X126822439Y-168913653D01*
X127155097Y-170478689D01*
X125590061Y-170811347D01*
G37*
G04 #@! TD*
G04 #@! TO.C,D3*
G36*
G01*
X114311232Y-172410079D02*
X114311232Y-172410079D01*
G75*
G02*
X114927421Y-171461232I782518J166329D01*
G01*
X114927421Y-171461232D01*
G75*
G02*
X115876268Y-172077421I166329J-782518D01*
G01*
X115876268Y-172077421D01*
G75*
G02*
X115260079Y-173026268I-782518J-166329D01*
G01*
X115260079Y-173026268D01*
G75*
G02*
X114311232Y-172410079I-166329J782518D01*
G01*
G37*
G36*
X107024076Y-174776884D02*
G01*
X106691418Y-173211848D01*
X108256454Y-172879190D01*
X108589112Y-174444226D01*
X107024076Y-174776884D01*
G37*
G04 #@! TD*
G04 #@! TO.C,D2*
G36*
G01*
X72914717Y-174324208D02*
X72914717Y-174324208D01*
G75*
G02*
X73863564Y-173708019I782518J-166329D01*
G01*
X73863564Y-173708019D01*
G75*
G02*
X74479753Y-174656866I-166329J-782518D01*
G01*
X74479753Y-174656866D01*
G75*
G02*
X73530906Y-175273055I-782518J166329D01*
G01*
X73530906Y-175273055D01*
G75*
G02*
X72914717Y-174324208I166329J782518D01*
G01*
G37*
G36*
X65294903Y-173522439D02*
G01*
X65627561Y-171957403D01*
X67192597Y-172290061D01*
X66859939Y-173855097D01*
X65294903Y-173522439D01*
G37*
G04 #@! TD*
G04 #@! TO.C,D1*
G36*
G01*
X54658467Y-169561708D02*
X54658467Y-169561708D01*
G75*
G02*
X55607314Y-168945519I782518J-166329D01*
G01*
X55607314Y-168945519D01*
G75*
G02*
X56223503Y-169894366I-166329J-782518D01*
G01*
X56223503Y-169894366D01*
G75*
G02*
X55274656Y-170510555I-782518J166329D01*
G01*
X55274656Y-170510555D01*
G75*
G02*
X54658467Y-169561708I166329J782518D01*
G01*
G37*
G36*
X47038653Y-168759939D02*
G01*
X47371311Y-167194903D01*
X48936347Y-167527561D01*
X48603689Y-169092597D01*
X47038653Y-168759939D01*
G37*
G04 #@! TD*
D21*
G04 #@! TO.C,B1*
X44770000Y-129880000D03*
X47310000Y-129880000D03*
X49850000Y-129880000D03*
X52390000Y-129880000D03*
X54930000Y-129880000D03*
X57470000Y-129880000D03*
X60010000Y-129880000D03*
X62550000Y-129880000D03*
X65090000Y-129880000D03*
X67630000Y-129880000D03*
X70170000Y-129880000D03*
X72710000Y-129880000D03*
X72710000Y-145120000D03*
X70170000Y-145120000D03*
X67630000Y-145120000D03*
X65090000Y-145120000D03*
X62550000Y-145120000D03*
X60010000Y-145120000D03*
X57470000Y-145120000D03*
X54930000Y-145120000D03*
X52390000Y-145120000D03*
X49850000Y-145120000D03*
X47310000Y-145120000D03*
X44770000Y-145120000D03*
G04 #@! TD*
M02*
