G04 #@! TF.GenerationSoftware,KiCad,Pcbnew,(5.1.9)-1*
G04 #@! TF.CreationDate,2021-01-29T11:52:33-08:00*
G04 #@! TF.ProjectId,foursu-pcb,666f7572-7375-42d7-9063-622e6b696361,rev?*
G04 #@! TF.SameCoordinates,Original*
G04 #@! TF.FileFunction,Copper,L2,Bot*
G04 #@! TF.FilePolarity,Positive*
%FSLAX46Y46*%
G04 Gerber Fmt 4.6, Leading zero omitted, Abs format (unit mm)*
G04 Created by KiCad (PCBNEW (5.1.9)-1) date 2021-01-29 11:52:33*
%MOMM*%
%LPD*%
G01*
G04 APERTURE LIST*
G04 #@! TA.AperFunction,ComponentPad*
%ADD10R,2.000000X2.000000*%
G04 #@! TD*
G04 #@! TA.AperFunction,ComponentPad*
%ADD11C,2.000000*%
G04 #@! TD*
G04 #@! TA.AperFunction,ComponentPad*
%ADD12R,2.000000X3.200000*%
G04 #@! TD*
G04 #@! TA.AperFunction,ComponentPad*
%ADD13C,0.100000*%
G04 #@! TD*
G04 #@! TA.AperFunction,ComponentPad*
%ADD14C,1.905000*%
G04 #@! TD*
G04 #@! TA.AperFunction,ComponentPad*
%ADD15C,2.250000*%
G04 #@! TD*
G04 #@! TA.AperFunction,ComponentPad*
%ADD16O,1.600000X1.600000*%
G04 #@! TD*
G04 #@! TA.AperFunction,ComponentPad*
%ADD17R,1.600000X1.600000*%
G04 #@! TD*
G04 #@! TA.AperFunction,ComponentPad*
%ADD18C,1.879600*%
G04 #@! TD*
G04 #@! TA.AperFunction,Conductor*
%ADD19C,0.381000*%
G04 #@! TD*
G04 #@! TA.AperFunction,Conductor*
%ADD20C,0.254000*%
G04 #@! TD*
G04 APERTURE END LIST*
D10*
G04 #@! TO.P,SW1,A*
G04 #@! TO.N,ENC1*
X94130000Y-130300000D03*
D11*
G04 #@! TO.P,SW1,C*
G04 #@! TO.N,GND*
X91630000Y-130300000D03*
G04 #@! TO.P,SW1,B*
G04 #@! TO.N,ENC0*
X89130000Y-130300000D03*
D12*
G04 #@! TO.P,SW1,MP*
G04 #@! TO.N,N/C*
X97230000Y-137800000D03*
X86030000Y-137800000D03*
D11*
G04 #@! TO.P,SW1,S2*
G04 #@! TO.N,COL4*
X94130000Y-144800000D03*
G04 #@! TO.P,SW1,S1*
G04 #@! TO.N,Net-(D5-Pad2)*
X89130000Y-144800000D03*
G04 #@! TD*
G04 #@! TA.AperFunction,ComponentPad*
D13*
G04 #@! TO.P,MX4,4*
G04 #@! TO.N,N/C*
G36*
X129404789Y-163674663D02*
G01*
X129008718Y-161811292D01*
X130872089Y-161415221D01*
X131268160Y-163278592D01*
X129404789Y-163674663D01*
G37*
G04 #@! TD.AperFunction*
D14*
G04 #@! TO.P,MX4,3*
X127653944Y-163073038D03*
D15*
G04 #@! TO.P,MX4,1*
G04 #@! TO.N,COL3*
X123585162Y-156147649D03*
G04 #@! TO.P,MX4,2*
G04 #@! TO.N,Net-(D4-Pad2)*
X129268304Y-152342914D03*
G04 #@! TD*
G04 #@! TA.AperFunction,ComponentPad*
D13*
G04 #@! TO.P,MX3,4*
G04 #@! TO.N,N/C*
G36*
X110824789Y-167624663D02*
G01*
X110428718Y-165761292D01*
X112292089Y-165365221D01*
X112688160Y-167228592D01*
X110824789Y-167624663D01*
G37*
G04 #@! TD.AperFunction*
D14*
G04 #@! TO.P,MX3,3*
X109073944Y-167023038D03*
D15*
G04 #@! TO.P,MX3,1*
G04 #@! TO.N,COL2*
X105005162Y-160097649D03*
G04 #@! TO.P,MX3,2*
G04 #@! TO.N,Net-(D3-Pad2)*
X110688304Y-156292914D03*
G04 #@! TD*
G04 #@! TA.AperFunction,ComponentPad*
D13*
G04 #@! TO.P,MX2,4*
G04 #@! TO.N,N/C*
G36*
X73076335Y-167726688D02*
G01*
X73472406Y-165863317D01*
X75335777Y-166259388D01*
X74939706Y-168122759D01*
X73076335Y-167726688D01*
G37*
G04 #@! TD.AperFunction*
D14*
G04 #@! TO.P,MX2,3*
X71721561Y-166464942D03*
D15*
G04 #@! TO.P,MX2,1*
G04 #@! TO.N,COL1*
X70821353Y-158483362D03*
G04 #@! TO.P,MX2,2*
G04 #@! TO.N,Net-(D2-Pad2)*
X77560686Y-157319106D03*
G04 #@! TD*
G04 #@! TA.AperFunction,ComponentPad*
D13*
G04 #@! TO.P,MX1,4*
G04 #@! TO.N,N/C*
G36*
X54506335Y-163796688D02*
G01*
X54902406Y-161933317D01*
X56765777Y-162329388D01*
X56369706Y-164192759D01*
X54506335Y-163796688D01*
G37*
G04 #@! TD.AperFunction*
D14*
G04 #@! TO.P,MX1,3*
X53151561Y-162534942D03*
D15*
G04 #@! TO.P,MX1,1*
G04 #@! TO.N,COL0*
X52251353Y-154553362D03*
G04 #@! TO.P,MX1,2*
G04 #@! TO.N,Net-(D1-Pad2)*
X58990686Y-153389106D03*
G04 #@! TD*
D16*
G04 #@! TO.P,D5,2*
G04 #@! TO.N,Net-(D5-Pad2)*
X91643750Y-154173750D03*
D17*
G04 #@! TO.P,D5,1*
G04 #@! TO.N,ROW0*
X91643750Y-161793750D03*
G04 #@! TD*
G04 #@! TO.P,D4,2*
G04 #@! TO.N,Net-(D4-Pad2)*
G04 #@! TA.AperFunction,ComponentPad*
G36*
G01*
X132877217Y-168444542D02*
X132877217Y-168444542D01*
G75*
G02*
X133493406Y-167495695I782518J166329D01*
G01*
X133493406Y-167495695D01*
G75*
G02*
X134442253Y-168111884I166329J-782518D01*
G01*
X134442253Y-168111884D01*
G75*
G02*
X133826064Y-169060731I-782518J-166329D01*
G01*
X133826064Y-169060731D01*
G75*
G02*
X132877217Y-168444542I-166329J782518D01*
G01*
G37*
G04 #@! TD.AperFunction*
G04 #@! TA.AperFunction,ComponentPad*
D13*
G04 #@! TO.P,D4,1*
G04 #@! TO.N,ROW0*
G36*
X125590061Y-170811347D02*
G01*
X125257403Y-169246311D01*
X126822439Y-168913653D01*
X127155097Y-170478689D01*
X125590061Y-170811347D01*
G37*
G04 #@! TD.AperFunction*
G04 #@! TD*
G04 #@! TO.P,D3,2*
G04 #@! TO.N,Net-(D3-Pad2)*
G04 #@! TA.AperFunction,ComponentPad*
G36*
G01*
X114311232Y-172410079D02*
X114311232Y-172410079D01*
G75*
G02*
X114927421Y-171461232I782518J166329D01*
G01*
X114927421Y-171461232D01*
G75*
G02*
X115876268Y-172077421I166329J-782518D01*
G01*
X115876268Y-172077421D01*
G75*
G02*
X115260079Y-173026268I-782518J-166329D01*
G01*
X115260079Y-173026268D01*
G75*
G02*
X114311232Y-172410079I-166329J782518D01*
G01*
G37*
G04 #@! TD.AperFunction*
G04 #@! TA.AperFunction,ComponentPad*
G04 #@! TO.P,D3,1*
G04 #@! TO.N,ROW0*
G36*
X107024076Y-174776884D02*
G01*
X106691418Y-173211848D01*
X108256454Y-172879190D01*
X108589112Y-174444226D01*
X107024076Y-174776884D01*
G37*
G04 #@! TD.AperFunction*
G04 #@! TD*
G04 #@! TO.P,D2,2*
G04 #@! TO.N,Net-(D2-Pad2)*
G04 #@! TA.AperFunction,ComponentPad*
G36*
G01*
X72914717Y-174324208D02*
X72914717Y-174324208D01*
G75*
G02*
X73863564Y-173708019I782518J-166329D01*
G01*
X73863564Y-173708019D01*
G75*
G02*
X74479753Y-174656866I-166329J-782518D01*
G01*
X74479753Y-174656866D01*
G75*
G02*
X73530906Y-175273055I-782518J166329D01*
G01*
X73530906Y-175273055D01*
G75*
G02*
X72914717Y-174324208I166329J782518D01*
G01*
G37*
G04 #@! TD.AperFunction*
G04 #@! TA.AperFunction,ComponentPad*
G04 #@! TO.P,D2,1*
G04 #@! TO.N,ROW0*
G36*
X65294903Y-173522439D02*
G01*
X65627561Y-171957403D01*
X67192597Y-172290061D01*
X66859939Y-173855097D01*
X65294903Y-173522439D01*
G37*
G04 #@! TD.AperFunction*
G04 #@! TD*
G04 #@! TO.P,D1,2*
G04 #@! TO.N,Net-(D1-Pad2)*
G04 #@! TA.AperFunction,ComponentPad*
G36*
G01*
X54658467Y-169561708D02*
X54658467Y-169561708D01*
G75*
G02*
X55607314Y-168945519I782518J-166329D01*
G01*
X55607314Y-168945519D01*
G75*
G02*
X56223503Y-169894366I-166329J-782518D01*
G01*
X56223503Y-169894366D01*
G75*
G02*
X55274656Y-170510555I-782518J166329D01*
G01*
X55274656Y-170510555D01*
G75*
G02*
X54658467Y-169561708I166329J782518D01*
G01*
G37*
G04 #@! TD.AperFunction*
G04 #@! TA.AperFunction,ComponentPad*
G04 #@! TO.P,D1,1*
G04 #@! TO.N,ROW0*
G36*
X47038653Y-168759939D02*
G01*
X47371311Y-167194903D01*
X48936347Y-167527561D01*
X48603689Y-169092597D01*
X47038653Y-168759939D01*
G37*
G04 #@! TD.AperFunction*
G04 #@! TD*
D18*
G04 #@! TO.P,B1,24*
G04 #@! TO.N,Net-(B1-Pad24)*
X44770000Y-129880000D03*
G04 #@! TO.P,B1,23*
G04 #@! TO.N,Net-(B1-Pad23)*
X47310000Y-129880000D03*
G04 #@! TO.P,B1,22*
G04 #@! TO.N,Net-(B1-Pad22)*
X49850000Y-129880000D03*
G04 #@! TO.P,B1,21*
G04 #@! TO.N,Net-(B1-Pad21)*
X52390000Y-129880000D03*
G04 #@! TO.P,B1,20*
G04 #@! TO.N,Net-(B1-Pad20)*
X54930000Y-129880000D03*
G04 #@! TO.P,B1,19*
G04 #@! TO.N,Net-(B1-Pad19)*
X57470000Y-129880000D03*
G04 #@! TO.P,B1,18*
G04 #@! TO.N,Net-(B1-Pad18)*
X60010000Y-129880000D03*
G04 #@! TO.P,B1,17*
G04 #@! TO.N,Net-(B1-Pad17)*
X62550000Y-129880000D03*
G04 #@! TO.P,B1,16*
G04 #@! TO.N,Net-(B1-Pad16)*
X65090000Y-129880000D03*
G04 #@! TO.P,B1,15*
G04 #@! TO.N,Net-(B1-Pad15)*
X67630000Y-129880000D03*
G04 #@! TO.P,B1,14*
G04 #@! TO.N,Net-(B1-Pad14)*
X70170000Y-129880000D03*
G04 #@! TO.P,B1,13*
G04 #@! TO.N,Net-(B1-Pad13)*
X72710000Y-129880000D03*
G04 #@! TO.P,B1,12*
G04 #@! TO.N,COL4*
X72710000Y-145120000D03*
G04 #@! TO.P,B1,11*
G04 #@! TO.N,COL3*
X70170000Y-145120000D03*
G04 #@! TO.P,B1,10*
G04 #@! TO.N,COL2*
X67630000Y-145120000D03*
G04 #@! TO.P,B1,9*
G04 #@! TO.N,COL1*
X65090000Y-145120000D03*
G04 #@! TO.P,B1,8*
G04 #@! TO.N,ENC1*
X62550000Y-145120000D03*
G04 #@! TO.P,B1,7*
G04 #@! TO.N,COL0*
X60010000Y-145120000D03*
G04 #@! TO.P,B1,6*
G04 #@! TO.N,ENC0*
X57470000Y-145120000D03*
G04 #@! TO.P,B1,5*
G04 #@! TO.N,ROW0*
X54930000Y-145120000D03*
G04 #@! TO.P,B1,4*
G04 #@! TO.N,GND*
X52390000Y-145120000D03*
G04 #@! TO.P,B1,3*
G04 #@! TO.N,Net-(B1-Pad3)*
X49850000Y-145120000D03*
G04 #@! TO.P,B1,2*
G04 #@! TO.N,Net-(B1-Pad2)*
X47310000Y-145120000D03*
G04 #@! TO.P,B1,1*
G04 #@! TO.N,Net-(B1-Pad1)*
X44770000Y-145120000D03*
G04 #@! TD*
D19*
G04 #@! TO.N,GND*
X90239499Y-128909499D02*
X77386565Y-128909499D01*
X91630000Y-130300000D02*
X90239499Y-128909499D01*
X54993543Y-142516457D02*
X52390000Y-145120000D01*
X63779607Y-142516457D02*
X54993543Y-142516457D01*
X77386565Y-128909499D02*
X63779607Y-142516457D01*
D20*
G04 #@! TO.N,COL0*
X52251353Y-152878647D02*
X60010000Y-145120000D01*
X52251353Y-154553362D02*
X52251353Y-152878647D01*
G04 #@! TO.N,COL1*
X70821353Y-150851353D02*
X65090000Y-145120000D01*
X70821353Y-158483362D02*
X70821353Y-150851353D01*
G04 #@! TO.N,COL4*
X73717001Y-146127001D02*
X72710000Y-145120000D01*
X92802999Y-146127001D02*
X73717001Y-146127001D01*
X94130000Y-144800000D02*
X92802999Y-146127001D01*
G04 #@! TO.N,COL3*
X80645953Y-155595953D02*
X70170000Y-145120000D01*
X109236303Y-155595953D02*
X80645953Y-155595953D01*
X109991343Y-154840913D02*
X109236303Y-155595953D01*
X122278426Y-154840913D02*
X109991343Y-154840913D01*
X123585162Y-156147649D02*
X122278426Y-154840913D01*
G04 #@! TO.N,COL2*
X82607649Y-160097649D02*
X67630000Y-145120000D01*
X105005162Y-160097649D02*
X82607649Y-160097649D01*
G04 #@! TO.N,ENC1*
X71797001Y-135872999D02*
X62550000Y-145120000D01*
X88557001Y-135872999D02*
X71797001Y-135872999D01*
X94130000Y-130300000D02*
X88557001Y-135872999D01*
G04 #@! TO.N,ENC0*
X89130000Y-130300000D02*
X84011011Y-135418989D01*
X71608944Y-135418989D02*
X71342991Y-135684943D01*
X84011011Y-135418989D02*
X71608944Y-135418989D01*
X71342991Y-135684943D02*
X63993967Y-143033967D01*
X59556033Y-143033967D02*
X57470000Y-145120000D01*
X63993967Y-143033967D02*
X59556033Y-143033967D01*
G04 #@! TD*
M02*
