M48
; DRILL file {KiCad (5.1.9)-1} date 01/29/21 11:52:31
; FORMAT={-:-/ absolute / inch / decimal}
; #@! TF.CreationDate,2021-01-29T11:52:31-08:00
; #@! TF.GenerationSoftware,Kicad,Pcbnew,(5.1.9)-1
; #@! TF.FileFunction,Plated,1,2,PTH
FMAT,2
INCH
T1C0.0315
T2C0.0394
T3C0.0400
T4C0.0409
T5C0.0579
T6C0.0591
%
G90
G05
T1
X1.8893Y-6.6198
X2.1827Y-6.6822
X2.608Y-6.8073
X2.9015Y-6.8697
X3.608Y-6.0698
X3.608Y-6.3698
X4.2378Y-6.8436
X4.5312Y-6.7812
X4.9688Y-6.6875
X5.2622Y-6.6251
T2
X3.5091Y-5.1299
X3.5091Y-5.7008
X3.6075Y-5.1299
X3.7059Y-5.1299
X3.7059Y-5.7008
T3
X1.7626Y-5.1134
X1.7626Y-5.7134
X1.8626Y-5.1134
X1.8626Y-5.7134
X1.9626Y-5.1134
X1.9626Y-5.7134
X2.0626Y-5.1134
X2.0626Y-5.7134
X2.1626Y-5.1134
X2.1626Y-5.7134
X2.2626Y-5.1134
X2.2626Y-5.7134
X2.3626Y-5.1134
X2.3626Y-5.7134
X2.4626Y-5.1134
X2.4626Y-5.7134
X2.5626Y-5.1134
X2.5626Y-5.7134
X2.6626Y-5.1134
X2.6626Y-5.7134
X2.7626Y-5.1134
X2.7626Y-5.7134
X2.8626Y-5.1134
X2.8626Y-5.7134
T4
X2.0926Y-6.399
X2.1904Y-6.4198
X2.8237Y-6.5537
X2.9215Y-6.5745
X4.2942Y-6.5757
X4.3921Y-6.5549
X5.0257Y-6.4202
X5.1236Y-6.3994
T5
X2.0571Y-6.0848
X2.3225Y-6.0389
X2.7882Y-6.2395
X3.0536Y-6.1937
X4.1341Y-6.3031
X4.3578Y-6.1533
X4.8656Y-6.1475
X5.0893Y-5.9978
T6
G00X3.387Y-5.3996
M15
G01X3.387Y-5.4508
M16
G05
G00X3.828Y-5.3996
M15
G01X3.828Y-5.4508
M16
G05
T0
M30
