M48
; DRILL file {KiCad (5.1.9)-1} date 03/05/21 20:18:48
; FORMAT={-:-/ absolute / inch / decimal}
; #@! TF.CreationDate,2021-03-05T20:18:48-08:00
; #@! TF.GenerationSoftware,Kicad,Pcbnew,(5.1.9)-1
; #@! TF.FileFunction,Plated,1,2,PTH
FMAT,2
INCH
T1C0.0157
T2C0.0197
T3C0.0394
T4C0.0409
T5C0.0579
T6C0.0591
%
G90
G05
T1
X2.1106Y-1.5547
X2.1106Y-1.5862
X2.1106Y-1.6177
X2.1106Y-1.6807
X2.1106Y-1.7122
X2.1106Y-1.7437
X2.1382Y-1.539
X2.1382Y-1.602
X2.1382Y-1.6335
X2.1382Y-1.665
X2.1382Y-1.6965
X2.1382Y-1.7594
X2.24Y-1.6
X2.28Y-1.56
X2.5663Y-1.81
X2.785Y-1.55
X4.305Y-2.18
X4.59Y-2.035
X4.69Y-1.25
X4.7326Y-2.1024
X4.8838Y-2.0738
X4.9474Y-2.1024
X5.105Y-2.18
X5.2Y-1.395
X5.22Y-1.805
X5.305Y-1.79
X5.34Y-1.76
X5.3646Y-1.7293
X5.3931Y-1.7021
X5.4208Y-1.6741
T3
X3.3484Y-1.5606
X3.3484Y-1.6591
X3.3484Y-1.7575
X3.9193Y-1.5606
X3.9193Y-1.7575
T4
X2.1416Y-2.7249
X2.2394Y-2.7457
X2.8735Y-2.8805
X2.9713Y-2.9013
X4.3162Y-2.901
X4.414Y-2.8802
X5.048Y-2.7453
X5.1458Y-2.7246
T5
X2.1062Y-2.4107
X2.1686Y-2.3652
X2.3652Y-2.3869
X2.3715Y-2.3649
X2.838Y-2.5662
X2.9004Y-2.5207
X3.0971Y-2.5424
X3.1034Y-2.5204
X4.156Y-2.6284
X4.1945Y-2.5614
X4.3798Y-2.4786
X4.383Y-2.5012
X4.8878Y-2.4727
X4.9263Y-2.4057
X5.1115Y-2.3229
X5.1148Y-2.3456
T2
G00X1.8921Y-1.4724
M15
G01X1.8685Y-1.4724
M16
G05
G00X1.8921Y-1.826
M15
G01X1.8685Y-1.826
M16
G05
G00X2.1264Y-1.4866
M15
G01X2.1028Y-1.4866
M16
G05
G00X2.1264Y-1.8118
M15
G01X2.1028Y-1.8118
M16
G05
T6
G00X3.6181Y-1.4386
M15
G01X3.6693Y-1.4386
M16
G05
G00X3.6181Y-1.8795
M15
G01X3.6693Y-1.8795
M16
G05
T0
M30
