G04 #@! TF.GenerationSoftware,KiCad,Pcbnew,(5.1.9)-1*
G04 #@! TF.CreationDate,2021-03-05T20:18:36-08:00*
G04 #@! TF.ProjectId,foursu-pcb,666f7572-7375-42d7-9063-622e6b696361,rev?*
G04 #@! TF.SameCoordinates,Original*
G04 #@! TF.FileFunction,Copper,L2,Bot*
G04 #@! TF.FilePolarity,Positive*
%FSLAX46Y46*%
G04 Gerber Fmt 4.6, Leading zero omitted, Abs format (unit mm)*
G04 Created by KiCad (PCBNEW (5.1.9)-1) date 2021-03-05 20:18:36*
%MOMM*%
%LPD*%
G01*
G04 APERTURE LIST*
G04 #@! TA.AperFunction,ComponentPad*
%ADD10C,0.100000*%
G04 #@! TD*
G04 #@! TA.AperFunction,ComponentPad*
%ADD11C,1.905000*%
G04 #@! TD*
G04 #@! TA.AperFunction,ComponentPad*
%ADD12C,2.250000*%
G04 #@! TD*
G04 #@! TA.AperFunction,SMDPad,CuDef*
%ADD13R,1.200000X0.900000*%
G04 #@! TD*
G04 #@! TA.AperFunction,SMDPad,CuDef*
%ADD14R,1.200000X1.400000*%
G04 #@! TD*
G04 #@! TA.AperFunction,SMDPad,CuDef*
%ADD15R,1.500000X0.550000*%
G04 #@! TD*
G04 #@! TA.AperFunction,SMDPad,CuDef*
%ADD16R,0.550000X1.500000*%
G04 #@! TD*
G04 #@! TA.AperFunction,SMDPad,CuDef*
%ADD17R,1.800000X1.100000*%
G04 #@! TD*
G04 #@! TA.AperFunction,ComponentPad*
%ADD18C,0.650000*%
G04 #@! TD*
G04 #@! TA.AperFunction,ComponentPad*
%ADD19O,1.400000X0.800000*%
G04 #@! TD*
G04 #@! TA.AperFunction,ComponentPad*
%ADD20R,2.000000X2.000000*%
G04 #@! TD*
G04 #@! TA.AperFunction,ComponentPad*
%ADD21C,2.000000*%
G04 #@! TD*
G04 #@! TA.AperFunction,ComponentPad*
%ADD22R,3.200000X2.000000*%
G04 #@! TD*
G04 #@! TA.AperFunction,ViaPad*
%ADD23C,0.800000*%
G04 #@! TD*
G04 #@! TA.AperFunction,Conductor*
%ADD24C,0.254000*%
G04 #@! TD*
G04 #@! TA.AperFunction,Conductor*
%ADD25C,0.381000*%
G04 #@! TD*
G04 #@! TA.AperFunction,Conductor*
%ADD26C,0.100000*%
G04 #@! TD*
G04 APERTURE END LIST*
G04 #@! TA.AperFunction,ComponentPad*
D10*
G04 #@! TO.P,MX4,4*
G04 #@! TO.N,N/C*
G36*
X129969789Y-70333413D02*
G01*
X129573718Y-68470042D01*
X131437089Y-68073971D01*
X131833160Y-69937342D01*
X129969789Y-70333413D01*
G37*
G04 #@! TD.AperFunction*
D11*
G04 #@! TO.P,MX4,3*
X128218944Y-69731788D03*
D12*
G04 #@! TO.P,MX4,1*
G04 #@! TO.N,COL3*
X125127984Y-61105939D03*
G04 #@! TA.AperFunction,ComponentPad*
G36*
G01*
X123589363Y-63781658D02*
X123589356Y-63781654D01*
G75*
G02*
X123174907Y-62245593I560806J975255D01*
G01*
X124152731Y-60545133D01*
G75*
G02*
X125688792Y-60130684I975255J-560806D01*
G01*
X125688792Y-60130684D01*
G75*
G02*
X126103241Y-61666745I-560806J-975255D01*
G01*
X125125417Y-63367205D01*
G75*
G02*
X123589356Y-63781654I-975255J560806D01*
G01*
G37*
G04 #@! TD.AperFunction*
G04 #@! TO.P,MX4,2*
G04 #@! TO.N,Net-(D4-Pad2)*
X129833304Y-59001664D03*
G04 #@! TA.AperFunction,ComponentPad*
G36*
G01*
X130073280Y-60691084D02*
X130072401Y-60691208D01*
G75*
G02*
X128800865Y-59734942I-157635J1113901D01*
G01*
X128719403Y-59159300D01*
G75*
G02*
X129675669Y-57887764I1113901J157635D01*
G01*
X129675669Y-57887764D01*
G75*
G02*
X130947205Y-58844030I157635J-1113901D01*
G01*
X131028667Y-59419672D01*
G75*
G02*
X130072401Y-60691208I-1113901J-157635D01*
G01*
G37*
G04 #@! TD.AperFunction*
G04 #@! TD*
G04 #@! TA.AperFunction,ComponentPad*
D10*
G04 #@! TO.P,MX3,4*
G04 #@! TO.N,N/C*
G36*
X111382289Y-74287163D02*
G01*
X110986218Y-72423792D01*
X112849589Y-72027721D01*
X113245660Y-73891092D01*
X111382289Y-74287163D01*
G37*
G04 #@! TD.AperFunction*
D11*
G04 #@! TO.P,MX3,3*
X109631444Y-73685538D03*
D12*
G04 #@! TO.P,MX3,1*
G04 #@! TO.N,COL2*
X106540484Y-65059689D03*
G04 #@! TA.AperFunction,ComponentPad*
G36*
G01*
X105001863Y-67735408D02*
X105001856Y-67735404D01*
G75*
G02*
X104587407Y-66199343I560806J975255D01*
G01*
X105565231Y-64498883D01*
G75*
G02*
X107101292Y-64084434I975255J-560806D01*
G01*
X107101292Y-64084434D01*
G75*
G02*
X107515741Y-65620495I-560806J-975255D01*
G01*
X106537917Y-67320955D01*
G75*
G02*
X105001856Y-67735404I-975255J560806D01*
G01*
G37*
G04 #@! TD.AperFunction*
G04 #@! TO.P,MX3,2*
G04 #@! TO.N,Net-(D3-Pad2)*
X111245804Y-62955414D03*
G04 #@! TA.AperFunction,ComponentPad*
G36*
G01*
X111485780Y-64644834D02*
X111484901Y-64644958D01*
G75*
G02*
X110213365Y-63688692I-157635J1113901D01*
G01*
X110131903Y-63113050D01*
G75*
G02*
X111088169Y-61841514I1113901J157635D01*
G01*
X111088169Y-61841514D01*
G75*
G02*
X112359705Y-62797780I157635J-1113901D01*
G01*
X112441167Y-63373422D01*
G75*
G02*
X111484901Y-64644958I-1113901J-157635D01*
G01*
G37*
G04 #@! TD.AperFunction*
G04 #@! TD*
G04 #@! TA.AperFunction,ComponentPad*
D10*
G04 #@! TO.P,MX2,4*
G04 #@! TO.N,N/C*
G36*
X74341335Y-74425438D02*
G01*
X74737406Y-72562067D01*
X76600777Y-72958138D01*
X76204706Y-74821509D01*
X74341335Y-74425438D01*
G37*
G04 #@! TD.AperFunction*
D11*
G04 #@! TO.P,MX2,3*
X72986561Y-73163692D03*
D12*
G04 #@! TO.P,MX2,1*
G04 #@! TO.N,COL1*
X73671278Y-64026380D03*
G04 #@! TA.AperFunction,ComponentPad*
G36*
G01*
X71177364Y-65844958D02*
X71177360Y-65844952D01*
G75*
G02*
X71423513Y-64273119I908993J662840D01*
G01*
X73008439Y-63117389D01*
G75*
G02*
X74580272Y-63363542I662840J-908993D01*
G01*
X74580272Y-63363542D01*
G75*
G02*
X74334119Y-64935375I-908993J-662840D01*
G01*
X72749193Y-66091105D01*
G75*
G02*
X71177360Y-65844952I-662840J908993D01*
G01*
G37*
G04 #@! TD.AperFunction*
G04 #@! TO.P,MX2,2*
G04 #@! TO.N,Net-(D2-Pad2)*
X78825686Y-64017856D03*
G04 #@! TA.AperFunction,ComponentPad*
G36*
G01*
X78357768Y-65658824D02*
X78356914Y-65658580D01*
G75*
G02*
X77584257Y-64267807I309058J1081715D01*
G01*
X77743971Y-63708797D01*
G75*
G02*
X79134744Y-62936140I1081715J-309058D01*
G01*
X79134744Y-62936140D01*
G75*
G02*
X79907401Y-64326913I-309058J-1081715D01*
G01*
X79747687Y-64885923D01*
G75*
G02*
X78356914Y-65658580I-1081715J309058D01*
G01*
G37*
G04 #@! TD.AperFunction*
G04 #@! TD*
G04 #@! TA.AperFunction,ComponentPad*
D10*
G04 #@! TO.P,MX1,4*
G04 #@! TO.N,N/C*
G36*
X55751335Y-70475438D02*
G01*
X56147406Y-68612067D01*
X58010777Y-69008138D01*
X57614706Y-70871509D01*
X55751335Y-70475438D01*
G37*
G04 #@! TD.AperFunction*
D11*
G04 #@! TO.P,MX1,3*
X54396561Y-69213692D03*
D12*
G04 #@! TO.P,MX1,1*
G04 #@! TO.N,COL0*
X55081278Y-60076380D03*
G04 #@! TA.AperFunction,ComponentPad*
G36*
G01*
X52587364Y-61894958D02*
X52587360Y-61894952D01*
G75*
G02*
X52833513Y-60323119I908993J662840D01*
G01*
X54418439Y-59167389D01*
G75*
G02*
X55990272Y-59413542I662840J-908993D01*
G01*
X55990272Y-59413542D01*
G75*
G02*
X55744119Y-60985375I-908993J-662840D01*
G01*
X54159193Y-62141105D01*
G75*
G02*
X52587360Y-61894952I-662840J908993D01*
G01*
G37*
G04 #@! TD.AperFunction*
G04 #@! TO.P,MX1,2*
G04 #@! TO.N,Net-(D1-Pad2)*
X60235686Y-60067856D03*
G04 #@! TA.AperFunction,ComponentPad*
G36*
G01*
X59767768Y-61708824D02*
X59766914Y-61708580D01*
G75*
G02*
X58994257Y-60317807I309058J1081715D01*
G01*
X59153971Y-59758797D01*
G75*
G02*
X60544744Y-58986140I1081715J-309058D01*
G01*
X60544744Y-58986140D01*
G75*
G02*
X61317401Y-60376913I-309058J-1081715D01*
G01*
X61157687Y-60935923D01*
G75*
G02*
X59766914Y-61708580I-1081715J309058D01*
G01*
G37*
G04 #@! TD.AperFunction*
G04 #@! TD*
D13*
G04 #@! TO.P,D5,2*
G04 #@! TO.N,Net-(D5-Pad2)*
X105080000Y-52260000D03*
G04 #@! TO.P,D5,1*
G04 #@! TO.N,ROW0*
X105080000Y-55560000D03*
G04 #@! TD*
G04 #@! TO.P,D4,2*
G04 #@! TO.N,Net-(D4-Pad2)*
X133858000Y-73280000D03*
G04 #@! TO.P,D4,1*
G04 #@! TO.N,ROW0*
X133858000Y-76580000D03*
G04 #@! TD*
G04 #@! TO.P,D3,2*
G04 #@! TO.N,Net-(D3-Pad2)*
X114681000Y-77090000D03*
G04 #@! TO.P,D3,1*
G04 #@! TO.N,ROW0*
X114681000Y-80390000D03*
G04 #@! TD*
G04 #@! TO.P,D2,2*
G04 #@! TO.N,Net-(D2-Pad2)*
X77343000Y-78360000D03*
G04 #@! TO.P,D2,1*
G04 #@! TO.N,ROW0*
X77343000Y-81660000D03*
G04 #@! TD*
G04 #@! TO.P,D1,2*
G04 #@! TO.N,Net-(D1-Pad2)*
X58420000Y-74423000D03*
G04 #@! TO.P,D1,1*
G04 #@! TO.N,ROW0*
X58420000Y-77723000D03*
G04 #@! TD*
D14*
G04 #@! TO.P,Y1,4*
G04 #@! TO.N,GND*
X110480000Y-41292500D03*
G04 #@! TO.P,Y1,3*
G04 #@! TO.N,Net-(C4-Pad1)*
X110480000Y-43492500D03*
G04 #@! TO.P,Y1,2*
G04 #@! TO.N,GND*
X112180000Y-43492500D03*
G04 #@! TO.P,Y1,1*
G04 #@! TO.N,Net-(C3-Pad1)*
X112180000Y-41292500D03*
G04 #@! TD*
D15*
G04 #@! TO.P,U1,44*
G04 #@! TO.N,+5V*
X128086250Y-46086250D03*
G04 #@! TO.P,U1,43*
G04 #@! TO.N,GND*
X128086250Y-45286250D03*
G04 #@! TO.P,U1,42*
G04 #@! TO.N,Net-(U1-Pad42)*
X128086250Y-44486250D03*
G04 #@! TO.P,U1,41*
G04 #@! TO.N,ROW0*
X128086250Y-43686250D03*
G04 #@! TO.P,U1,40*
G04 #@! TO.N,COL4*
X128086250Y-42886250D03*
G04 #@! TO.P,U1,39*
G04 #@! TO.N,COL3*
X128086250Y-42086250D03*
G04 #@! TO.P,U1,38*
G04 #@! TO.N,COL2*
X128086250Y-41286250D03*
G04 #@! TO.P,U1,37*
G04 #@! TO.N,COL1*
X128086250Y-40486250D03*
G04 #@! TO.P,U1,36*
G04 #@! TO.N,COL0*
X128086250Y-39686250D03*
G04 #@! TO.P,U1,35*
G04 #@! TO.N,GND*
X128086250Y-38886250D03*
G04 #@! TO.P,U1,34*
G04 #@! TO.N,+5V*
X128086250Y-38086250D03*
D16*
G04 #@! TO.P,U1,33*
G04 #@! TO.N,Net-(R4-Pad2)*
X126386250Y-36386250D03*
G04 #@! TO.P,U1,32*
G04 #@! TO.N,Net-(U1-Pad32)*
X125586250Y-36386250D03*
G04 #@! TO.P,U1,31*
G04 #@! TO.N,Net-(U1-Pad31)*
X124786250Y-36386250D03*
G04 #@! TO.P,U1,30*
G04 #@! TO.N,Net-(U1-Pad30)*
X123986250Y-36386250D03*
G04 #@! TO.P,U1,29*
G04 #@! TO.N,Net-(U1-Pad29)*
X123186250Y-36386250D03*
G04 #@! TO.P,U1,28*
G04 #@! TO.N,Net-(U1-Pad28)*
X122386250Y-36386250D03*
G04 #@! TO.P,U1,27*
G04 #@! TO.N,Net-(U1-Pad27)*
X121586250Y-36386250D03*
G04 #@! TO.P,U1,26*
G04 #@! TO.N,Net-(U1-Pad26)*
X120786250Y-36386250D03*
G04 #@! TO.P,U1,25*
G04 #@! TO.N,Net-(U1-Pad25)*
X119986250Y-36386250D03*
G04 #@! TO.P,U1,24*
G04 #@! TO.N,+5V*
X119186250Y-36386250D03*
G04 #@! TO.P,U1,23*
G04 #@! TO.N,GND*
X118386250Y-36386250D03*
D15*
G04 #@! TO.P,U1,22*
G04 #@! TO.N,ENC1*
X116686250Y-38086250D03*
G04 #@! TO.P,U1,21*
G04 #@! TO.N,ENC0*
X116686250Y-38886250D03*
G04 #@! TO.P,U1,20*
G04 #@! TO.N,Net-(U1-Pad20)*
X116686250Y-39686250D03*
G04 #@! TO.P,U1,19*
G04 #@! TO.N,Net-(U1-Pad19)*
X116686250Y-40486250D03*
G04 #@! TO.P,U1,18*
G04 #@! TO.N,Net-(U1-Pad18)*
X116686250Y-41286250D03*
G04 #@! TO.P,U1,17*
G04 #@! TO.N,Net-(C3-Pad1)*
X116686250Y-42086250D03*
G04 #@! TO.P,U1,16*
G04 #@! TO.N,Net-(C4-Pad1)*
X116686250Y-42886250D03*
G04 #@! TO.P,U1,15*
G04 #@! TO.N,GND*
X116686250Y-43686250D03*
G04 #@! TO.P,U1,14*
G04 #@! TO.N,+5V*
X116686250Y-44486250D03*
G04 #@! TO.P,U1,13*
G04 #@! TO.N,Net-(R3-Pad2)*
X116686250Y-45286250D03*
G04 #@! TO.P,U1,12*
G04 #@! TO.N,Net-(U1-Pad12)*
X116686250Y-46086250D03*
D16*
G04 #@! TO.P,U1,11*
G04 #@! TO.N,Net-(U1-Pad11)*
X118386250Y-47786250D03*
G04 #@! TO.P,U1,10*
G04 #@! TO.N,Net-(U1-Pad10)*
X119186250Y-47786250D03*
G04 #@! TO.P,U1,9*
G04 #@! TO.N,Net-(U1-Pad9)*
X119986250Y-47786250D03*
G04 #@! TO.P,U1,8*
G04 #@! TO.N,Net-(U1-Pad8)*
X120786250Y-47786250D03*
G04 #@! TO.P,U1,7*
G04 #@! TO.N,+5V*
X121586250Y-47786250D03*
G04 #@! TO.P,U1,6*
G04 #@! TO.N,Net-(C7-Pad1)*
X122386250Y-47786250D03*
G04 #@! TO.P,U1,5*
G04 #@! TO.N,GND*
X123186250Y-47786250D03*
G04 #@! TO.P,U1,4*
G04 #@! TO.N,Net-(R2-Pad1)*
X123986250Y-47786250D03*
G04 #@! TO.P,U1,3*
G04 #@! TO.N,Net-(R1-Pad1)*
X124786250Y-47786250D03*
G04 #@! TO.P,U1,2*
G04 #@! TO.N,+5V*
X125586250Y-47786250D03*
G04 #@! TO.P,U1,1*
G04 #@! TO.N,Net-(U1-Pad1)*
X126386250Y-47786250D03*
G04 #@! TD*
D17*
G04 #@! TO.P,SW2,4*
G04 #@! TO.N,N/C*
X72790000Y-36880000D03*
G04 #@! TO.P,SW2,3*
X78990000Y-40580000D03*
G04 #@! TO.P,SW2,2*
G04 #@! TO.N,Net-(R3-Pad2)*
X72790000Y-40580000D03*
G04 #@! TO.P,SW2,1*
G04 #@! TO.N,GND*
X78990000Y-36880000D03*
G04 #@! TD*
G04 #@! TO.P,R6,2*
G04 #@! TO.N,Net-(J1-PadB5)*
G04 #@! TA.AperFunction,SMDPad,CuDef*
G36*
G01*
X71037500Y-50349999D02*
X71037500Y-51250001D01*
G75*
G02*
X70787501Y-51500000I-249999J0D01*
G01*
X70262499Y-51500000D01*
G75*
G02*
X70012500Y-51250001I0J249999D01*
G01*
X70012500Y-50349999D01*
G75*
G02*
X70262499Y-50100000I249999J0D01*
G01*
X70787501Y-50100000D01*
G75*
G02*
X71037500Y-50349999I0J-249999D01*
G01*
G37*
G04 #@! TD.AperFunction*
G04 #@! TO.P,R6,1*
G04 #@! TO.N,GND*
G04 #@! TA.AperFunction,SMDPad,CuDef*
G36*
G01*
X72862500Y-50349999D02*
X72862500Y-51250001D01*
G75*
G02*
X72612501Y-51500000I-249999J0D01*
G01*
X72087499Y-51500000D01*
G75*
G02*
X71837500Y-51250001I0J249999D01*
G01*
X71837500Y-50349999D01*
G75*
G02*
X72087499Y-50100000I249999J0D01*
G01*
X72612501Y-50100000D01*
G75*
G02*
X72862500Y-50349999I0J-249999D01*
G01*
G37*
G04 #@! TD.AperFunction*
G04 #@! TD*
G04 #@! TO.P,R5,2*
G04 #@! TO.N,Net-(J1-PadA5)*
G04 #@! TA.AperFunction,SMDPad,CuDef*
G36*
G01*
X71037500Y-47174999D02*
X71037500Y-48075001D01*
G75*
G02*
X70787501Y-48325000I-249999J0D01*
G01*
X70262499Y-48325000D01*
G75*
G02*
X70012500Y-48075001I0J249999D01*
G01*
X70012500Y-47174999D01*
G75*
G02*
X70262499Y-46925000I249999J0D01*
G01*
X70787501Y-46925000D01*
G75*
G02*
X71037500Y-47174999I0J-249999D01*
G01*
G37*
G04 #@! TD.AperFunction*
G04 #@! TO.P,R5,1*
G04 #@! TO.N,GND*
G04 #@! TA.AperFunction,SMDPad,CuDef*
G36*
G01*
X72862500Y-47174999D02*
X72862500Y-48075001D01*
G75*
G02*
X72612501Y-48325000I-249999J0D01*
G01*
X72087499Y-48325000D01*
G75*
G02*
X71837500Y-48075001I0J249999D01*
G01*
X71837500Y-47174999D01*
G75*
G02*
X72087499Y-46925000I249999J0D01*
G01*
X72612501Y-46925000D01*
G75*
G02*
X72862500Y-47174999I0J-249999D01*
G01*
G37*
G04 #@! TD.AperFunction*
G04 #@! TD*
G04 #@! TO.P,R4,2*
G04 #@! TO.N,Net-(R4-Pad2)*
G04 #@! TA.AperFunction,SMDPad,CuDef*
G36*
G01*
X126867500Y-32111249D02*
X126867500Y-33011251D01*
G75*
G02*
X126617501Y-33261250I-249999J0D01*
G01*
X126092499Y-33261250D01*
G75*
G02*
X125842500Y-33011251I0J249999D01*
G01*
X125842500Y-32111249D01*
G75*
G02*
X126092499Y-31861250I249999J0D01*
G01*
X126617501Y-31861250D01*
G75*
G02*
X126867500Y-32111249I0J-249999D01*
G01*
G37*
G04 #@! TD.AperFunction*
G04 #@! TO.P,R4,1*
G04 #@! TO.N,GND*
G04 #@! TA.AperFunction,SMDPad,CuDef*
G36*
G01*
X128692500Y-32111249D02*
X128692500Y-33011251D01*
G75*
G02*
X128442501Y-33261250I-249999J0D01*
G01*
X127917499Y-33261250D01*
G75*
G02*
X127667500Y-33011251I0J249999D01*
G01*
X127667500Y-32111249D01*
G75*
G02*
X127917499Y-31861250I249999J0D01*
G01*
X128442501Y-31861250D01*
G75*
G02*
X128692500Y-32111249I0J-249999D01*
G01*
G37*
G04 #@! TD.AperFunction*
G04 #@! TD*
G04 #@! TO.P,R3,2*
G04 #@! TO.N,Net-(R3-Pad2)*
G04 #@! TA.AperFunction,SMDPad,CuDef*
G36*
G01*
X116555000Y-53648751D02*
X116555000Y-52748749D01*
G75*
G02*
X116804999Y-52498750I249999J0D01*
G01*
X117330001Y-52498750D01*
G75*
G02*
X117580000Y-52748749I0J-249999D01*
G01*
X117580000Y-53648751D01*
G75*
G02*
X117330001Y-53898750I-249999J0D01*
G01*
X116804999Y-53898750D01*
G75*
G02*
X116555000Y-53648751I0J249999D01*
G01*
G37*
G04 #@! TD.AperFunction*
G04 #@! TO.P,R3,1*
G04 #@! TO.N,+5V*
G04 #@! TA.AperFunction,SMDPad,CuDef*
G36*
G01*
X114730000Y-53648751D02*
X114730000Y-52748749D01*
G75*
G02*
X114979999Y-52498750I249999J0D01*
G01*
X115505001Y-52498750D01*
G75*
G02*
X115755000Y-52748749I0J-249999D01*
G01*
X115755000Y-53648751D01*
G75*
G02*
X115505001Y-53898750I-249999J0D01*
G01*
X114979999Y-53898750D01*
G75*
G02*
X114730000Y-53648751I0J249999D01*
G01*
G37*
G04 #@! TD.AperFunction*
G04 #@! TD*
G04 #@! TO.P,R2,2*
G04 #@! TO.N,D+*
G04 #@! TA.AperFunction,SMDPad,CuDef*
G36*
G01*
X62306250Y-43206249D02*
X62306250Y-44106251D01*
G75*
G02*
X62056251Y-44356250I-249999J0D01*
G01*
X61531249Y-44356250D01*
G75*
G02*
X61281250Y-44106251I0J249999D01*
G01*
X61281250Y-43206249D01*
G75*
G02*
X61531249Y-42956250I249999J0D01*
G01*
X62056251Y-42956250D01*
G75*
G02*
X62306250Y-43206249I0J-249999D01*
G01*
G37*
G04 #@! TD.AperFunction*
G04 #@! TO.P,R2,1*
G04 #@! TO.N,Net-(R2-Pad1)*
G04 #@! TA.AperFunction,SMDPad,CuDef*
G36*
G01*
X64131250Y-43206249D02*
X64131250Y-44106251D01*
G75*
G02*
X63881251Y-44356250I-249999J0D01*
G01*
X63356249Y-44356250D01*
G75*
G02*
X63106250Y-44106251I0J249999D01*
G01*
X63106250Y-43206249D01*
G75*
G02*
X63356249Y-42956250I249999J0D01*
G01*
X63881251Y-42956250D01*
G75*
G02*
X64131250Y-43206249I0J-249999D01*
G01*
G37*
G04 #@! TD.AperFunction*
G04 #@! TD*
G04 #@! TO.P,R1,2*
G04 #@! TO.N,D-*
G04 #@! TA.AperFunction,SMDPad,CuDef*
G36*
G01*
X62306250Y-40824999D02*
X62306250Y-41725001D01*
G75*
G02*
X62056251Y-41975000I-249999J0D01*
G01*
X61531249Y-41975000D01*
G75*
G02*
X61281250Y-41725001I0J249999D01*
G01*
X61281250Y-40824999D01*
G75*
G02*
X61531249Y-40575000I249999J0D01*
G01*
X62056251Y-40575000D01*
G75*
G02*
X62306250Y-40824999I0J-249999D01*
G01*
G37*
G04 #@! TD.AperFunction*
G04 #@! TO.P,R1,1*
G04 #@! TO.N,Net-(R1-Pad1)*
G04 #@! TA.AperFunction,SMDPad,CuDef*
G36*
G01*
X64131250Y-40824999D02*
X64131250Y-41725001D01*
G75*
G02*
X63881251Y-41975000I-249999J0D01*
G01*
X63356249Y-41975000D01*
G75*
G02*
X63106250Y-41725001I0J249999D01*
G01*
X63106250Y-40824999D01*
G75*
G02*
X63356249Y-40575000I249999J0D01*
G01*
X63881251Y-40575000D01*
G75*
G02*
X64131250Y-40824999I0J-249999D01*
G01*
G37*
G04 #@! TD.AperFunction*
G04 #@! TD*
D18*
G04 #@! TO.P,J1,B11*
G04 #@! TO.N,N/C*
X53610000Y-39490000D03*
G04 #@! TO.P,J1,B10*
X53610000Y-40290000D03*
G04 #@! TO.P,J1,B8*
G04 #@! TO.N,Net-(J1-PadB8)*
X53610000Y-41090000D03*
G04 #@! TO.P,J1,B5*
G04 #@! TO.N,Net-(J1-PadB5)*
X53610000Y-42690000D03*
G04 #@! TO.P,J1,B3*
G04 #@! TO.N,N/C*
X53610000Y-43490000D03*
G04 #@! TO.P,J1,B2*
X53610000Y-44290000D03*
G04 #@! TO.P,J1,B12*
G04 #@! TO.N,GND*
X54310000Y-39090000D03*
G04 #@! TO.P,J1,B9*
G04 #@! TO.N,VCC*
X54310000Y-40690000D03*
G04 #@! TO.P,J1,B7*
G04 #@! TO.N,D-*
X54310000Y-41490000D03*
G04 #@! TO.P,J1,B6*
G04 #@! TO.N,D+*
X54310000Y-42290000D03*
G04 #@! TO.P,J1,B4*
G04 #@! TO.N,VCC*
X54310000Y-43090000D03*
G04 #@! TO.P,J1,B1*
G04 #@! TO.N,GND*
X54310000Y-44690000D03*
D19*
G04 #@! TO.P,J1,S1*
G04 #@! TO.N,Net-(J1-PadS1)*
X47760000Y-37400000D03*
X47760000Y-46380000D03*
X53710000Y-46020000D03*
X53710000Y-37760000D03*
G04 #@! TD*
G04 #@! TO.P,F1,2*
G04 #@! TO.N,VCC*
G04 #@! TA.AperFunction,SMDPad,CuDef*
G36*
G01*
X64312500Y-31125000D02*
X64312500Y-32375000D01*
G75*
G02*
X64062500Y-32625000I-250000J0D01*
G01*
X63312500Y-32625000D01*
G75*
G02*
X63062500Y-32375000I0J250000D01*
G01*
X63062500Y-31125000D01*
G75*
G02*
X63312500Y-30875000I250000J0D01*
G01*
X64062500Y-30875000D01*
G75*
G02*
X64312500Y-31125000I0J-250000D01*
G01*
G37*
G04 #@! TD.AperFunction*
G04 #@! TO.P,F1,1*
G04 #@! TO.N,+5V*
G04 #@! TA.AperFunction,SMDPad,CuDef*
G36*
G01*
X67112500Y-31125000D02*
X67112500Y-32375000D01*
G75*
G02*
X66862500Y-32625000I-250000J0D01*
G01*
X66112500Y-32625000D01*
G75*
G02*
X65862500Y-32375000I0J250000D01*
G01*
X65862500Y-31125000D01*
G75*
G02*
X66112500Y-30875000I250000J0D01*
G01*
X66862500Y-30875000D01*
G75*
G02*
X67112500Y-31125000I0J-250000D01*
G01*
G37*
G04 #@! TD.AperFunction*
G04 #@! TD*
G04 #@! TO.P,C7,2*
G04 #@! TO.N,GND*
G04 #@! TA.AperFunction,SMDPad,CuDef*
G36*
G01*
X122836250Y-51292500D02*
X122836250Y-50342500D01*
G75*
G02*
X123086250Y-50092500I250000J0D01*
G01*
X123586250Y-50092500D01*
G75*
G02*
X123836250Y-50342500I0J-250000D01*
G01*
X123836250Y-51292500D01*
G75*
G02*
X123586250Y-51542500I-250000J0D01*
G01*
X123086250Y-51542500D01*
G75*
G02*
X122836250Y-51292500I0J250000D01*
G01*
G37*
G04 #@! TD.AperFunction*
G04 #@! TO.P,C7,1*
G04 #@! TO.N,Net-(C7-Pad1)*
G04 #@! TA.AperFunction,SMDPad,CuDef*
G36*
G01*
X120936250Y-51292500D02*
X120936250Y-50342500D01*
G75*
G02*
X121186250Y-50092500I250000J0D01*
G01*
X121686250Y-50092500D01*
G75*
G02*
X121936250Y-50342500I0J-250000D01*
G01*
X121936250Y-51292500D01*
G75*
G02*
X121686250Y-51542500I-250000J0D01*
G01*
X121186250Y-51542500D01*
G75*
G02*
X120936250Y-51292500I0J250000D01*
G01*
G37*
G04 #@! TD.AperFunction*
G04 #@! TD*
G04 #@! TO.P,C6,2*
G04 #@! TO.N,GND*
G04 #@! TA.AperFunction,SMDPad,CuDef*
G36*
G01*
X131592500Y-45761250D02*
X130642500Y-45761250D01*
G75*
G02*
X130392500Y-45511250I0J250000D01*
G01*
X130392500Y-45011250D01*
G75*
G02*
X130642500Y-44761250I250000J0D01*
G01*
X131592500Y-44761250D01*
G75*
G02*
X131842500Y-45011250I0J-250000D01*
G01*
X131842500Y-45511250D01*
G75*
G02*
X131592500Y-45761250I-250000J0D01*
G01*
G37*
G04 #@! TD.AperFunction*
G04 #@! TO.P,C6,1*
G04 #@! TO.N,+5V*
G04 #@! TA.AperFunction,SMDPad,CuDef*
G36*
G01*
X131592500Y-47661250D02*
X130642500Y-47661250D01*
G75*
G02*
X130392500Y-47411250I0J250000D01*
G01*
X130392500Y-46911250D01*
G75*
G02*
X130642500Y-46661250I250000J0D01*
G01*
X131592500Y-46661250D01*
G75*
G02*
X131842500Y-46911250I0J-250000D01*
G01*
X131842500Y-47411250D01*
G75*
G02*
X131592500Y-47661250I-250000J0D01*
G01*
G37*
G04 #@! TD.AperFunction*
G04 #@! TD*
G04 #@! TO.P,C5,2*
G04 #@! TO.N,GND*
G04 #@! TA.AperFunction,SMDPad,CuDef*
G36*
G01*
X130642500Y-38567500D02*
X131592500Y-38567500D01*
G75*
G02*
X131842500Y-38817500I0J-250000D01*
G01*
X131842500Y-39317500D01*
G75*
G02*
X131592500Y-39567500I-250000J0D01*
G01*
X130642500Y-39567500D01*
G75*
G02*
X130392500Y-39317500I0J250000D01*
G01*
X130392500Y-38817500D01*
G75*
G02*
X130642500Y-38567500I250000J0D01*
G01*
G37*
G04 #@! TD.AperFunction*
G04 #@! TO.P,C5,1*
G04 #@! TO.N,+5V*
G04 #@! TA.AperFunction,SMDPad,CuDef*
G36*
G01*
X130642500Y-36667500D02*
X131592500Y-36667500D01*
G75*
G02*
X131842500Y-36917500I0J-250000D01*
G01*
X131842500Y-37417500D01*
G75*
G02*
X131592500Y-37667500I-250000J0D01*
G01*
X130642500Y-37667500D01*
G75*
G02*
X130392500Y-37417500I0J250000D01*
G01*
X130392500Y-36917500D01*
G75*
G02*
X130642500Y-36667500I250000J0D01*
G01*
G37*
G04 #@! TD.AperFunction*
G04 #@! TD*
G04 #@! TO.P,C4,2*
G04 #@! TO.N,GND*
G04 #@! TA.AperFunction,SMDPad,CuDef*
G36*
G01*
X111880000Y-46530000D02*
X111880000Y-45580000D01*
G75*
G02*
X112130000Y-45330000I250000J0D01*
G01*
X112630000Y-45330000D01*
G75*
G02*
X112880000Y-45580000I0J-250000D01*
G01*
X112880000Y-46530000D01*
G75*
G02*
X112630000Y-46780000I-250000J0D01*
G01*
X112130000Y-46780000D01*
G75*
G02*
X111880000Y-46530000I0J250000D01*
G01*
G37*
G04 #@! TD.AperFunction*
G04 #@! TO.P,C4,1*
G04 #@! TO.N,Net-(C4-Pad1)*
G04 #@! TA.AperFunction,SMDPad,CuDef*
G36*
G01*
X109980000Y-46530000D02*
X109980000Y-45580000D01*
G75*
G02*
X110230000Y-45330000I250000J0D01*
G01*
X110730000Y-45330000D01*
G75*
G02*
X110980000Y-45580000I0J-250000D01*
G01*
X110980000Y-46530000D01*
G75*
G02*
X110730000Y-46780000I-250000J0D01*
G01*
X110230000Y-46780000D01*
G75*
G02*
X109980000Y-46530000I0J250000D01*
G01*
G37*
G04 #@! TD.AperFunction*
G04 #@! TD*
G04 #@! TO.P,C3,2*
G04 #@! TO.N,GND*
G04 #@! TA.AperFunction,SMDPad,CuDef*
G36*
G01*
X110980000Y-38436250D02*
X110980000Y-39386250D01*
G75*
G02*
X110730000Y-39636250I-250000J0D01*
G01*
X110230000Y-39636250D01*
G75*
G02*
X109980000Y-39386250I0J250000D01*
G01*
X109980000Y-38436250D01*
G75*
G02*
X110230000Y-38186250I250000J0D01*
G01*
X110730000Y-38186250D01*
G75*
G02*
X110980000Y-38436250I0J-250000D01*
G01*
G37*
G04 #@! TD.AperFunction*
G04 #@! TO.P,C3,1*
G04 #@! TO.N,Net-(C3-Pad1)*
G04 #@! TA.AperFunction,SMDPad,CuDef*
G36*
G01*
X112880000Y-38436250D02*
X112880000Y-39386250D01*
G75*
G02*
X112630000Y-39636250I-250000J0D01*
G01*
X112130000Y-39636250D01*
G75*
G02*
X111880000Y-39386250I0J250000D01*
G01*
X111880000Y-38436250D01*
G75*
G02*
X112130000Y-38186250I250000J0D01*
G01*
X112630000Y-38186250D01*
G75*
G02*
X112880000Y-38436250I0J-250000D01*
G01*
G37*
G04 #@! TD.AperFunction*
G04 #@! TD*
G04 #@! TO.P,C2,2*
G04 #@! TO.N,GND*
G04 #@! TA.AperFunction,SMDPad,CuDef*
G36*
G01*
X113998750Y-49436000D02*
X113998750Y-50386000D01*
G75*
G02*
X113748750Y-50636000I-250000J0D01*
G01*
X113248750Y-50636000D01*
G75*
G02*
X112998750Y-50386000I0J250000D01*
G01*
X112998750Y-49436000D01*
G75*
G02*
X113248750Y-49186000I250000J0D01*
G01*
X113748750Y-49186000D01*
G75*
G02*
X113998750Y-49436000I0J-250000D01*
G01*
G37*
G04 #@! TD.AperFunction*
G04 #@! TO.P,C2,1*
G04 #@! TO.N,+5V*
G04 #@! TA.AperFunction,SMDPad,CuDef*
G36*
G01*
X115898750Y-49436000D02*
X115898750Y-50386000D01*
G75*
G02*
X115648750Y-50636000I-250000J0D01*
G01*
X115148750Y-50636000D01*
G75*
G02*
X114898750Y-50386000I0J250000D01*
G01*
X114898750Y-49436000D01*
G75*
G02*
X115148750Y-49186000I250000J0D01*
G01*
X115648750Y-49186000D01*
G75*
G02*
X115898750Y-49436000I0J-250000D01*
G01*
G37*
G04 #@! TD.AperFunction*
G04 #@! TD*
G04 #@! TO.P,C1,2*
G04 #@! TO.N,GND*
G04 #@! TA.AperFunction,SMDPad,CuDef*
G36*
G01*
X117811250Y-32880000D02*
X117811250Y-33830000D01*
G75*
G02*
X117561250Y-34080000I-250000J0D01*
G01*
X117061250Y-34080000D01*
G75*
G02*
X116811250Y-33830000I0J250000D01*
G01*
X116811250Y-32880000D01*
G75*
G02*
X117061250Y-32630000I250000J0D01*
G01*
X117561250Y-32630000D01*
G75*
G02*
X117811250Y-32880000I0J-250000D01*
G01*
G37*
G04 #@! TD.AperFunction*
G04 #@! TO.P,C1,1*
G04 #@! TO.N,+5V*
G04 #@! TA.AperFunction,SMDPad,CuDef*
G36*
G01*
X119711250Y-32880000D02*
X119711250Y-33830000D01*
G75*
G02*
X119461250Y-34080000I-250000J0D01*
G01*
X118961250Y-34080000D01*
G75*
G02*
X118711250Y-33830000I0J250000D01*
G01*
X118711250Y-32880000D01*
G75*
G02*
X118961250Y-32630000I250000J0D01*
G01*
X119461250Y-32630000D01*
G75*
G02*
X119711250Y-32880000I0J-250000D01*
G01*
G37*
G04 #@! TD.AperFunction*
G04 #@! TD*
D20*
G04 #@! TO.P,SW1,A*
G04 #@! TO.N,ENC1*
X85050000Y-39640000D03*
D21*
G04 #@! TO.P,SW1,C*
G04 #@! TO.N,GND*
X85050000Y-42140000D03*
G04 #@! TO.P,SW1,B*
G04 #@! TO.N,ENC0*
X85050000Y-44640000D03*
D22*
G04 #@! TO.P,SW1,MP*
G04 #@! TO.N,N/C*
X92550000Y-36540000D03*
X92550000Y-47740000D03*
D21*
G04 #@! TO.P,SW1,S2*
G04 #@! TO.N,COL4*
X99550000Y-39640000D03*
G04 #@! TO.P,SW1,S1*
G04 #@! TO.N,Net-(D5-Pad2)*
X99550000Y-44640000D03*
G04 #@! TD*
D23*
G04 #@! TO.N,COL4*
X134747000Y-45466000D03*
G04 #@! TO.N,COL3*
X135636000Y-44704000D03*
G04 #@! TO.N,COL2*
X136260696Y-43923130D03*
G04 #@! TO.N,COL1*
X136983964Y-43232561D03*
G04 #@! TO.N,COL0*
X137688838Y-42523226D03*
G04 #@! TO.N,ROW0*
X129667000Y-55372000D03*
X109347000Y-55372000D03*
G04 #@! TO.N,GND*
X70739000Y-39370000D03*
G04 #@! TO.N,+5V*
X120207548Y-53401452D03*
X125664452Y-53401452D03*
X132080000Y-35433000D03*
X132588000Y-45847000D03*
X119126000Y-31750000D03*
X116586000Y-51689000D03*
G04 #@! TO.N,VCC*
X56896000Y-40640000D03*
G04 #@! TO.N,Net-(J1-PadB5)*
X65185260Y-45974000D03*
G04 #@! TO.N,Net-(J1-PadA5)*
X57912000Y-39624000D03*
G04 #@! TO.N,Net-(R2-Pad1)*
X124048451Y-52674451D03*
G04 #@! TD*
D24*
G04 #@! TO.N,COL4*
X132167250Y-42886250D02*
X128086250Y-42886250D01*
X134747000Y-45466000D02*
X132167250Y-42886250D01*
G04 #@! TO.N,COL3*
X131748250Y-42086250D02*
X131367250Y-42086250D01*
X131367250Y-42086250D02*
X128086250Y-42086250D01*
X133018250Y-42086250D02*
X131367250Y-42086250D01*
X135636000Y-44704000D02*
X133018250Y-42086250D01*
G04 #@! TO.N,COL2*
X132091250Y-41286250D02*
X133234250Y-41286250D01*
X133234250Y-41286250D02*
X133465750Y-41286250D01*
X133623816Y-41286250D02*
X133234250Y-41286250D01*
X132091250Y-41286250D02*
X128086250Y-41286250D01*
X132353816Y-41286250D02*
X132091250Y-41286250D01*
X136260696Y-43923130D02*
X133623816Y-41286250D01*
G04 #@! TO.N,COL1*
X132967653Y-40486250D02*
X132741750Y-40486250D01*
X132741750Y-40486250D02*
X128086250Y-40486250D01*
X134237653Y-40486250D02*
X132741750Y-40486250D01*
X136983964Y-43232561D02*
X134237653Y-40486250D01*
G04 #@! TO.N,ENC1*
X88138000Y-33401000D02*
X112001000Y-33401000D01*
X112001000Y-33401000D02*
X116686250Y-38086250D01*
X85050000Y-36489000D02*
X88138000Y-33401000D01*
X85050000Y-39640000D02*
X85050000Y-36489000D01*
X85050000Y-39640000D02*
X85050000Y-38775000D01*
X85050000Y-39640000D02*
X85050000Y-39029000D01*
G04 #@! TO.N,COL0*
X128086250Y-39686250D02*
X128899852Y-39686250D01*
X128899852Y-39686250D02*
X129163251Y-39949649D01*
X129163251Y-39949649D02*
X135115261Y-39949649D01*
X135115261Y-39949649D02*
X137688838Y-42523226D01*
G04 #@! TO.N,ENC0*
X85050000Y-44640000D02*
X86377001Y-43312999D01*
X115872648Y-38886250D02*
X116686250Y-38886250D01*
X86377001Y-43312999D02*
X86377001Y-39524397D01*
X86377001Y-39524397D02*
X90688399Y-35212999D01*
X90688399Y-35212999D02*
X112199397Y-35212999D01*
X112199397Y-35212999D02*
X115872648Y-38886250D01*
G04 #@! TO.N,ROW0*
X134785001Y-46968039D02*
X131503212Y-43686250D01*
X131503212Y-43686250D02*
X128086250Y-43686250D01*
X134785001Y-75652999D02*
X134785001Y-55410001D01*
X134785001Y-55410001D02*
X134785001Y-46968039D01*
X129667000Y-55372000D02*
X134747000Y-55372000D01*
X134747000Y-55372000D02*
X134785001Y-55410001D01*
X133858000Y-76580000D02*
X134785001Y-75652999D01*
X105080000Y-55560000D02*
X109159000Y-55560000D01*
X109159000Y-55560000D02*
X109347000Y-55372000D01*
X120270000Y-80390000D02*
X124080000Y-76580000D01*
X124080000Y-76580000D02*
X133858000Y-76580000D01*
X114681000Y-80390000D02*
X120270000Y-80390000D01*
X77343000Y-81660000D02*
X113411000Y-81660000D01*
X113411000Y-81660000D02*
X114681000Y-80390000D01*
X58420000Y-77723000D02*
X73406000Y-77723000D01*
X73406000Y-77723000D02*
X77343000Y-81660000D01*
D25*
G04 #@! TO.N,GND*
X71499499Y-39717599D02*
X71928049Y-39289049D01*
X71928049Y-39289049D02*
X72836098Y-38381000D01*
X70739000Y-39370000D02*
X71847098Y-39370000D01*
X71847098Y-39370000D02*
X71928049Y-39289049D01*
X72350000Y-50800000D02*
X72350000Y-47625000D01*
X78990000Y-36880000D02*
X80491000Y-38381000D01*
X80491000Y-38381000D02*
X83659499Y-41549499D01*
X72350000Y-47625000D02*
X71499499Y-46774499D01*
X71499499Y-46774499D02*
X71499499Y-39717599D01*
X72836098Y-38381000D02*
X80491000Y-38381000D01*
X83659499Y-43530501D02*
X83659499Y-43781499D01*
X83659499Y-43781499D02*
X83659499Y-45307441D01*
X83659499Y-41549499D02*
X83659499Y-43781499D01*
X109489499Y-46695319D02*
X109489499Y-42433499D01*
X109489499Y-42433499D02*
X109489499Y-42283001D01*
X85050000Y-42140000D02*
X83659499Y-43530501D01*
X83659499Y-45307441D02*
X84382559Y-46030501D01*
X84382559Y-46030501D02*
X96101557Y-46030501D01*
X96101557Y-46030501D02*
X99698559Y-42433499D01*
X99698559Y-42433499D02*
X109489499Y-42433499D01*
X128086250Y-38886250D02*
X126733750Y-38886250D01*
X126733750Y-38886250D02*
X119958348Y-38886250D01*
X128180000Y-32561250D02*
X128180000Y-36264598D01*
X128180000Y-36264598D02*
X126733750Y-37710848D01*
X126733750Y-37710848D02*
X126733750Y-38886250D01*
X117311250Y-33355000D02*
X117311250Y-35311250D01*
X117311250Y-35311250D02*
X118386250Y-36386250D01*
X128086250Y-45286250D02*
X124758348Y-45286250D01*
X124758348Y-45286250D02*
X123186250Y-46858348D01*
X123186250Y-46858348D02*
X123186250Y-47786250D01*
X116686250Y-43686250D02*
X120014152Y-43686250D01*
X120014152Y-43686250D02*
X123186250Y-46858348D01*
X119958348Y-38886250D02*
X119958348Y-41342054D01*
X119958348Y-41342054D02*
X117614152Y-43686250D01*
X117614152Y-43686250D02*
X116686250Y-43686250D01*
X119958348Y-38886250D02*
X118386250Y-37314152D01*
X118386250Y-37314152D02*
X118386250Y-36386250D01*
X131117500Y-39067500D02*
X130936250Y-38886250D01*
X130936250Y-38886250D02*
X128086250Y-38886250D01*
X131117500Y-45261250D02*
X128111250Y-45261250D01*
X128111250Y-45261250D02*
X128086250Y-45286250D01*
X123336250Y-50817500D02*
X123186250Y-50667500D01*
X123186250Y-50667500D02*
X123186250Y-47786250D01*
X112380000Y-46055000D02*
X111264490Y-47170510D01*
X109489499Y-42283001D02*
X110480000Y-41292500D01*
X111264490Y-47170510D02*
X109964690Y-47170510D01*
X109964690Y-47170510D02*
X109489499Y-46695319D01*
X110480000Y-38911250D02*
X110480000Y-41292500D01*
X113498750Y-49230000D02*
X113498750Y-45945848D01*
X113498750Y-45945848D02*
X115758348Y-43686250D01*
X115758348Y-43686250D02*
X116686250Y-43686250D01*
D24*
X111583750Y-42496250D02*
X112180000Y-43092500D01*
X110480000Y-41392500D02*
X111583750Y-42496250D01*
X111583750Y-42496250D02*
X111583750Y-42493750D01*
X111583750Y-42493750D02*
X111510000Y-42420000D01*
X110480000Y-41292500D02*
X110480000Y-41392500D01*
X112180000Y-43092500D02*
X112180000Y-43492500D01*
G04 #@! TO.N,Net-(D1-Pad2)*
X60075972Y-60626865D02*
X60075972Y-72767028D01*
X60075972Y-72767028D02*
X58420000Y-74423000D01*
G04 #@! TO.N,Net-(D2-Pad2)*
X78665972Y-64576865D02*
X78665972Y-77037028D01*
X78665972Y-77037028D02*
X77343000Y-78360000D01*
G04 #@! TO.N,Net-(D3-Pad2)*
X111327266Y-63531057D02*
X111327266Y-66527332D01*
X111327266Y-66527332D02*
X114681000Y-69881066D01*
X114681000Y-69881066D02*
X114681000Y-77090000D01*
G04 #@! TO.N,Net-(D4-Pad2)*
X129914766Y-59577307D02*
X132160170Y-61822711D01*
X132160170Y-61822711D02*
X132160170Y-71582170D01*
X132160170Y-71582170D02*
X133858000Y-73280000D01*
G04 #@! TO.N,Net-(D5-Pad2)*
X99550000Y-44640000D02*
X99550000Y-46730000D01*
X99550000Y-46730000D02*
X105080000Y-52260000D01*
G04 #@! TO.N,+5V*
X121586250Y-49126482D02*
X120207548Y-50505184D01*
X120207548Y-50505184D02*
X120207548Y-53401452D01*
X121586250Y-47786250D02*
X121586250Y-49126482D01*
X125586250Y-47786250D02*
X125586250Y-53323250D01*
X125586250Y-53323250D02*
X125664452Y-53401452D01*
X119211250Y-33355000D02*
X119211250Y-31835250D01*
X119211250Y-31835250D02*
X119126000Y-31750000D01*
X131117500Y-37167500D02*
X131117500Y-36395500D01*
X131117500Y-36395500D02*
X132080000Y-35433000D01*
X131117500Y-47161250D02*
X131273750Y-47161250D01*
X131273750Y-47161250D02*
X132588000Y-45847000D01*
X115443000Y-52998250D02*
X115242500Y-53198750D01*
X115443000Y-51181000D02*
X115443000Y-49274250D01*
X115443000Y-49274250D02*
X115398750Y-49230000D01*
X66487500Y-31750000D02*
X119126000Y-31750000D01*
X115398750Y-49230000D02*
X115398750Y-44960148D01*
X115398750Y-44960148D02*
X115872648Y-44486250D01*
X115872648Y-44486250D02*
X116686250Y-44486250D01*
X119211250Y-33355000D02*
X119211250Y-36361250D01*
X119211250Y-36361250D02*
X119186250Y-36386250D01*
X131117500Y-37167500D02*
X129005000Y-37167500D01*
X129005000Y-37167500D02*
X128086250Y-38086250D01*
X131117500Y-47161250D02*
X129161250Y-47161250D01*
X129161250Y-47161250D02*
X128086250Y-46086250D01*
X116586000Y-51689000D02*
X115443000Y-51689000D01*
X115443000Y-51689000D02*
X115443000Y-52998250D01*
X115443000Y-51181000D02*
X115443000Y-51689000D01*
G04 #@! TO.N,Net-(C3-Pad1)*
X112180000Y-41292500D02*
X112180000Y-39111250D01*
X112180000Y-39111250D02*
X112380000Y-38911250D01*
X112180000Y-41292500D02*
X112973750Y-42086250D01*
X112973750Y-42086250D02*
X116686250Y-42086250D01*
G04 #@! TO.N,Net-(C4-Pad1)*
X110480000Y-46055000D02*
X110480000Y-43492500D01*
X110480000Y-43492500D02*
X110480000Y-44446500D01*
X114674852Y-42886250D02*
X116686250Y-42886250D01*
X110480000Y-44446500D02*
X110553001Y-44519501D01*
X110553001Y-44519501D02*
X113041601Y-44519501D01*
X113041601Y-44519501D02*
X114674852Y-42886250D01*
G04 #@! TO.N,Net-(C7-Pad1)*
X121436250Y-50817500D02*
X122386250Y-49867500D01*
X122386250Y-49867500D02*
X122386250Y-47786250D01*
G04 #@! TO.N,VCC*
X56896000Y-40640000D02*
X56896000Y-38541500D01*
X56896000Y-38541500D02*
X63687500Y-31750000D01*
G04 #@! TO.N,Net-(J1-PadB5)*
X70525000Y-50800000D02*
X70011260Y-50800000D01*
X70011260Y-50800000D02*
X65185260Y-45974000D01*
G04 #@! TO.N,Net-(J1-PadA5)*
X70525000Y-47625000D02*
X70525000Y-46652732D01*
X70525000Y-46652732D02*
X63496268Y-39624000D01*
X63496268Y-39624000D02*
X57912000Y-39624000D01*
G04 #@! TO.N,D-*
X54310000Y-41490000D02*
X61578750Y-41490000D01*
X61578750Y-41490000D02*
X61793750Y-41275000D01*
G04 #@! TO.N,Net-(R1-Pad1)*
X64458260Y-47789510D02*
X73005751Y-56337001D01*
X73005751Y-56337001D02*
X119357767Y-56337001D01*
X119357767Y-56337001D02*
X124786250Y-50908518D01*
X124786250Y-50908518D02*
X124786250Y-47786250D01*
X63618750Y-41275000D02*
X64458260Y-42114510D01*
X64458260Y-42114510D02*
X64458260Y-47789510D01*
G04 #@! TO.N,D+*
X61793750Y-43656250D02*
X60575499Y-42437999D01*
X60575499Y-42437999D02*
X54457999Y-42437999D01*
X54457999Y-42437999D02*
X54310000Y-42290000D01*
G04 #@! TO.N,Net-(R2-Pad1)*
X72666010Y-56791010D02*
X119931892Y-56791010D01*
X119931892Y-56791010D02*
X124048451Y-52674451D01*
X63618750Y-47743750D02*
X72666010Y-56791010D01*
X63618750Y-43656250D02*
X63618750Y-47743750D01*
G04 #@! TO.N,Net-(R3-Pad2)*
X72790000Y-40580000D02*
X86435760Y-54225760D01*
X86435760Y-54225760D02*
X116040490Y-54225760D01*
X116040490Y-54225760D02*
X117067500Y-53198750D01*
X117067500Y-53198750D02*
X117763251Y-52502999D01*
X117763251Y-52502999D02*
X117763251Y-45549649D01*
X117763251Y-45549649D02*
X117499852Y-45286250D01*
X117499852Y-45286250D02*
X116686250Y-45286250D01*
G04 #@! TO.N,Net-(R4-Pad2)*
X126386250Y-36386250D02*
X126386250Y-32592500D01*
X126386250Y-32592500D02*
X126355000Y-32561250D01*
G04 #@! TD*
G04 #@! TO.N,GND*
X138829663Y-29118601D02*
X139079439Y-29194013D01*
X139309809Y-29316503D01*
X139511996Y-29481403D01*
X139678308Y-29682441D01*
X139802402Y-29911947D01*
X139879554Y-30161188D01*
X139909995Y-30450817D01*
X139906289Y-53086903D01*
X135547001Y-53092669D01*
X135547001Y-47005462D01*
X135550687Y-46968039D01*
X135546448Y-46925000D01*
X135535975Y-46818661D01*
X135492403Y-46675024D01*
X135445536Y-46587342D01*
X135421646Y-46542646D01*
X135374937Y-46485732D01*
X135326423Y-46426617D01*
X135297347Y-46402755D01*
X135261559Y-46366967D01*
X135406774Y-46269937D01*
X135550937Y-46125774D01*
X135664205Y-45956256D01*
X135742226Y-45767898D01*
X135748388Y-45736922D01*
X135937898Y-45699226D01*
X136126256Y-45621205D01*
X136295774Y-45507937D01*
X136439937Y-45363774D01*
X136553205Y-45194256D01*
X136631226Y-45005898D01*
X136656365Y-44879514D01*
X136750952Y-44840335D01*
X136920470Y-44727067D01*
X137064633Y-44582904D01*
X137177901Y-44413386D01*
X137251988Y-44234525D01*
X137285862Y-44227787D01*
X137474220Y-44149766D01*
X137643738Y-44036498D01*
X137787901Y-43892335D01*
X137901169Y-43722817D01*
X137979190Y-43534459D01*
X137982029Y-43520184D01*
X137990736Y-43518452D01*
X138179094Y-43440431D01*
X138348612Y-43327163D01*
X138492775Y-43183000D01*
X138606043Y-43013482D01*
X138684064Y-42825124D01*
X138723838Y-42625165D01*
X138723838Y-42421287D01*
X138684064Y-42221328D01*
X138606043Y-42032970D01*
X138492775Y-41863452D01*
X138348612Y-41719289D01*
X138179094Y-41606021D01*
X137990736Y-41528000D01*
X137790777Y-41488226D01*
X137731469Y-41488226D01*
X135680545Y-39437303D01*
X135656683Y-39408227D01*
X135540653Y-39313004D01*
X135408276Y-39242247D01*
X135264639Y-39198675D01*
X135152687Y-39187649D01*
X135152684Y-39187649D01*
X135115261Y-39183963D01*
X135077838Y-39187649D01*
X129478881Y-39187649D01*
X129470628Y-39179396D01*
X129471250Y-39172000D01*
X129379167Y-39079917D01*
X129366787Y-39056756D01*
X129287435Y-38960065D01*
X129197491Y-38886250D01*
X129287435Y-38812435D01*
X129366787Y-38715744D01*
X129379167Y-38692583D01*
X129471250Y-38600500D01*
X129461704Y-38486913D01*
X129462062Y-38485732D01*
X129474322Y-38361250D01*
X129474322Y-37929500D01*
X129919371Y-37929500D01*
X130014538Y-38045462D01*
X130021094Y-38050842D01*
X129941315Y-38116315D01*
X129861963Y-38213006D01*
X129802998Y-38323320D01*
X129766688Y-38443018D01*
X129754428Y-38567500D01*
X129757500Y-38781750D01*
X129916250Y-38940500D01*
X130990500Y-38940500D01*
X130990500Y-38920500D01*
X131244500Y-38920500D01*
X131244500Y-38940500D01*
X132318750Y-38940500D01*
X132477500Y-38781750D01*
X132480572Y-38567500D01*
X132468312Y-38443018D01*
X132432002Y-38323320D01*
X132373037Y-38213006D01*
X132293685Y-38116315D01*
X132213906Y-38050842D01*
X132220462Y-38045462D01*
X132330905Y-37910886D01*
X132412972Y-37757350D01*
X132463508Y-37590754D01*
X132480572Y-37417500D01*
X132480572Y-36917500D01*
X132463508Y-36744246D01*
X132412972Y-36577650D01*
X132337792Y-36436999D01*
X132381898Y-36428226D01*
X132570256Y-36350205D01*
X132739774Y-36236937D01*
X132883937Y-36092774D01*
X132997205Y-35923256D01*
X133075226Y-35734898D01*
X133115000Y-35534939D01*
X133115000Y-35331061D01*
X133075226Y-35131102D01*
X132997205Y-34942744D01*
X132883937Y-34773226D01*
X132739774Y-34629063D01*
X132570256Y-34515795D01*
X132381898Y-34437774D01*
X132181939Y-34398000D01*
X131978061Y-34398000D01*
X131778102Y-34437774D01*
X131589744Y-34515795D01*
X131420226Y-34629063D01*
X131276063Y-34773226D01*
X131162795Y-34942744D01*
X131084774Y-35131102D01*
X131045000Y-35331061D01*
X131045000Y-35390370D01*
X130605149Y-35830221D01*
X130576079Y-35854078D01*
X130552222Y-35883148D01*
X130552221Y-35883149D01*
X130480855Y-35970108D01*
X130434373Y-36057070D01*
X130302650Y-36097028D01*
X130149114Y-36179095D01*
X130014538Y-36289538D01*
X129919371Y-36405500D01*
X129042423Y-36405500D01*
X129005000Y-36401814D01*
X128967577Y-36405500D01*
X128967574Y-36405500D01*
X128855622Y-36416526D01*
X128711985Y-36460098D01*
X128657913Y-36489000D01*
X128579607Y-36530855D01*
X128537219Y-36565643D01*
X128463578Y-36626078D01*
X128439716Y-36655154D01*
X127921692Y-37173178D01*
X127336250Y-37173178D01*
X127295288Y-37177212D01*
X127299322Y-37136250D01*
X127299322Y-35636250D01*
X127287062Y-35511768D01*
X127250752Y-35392070D01*
X127191787Y-35281756D01*
X127148250Y-35228706D01*
X127148250Y-33718992D01*
X127192137Y-33682974D01*
X127216315Y-33712435D01*
X127313006Y-33791787D01*
X127423320Y-33850752D01*
X127543018Y-33887062D01*
X127667500Y-33899322D01*
X127894250Y-33896250D01*
X128053000Y-33737500D01*
X128053000Y-32688250D01*
X128307000Y-32688250D01*
X128307000Y-33737500D01*
X128465750Y-33896250D01*
X128692500Y-33899322D01*
X128816982Y-33887062D01*
X128936680Y-33850752D01*
X129046994Y-33791787D01*
X129143685Y-33712435D01*
X129223037Y-33615744D01*
X129282002Y-33505430D01*
X129318312Y-33385732D01*
X129330572Y-33261250D01*
X129327500Y-32847000D01*
X129168750Y-32688250D01*
X128307000Y-32688250D01*
X128053000Y-32688250D01*
X128033000Y-32688250D01*
X128033000Y-32434250D01*
X128053000Y-32434250D01*
X128053000Y-31385000D01*
X128307000Y-31385000D01*
X128307000Y-32434250D01*
X129168750Y-32434250D01*
X129327500Y-32275500D01*
X129330572Y-31861250D01*
X129318312Y-31736768D01*
X129282002Y-31617070D01*
X129223037Y-31506756D01*
X129143685Y-31410065D01*
X129046994Y-31330713D01*
X128936680Y-31271748D01*
X128816982Y-31235438D01*
X128692500Y-31223178D01*
X128465750Y-31226250D01*
X128307000Y-31385000D01*
X128053000Y-31385000D01*
X127894250Y-31226250D01*
X127667500Y-31223178D01*
X127543018Y-31235438D01*
X127423320Y-31271748D01*
X127313006Y-31330713D01*
X127216315Y-31410065D01*
X127192137Y-31439526D01*
X127110887Y-31372845D01*
X126957351Y-31290778D01*
X126790755Y-31240242D01*
X126617501Y-31223178D01*
X126092499Y-31223178D01*
X125919245Y-31240242D01*
X125752649Y-31290778D01*
X125599113Y-31372845D01*
X125464538Y-31483288D01*
X125354095Y-31617863D01*
X125272028Y-31771399D01*
X125221492Y-31937995D01*
X125204428Y-32111249D01*
X125204428Y-33011251D01*
X125221492Y-33184505D01*
X125272028Y-33351101D01*
X125354095Y-33504637D01*
X125464538Y-33639212D01*
X125599113Y-33749655D01*
X125624251Y-33763091D01*
X125624250Y-34998178D01*
X125311250Y-34998178D01*
X125186768Y-35010438D01*
X125186250Y-35010595D01*
X125185732Y-35010438D01*
X125061250Y-34998178D01*
X124511250Y-34998178D01*
X124386768Y-35010438D01*
X124386250Y-35010595D01*
X124385732Y-35010438D01*
X124261250Y-34998178D01*
X123711250Y-34998178D01*
X123586768Y-35010438D01*
X123586250Y-35010595D01*
X123585732Y-35010438D01*
X123461250Y-34998178D01*
X122911250Y-34998178D01*
X122786768Y-35010438D01*
X122786250Y-35010595D01*
X122785732Y-35010438D01*
X122661250Y-34998178D01*
X122111250Y-34998178D01*
X121986768Y-35010438D01*
X121986250Y-35010595D01*
X121985732Y-35010438D01*
X121861250Y-34998178D01*
X121311250Y-34998178D01*
X121186768Y-35010438D01*
X121186250Y-35010595D01*
X121185732Y-35010438D01*
X121061250Y-34998178D01*
X120511250Y-34998178D01*
X120386768Y-35010438D01*
X120386250Y-35010595D01*
X120385732Y-35010438D01*
X120261250Y-34998178D01*
X119973250Y-34998178D01*
X119973250Y-34553129D01*
X120089212Y-34457962D01*
X120199655Y-34323386D01*
X120281722Y-34169850D01*
X120332258Y-34003254D01*
X120349322Y-33830000D01*
X120349322Y-32880000D01*
X120332258Y-32706746D01*
X120281722Y-32540150D01*
X120199655Y-32386614D01*
X120089212Y-32252038D01*
X120051235Y-32220871D01*
X120121226Y-32051898D01*
X120161000Y-31851939D01*
X120161000Y-31648061D01*
X120121226Y-31448102D01*
X120043205Y-31259744D01*
X119929937Y-31090226D01*
X119785774Y-30946063D01*
X119777651Y-30940635D01*
X135947345Y-30940635D01*
X135947345Y-31319365D01*
X136021231Y-31690818D01*
X136166165Y-32040719D01*
X136376576Y-32355621D01*
X136644379Y-32623424D01*
X136959281Y-32833835D01*
X137309182Y-32978769D01*
X137680635Y-33052655D01*
X138059365Y-33052655D01*
X138430818Y-32978769D01*
X138780719Y-32833835D01*
X139095621Y-32623424D01*
X139363424Y-32355621D01*
X139573835Y-32040719D01*
X139718769Y-31690818D01*
X139792655Y-31319365D01*
X139792655Y-30940635D01*
X139718769Y-30569182D01*
X139573835Y-30219281D01*
X139363424Y-29904379D01*
X139095621Y-29636576D01*
X138780719Y-29426165D01*
X138430818Y-29281231D01*
X138059365Y-29207345D01*
X137680635Y-29207345D01*
X137309182Y-29281231D01*
X136959281Y-29426165D01*
X136644379Y-29636576D01*
X136376576Y-29904379D01*
X136166165Y-30219281D01*
X136021231Y-30569182D01*
X135947345Y-30940635D01*
X119777651Y-30940635D01*
X119616256Y-30832795D01*
X119427898Y-30754774D01*
X119227939Y-30715000D01*
X119024061Y-30715000D01*
X118824102Y-30754774D01*
X118635744Y-30832795D01*
X118466226Y-30946063D01*
X118424289Y-30988000D01*
X67737079Y-30988000D01*
X67733508Y-30951746D01*
X67682972Y-30785150D01*
X67600905Y-30631614D01*
X67490462Y-30497038D01*
X67355886Y-30386595D01*
X67202350Y-30304528D01*
X67035754Y-30253992D01*
X66862500Y-30236928D01*
X66112500Y-30236928D01*
X65939246Y-30253992D01*
X65772650Y-30304528D01*
X65619114Y-30386595D01*
X65484538Y-30497038D01*
X65374095Y-30631614D01*
X65292028Y-30785150D01*
X65241492Y-30951746D01*
X65224428Y-31125000D01*
X65224428Y-32375000D01*
X65241492Y-32548254D01*
X65292028Y-32714850D01*
X65374095Y-32868386D01*
X65484538Y-33002962D01*
X65619114Y-33113405D01*
X65772650Y-33195472D01*
X65939246Y-33246008D01*
X66112500Y-33263072D01*
X66862500Y-33263072D01*
X67035754Y-33246008D01*
X67202350Y-33195472D01*
X67355886Y-33113405D01*
X67490462Y-33002962D01*
X67600905Y-32868386D01*
X67682972Y-32714850D01*
X67733508Y-32548254D01*
X67737079Y-32512000D01*
X116184800Y-32512000D01*
X116173178Y-32630000D01*
X116176250Y-33069250D01*
X116335000Y-33228000D01*
X117184250Y-33228000D01*
X117184250Y-33208000D01*
X117438250Y-33208000D01*
X117438250Y-33228000D01*
X117458250Y-33228000D01*
X117458250Y-33482000D01*
X117438250Y-33482000D01*
X117438250Y-34556250D01*
X117597000Y-34715000D01*
X117811250Y-34718072D01*
X117935732Y-34705812D01*
X118055430Y-34669502D01*
X118165744Y-34610537D01*
X118262435Y-34531185D01*
X118327908Y-34451406D01*
X118333288Y-34457962D01*
X118449250Y-34553129D01*
X118449251Y-35198242D01*
X118380713Y-35281756D01*
X118321748Y-35392070D01*
X118285438Y-35511768D01*
X118273178Y-35636250D01*
X118273178Y-37136250D01*
X118285438Y-37260732D01*
X118321748Y-37380430D01*
X118380713Y-37490744D01*
X118460065Y-37587435D01*
X118556756Y-37666787D01*
X118579917Y-37679167D01*
X118672000Y-37771250D01*
X118785587Y-37761704D01*
X118786768Y-37762062D01*
X118911250Y-37774322D01*
X119461250Y-37774322D01*
X119585732Y-37762062D01*
X119586250Y-37761905D01*
X119586768Y-37762062D01*
X119711250Y-37774322D01*
X120261250Y-37774322D01*
X120385732Y-37762062D01*
X120386250Y-37761905D01*
X120386768Y-37762062D01*
X120511250Y-37774322D01*
X121061250Y-37774322D01*
X121185732Y-37762062D01*
X121186250Y-37761905D01*
X121186768Y-37762062D01*
X121311250Y-37774322D01*
X121861250Y-37774322D01*
X121985732Y-37762062D01*
X121986250Y-37761905D01*
X121986768Y-37762062D01*
X122111250Y-37774322D01*
X122661250Y-37774322D01*
X122785732Y-37762062D01*
X122786250Y-37761905D01*
X122786768Y-37762062D01*
X122911250Y-37774322D01*
X123461250Y-37774322D01*
X123585732Y-37762062D01*
X123586250Y-37761905D01*
X123586768Y-37762062D01*
X123711250Y-37774322D01*
X124261250Y-37774322D01*
X124385732Y-37762062D01*
X124386250Y-37761905D01*
X124386768Y-37762062D01*
X124511250Y-37774322D01*
X125061250Y-37774322D01*
X125185732Y-37762062D01*
X125186250Y-37761905D01*
X125186768Y-37762062D01*
X125311250Y-37774322D01*
X125861250Y-37774322D01*
X125985732Y-37762062D01*
X125986250Y-37761905D01*
X125986768Y-37762062D01*
X126111250Y-37774322D01*
X126661250Y-37774322D01*
X126702212Y-37770288D01*
X126698178Y-37811250D01*
X126698178Y-38361250D01*
X126710438Y-38485732D01*
X126710796Y-38486913D01*
X126701250Y-38600500D01*
X126793333Y-38692583D01*
X126805713Y-38715744D01*
X126885065Y-38812435D01*
X126975009Y-38886250D01*
X126885065Y-38960065D01*
X126805713Y-39056756D01*
X126793333Y-39079917D01*
X126701250Y-39172000D01*
X126710796Y-39285587D01*
X126710438Y-39286768D01*
X126698178Y-39411250D01*
X126698178Y-39961250D01*
X126710438Y-40085732D01*
X126710595Y-40086250D01*
X126710438Y-40086768D01*
X126698178Y-40211250D01*
X126698178Y-40761250D01*
X126710438Y-40885732D01*
X126710595Y-40886250D01*
X126710438Y-40886768D01*
X126698178Y-41011250D01*
X126698178Y-41561250D01*
X126710438Y-41685732D01*
X126710595Y-41686250D01*
X126710438Y-41686768D01*
X126698178Y-41811250D01*
X126698178Y-42361250D01*
X126710438Y-42485732D01*
X126710595Y-42486250D01*
X126710438Y-42486768D01*
X126698178Y-42611250D01*
X126698178Y-43161250D01*
X126710438Y-43285732D01*
X126710595Y-43286250D01*
X126710438Y-43286768D01*
X126698178Y-43411250D01*
X126698178Y-43961250D01*
X126710438Y-44085732D01*
X126710595Y-44086250D01*
X126710438Y-44086768D01*
X126698178Y-44211250D01*
X126698178Y-44761250D01*
X126710438Y-44885732D01*
X126710796Y-44886913D01*
X126701250Y-45000500D01*
X126793333Y-45092583D01*
X126805713Y-45115744D01*
X126885065Y-45212435D01*
X126975009Y-45286250D01*
X126885065Y-45360065D01*
X126805713Y-45456756D01*
X126793333Y-45479917D01*
X126701250Y-45572000D01*
X126710796Y-45685587D01*
X126710438Y-45686768D01*
X126698178Y-45811250D01*
X126698178Y-46361250D01*
X126702212Y-46402212D01*
X126661250Y-46398178D01*
X126111250Y-46398178D01*
X125986768Y-46410438D01*
X125986250Y-46410595D01*
X125985732Y-46410438D01*
X125861250Y-46398178D01*
X125311250Y-46398178D01*
X125186768Y-46410438D01*
X125186250Y-46410595D01*
X125185732Y-46410438D01*
X125061250Y-46398178D01*
X124511250Y-46398178D01*
X124386768Y-46410438D01*
X124386250Y-46410595D01*
X124385732Y-46410438D01*
X124261250Y-46398178D01*
X123711250Y-46398178D01*
X123586768Y-46410438D01*
X123585587Y-46410796D01*
X123472000Y-46401250D01*
X123379917Y-46493333D01*
X123356756Y-46505713D01*
X123260065Y-46585065D01*
X123186250Y-46675009D01*
X123112435Y-46585065D01*
X123015744Y-46505713D01*
X122992583Y-46493333D01*
X122900500Y-46401250D01*
X122786913Y-46410796D01*
X122785732Y-46410438D01*
X122661250Y-46398178D01*
X122111250Y-46398178D01*
X121986768Y-46410438D01*
X121986250Y-46410595D01*
X121985732Y-46410438D01*
X121861250Y-46398178D01*
X121311250Y-46398178D01*
X121186768Y-46410438D01*
X121186250Y-46410595D01*
X121185732Y-46410438D01*
X121061250Y-46398178D01*
X120511250Y-46398178D01*
X120386768Y-46410438D01*
X120386250Y-46410595D01*
X120385732Y-46410438D01*
X120261250Y-46398178D01*
X119711250Y-46398178D01*
X119586768Y-46410438D01*
X119586250Y-46410595D01*
X119585732Y-46410438D01*
X119461250Y-46398178D01*
X118911250Y-46398178D01*
X118786768Y-46410438D01*
X118786250Y-46410595D01*
X118785732Y-46410438D01*
X118661250Y-46398178D01*
X118525251Y-46398178D01*
X118525251Y-45587071D01*
X118528937Y-45549648D01*
X118524829Y-45507937D01*
X118514225Y-45400271D01*
X118470653Y-45256634D01*
X118399896Y-45124257D01*
X118304673Y-45008227D01*
X118275597Y-44984365D01*
X118072364Y-44781132D01*
X118074322Y-44761250D01*
X118074322Y-44211250D01*
X118062062Y-44086768D01*
X118061704Y-44085587D01*
X118071250Y-43972000D01*
X117979167Y-43879917D01*
X117966787Y-43856756D01*
X117887435Y-43760065D01*
X117797491Y-43686250D01*
X117887435Y-43612435D01*
X117966787Y-43515744D01*
X117979167Y-43492583D01*
X118071250Y-43400500D01*
X118061704Y-43286913D01*
X118062062Y-43285732D01*
X118074322Y-43161250D01*
X118074322Y-42611250D01*
X118062062Y-42486768D01*
X118061905Y-42486250D01*
X118062062Y-42485732D01*
X118074322Y-42361250D01*
X118074322Y-41811250D01*
X118062062Y-41686768D01*
X118061905Y-41686250D01*
X118062062Y-41685732D01*
X118074322Y-41561250D01*
X118074322Y-41011250D01*
X118062062Y-40886768D01*
X118061905Y-40886250D01*
X118062062Y-40885732D01*
X118074322Y-40761250D01*
X118074322Y-40211250D01*
X118062062Y-40086768D01*
X118061905Y-40086250D01*
X118062062Y-40085732D01*
X118074322Y-39961250D01*
X118074322Y-39411250D01*
X118062062Y-39286768D01*
X118061905Y-39286250D01*
X118062062Y-39285732D01*
X118074322Y-39161250D01*
X118074322Y-38611250D01*
X118062062Y-38486768D01*
X118061905Y-38486250D01*
X118062062Y-38485732D01*
X118074322Y-38361250D01*
X118074322Y-37811250D01*
X118070131Y-37768698D01*
X118100500Y-37771250D01*
X118259250Y-37612500D01*
X118259250Y-36513250D01*
X117635000Y-36513250D01*
X117476250Y-36672000D01*
X117473186Y-37133037D01*
X117477314Y-37177222D01*
X117436250Y-37173178D01*
X116850809Y-37173178D01*
X115317094Y-35639463D01*
X117473186Y-35639463D01*
X117476250Y-36100500D01*
X117635000Y-36259250D01*
X118259250Y-36259250D01*
X118259250Y-35160000D01*
X118100500Y-35001250D01*
X117983619Y-35011073D01*
X117864105Y-35047985D01*
X117754089Y-35107504D01*
X117657799Y-35187342D01*
X117578934Y-35284432D01*
X117520526Y-35395042D01*
X117484820Y-35514921D01*
X117473186Y-35639463D01*
X115317094Y-35639463D01*
X113757631Y-34080000D01*
X116173178Y-34080000D01*
X116185438Y-34204482D01*
X116221748Y-34324180D01*
X116280713Y-34434494D01*
X116360065Y-34531185D01*
X116456756Y-34610537D01*
X116567070Y-34669502D01*
X116686768Y-34705812D01*
X116811250Y-34718072D01*
X117025500Y-34715000D01*
X117184250Y-34556250D01*
X117184250Y-33482000D01*
X116335000Y-33482000D01*
X116176250Y-33640750D01*
X116173178Y-34080000D01*
X113757631Y-34080000D01*
X112566284Y-32888654D01*
X112542422Y-32859578D01*
X112426392Y-32764355D01*
X112294015Y-32693598D01*
X112150378Y-32650026D01*
X112038426Y-32639000D01*
X112038423Y-32639000D01*
X112001000Y-32635314D01*
X111963577Y-32639000D01*
X88175415Y-32639000D01*
X88137999Y-32635315D01*
X88100583Y-32639000D01*
X88100574Y-32639000D01*
X87988622Y-32650026D01*
X87844985Y-32693598D01*
X87712608Y-32764355D01*
X87596578Y-32859578D01*
X87572721Y-32888648D01*
X84537649Y-35923721D01*
X84508579Y-35947578D01*
X84484722Y-35976648D01*
X84484721Y-35976649D01*
X84413355Y-36063608D01*
X84342599Y-36195985D01*
X84299027Y-36339622D01*
X84284314Y-36489000D01*
X84288001Y-36526433D01*
X84288001Y-38001928D01*
X84050000Y-38001928D01*
X83925518Y-38014188D01*
X83805820Y-38050498D01*
X83695506Y-38109463D01*
X83598815Y-38188815D01*
X83519463Y-38285506D01*
X83460498Y-38395820D01*
X83424188Y-38515518D01*
X83411928Y-38640000D01*
X83411928Y-40640000D01*
X83424188Y-40764482D01*
X83460498Y-40884180D01*
X83519463Y-40994494D01*
X83598815Y-41091185D01*
X83695506Y-41170537D01*
X83799223Y-41225976D01*
X83650186Y-41279956D01*
X83509296Y-41569571D01*
X83427616Y-41881108D01*
X83408282Y-42202595D01*
X83452039Y-42521675D01*
X83557205Y-42826088D01*
X83650186Y-43000044D01*
X83914587Y-43095808D01*
X84870395Y-42140000D01*
X84856253Y-42125858D01*
X85035858Y-41946253D01*
X85050000Y-41960395D01*
X85064143Y-41946253D01*
X85243748Y-42125858D01*
X85229605Y-42140000D01*
X85243748Y-42154143D01*
X85064143Y-42333748D01*
X85050000Y-42319605D01*
X84094192Y-43275413D01*
X84104935Y-43305075D01*
X84007748Y-43370013D01*
X83780013Y-43597748D01*
X83601082Y-43865537D01*
X83477832Y-44163088D01*
X83415000Y-44478967D01*
X83415000Y-44801033D01*
X83477832Y-45116912D01*
X83601082Y-45414463D01*
X83780013Y-45682252D01*
X84007748Y-45909987D01*
X84275537Y-46088918D01*
X84573088Y-46212168D01*
X84888967Y-46275000D01*
X85211033Y-46275000D01*
X85526912Y-46212168D01*
X85824463Y-46088918D01*
X86092252Y-45909987D01*
X86319987Y-45682252D01*
X86498918Y-45414463D01*
X86622168Y-45116912D01*
X86685000Y-44801033D01*
X86685000Y-44478967D01*
X86622168Y-44163088D01*
X86617006Y-44150625D01*
X86889354Y-43878277D01*
X86918423Y-43854421D01*
X86958466Y-43805628D01*
X87013646Y-43738392D01*
X87075993Y-43621748D01*
X87084403Y-43606014D01*
X87127975Y-43462377D01*
X87139001Y-43350425D01*
X87139001Y-43350422D01*
X87142687Y-43312999D01*
X87139001Y-43275576D01*
X87139001Y-39840027D01*
X87500061Y-39478967D01*
X97915000Y-39478967D01*
X97915000Y-39801033D01*
X97977832Y-40116912D01*
X98101082Y-40414463D01*
X98280013Y-40682252D01*
X98507748Y-40909987D01*
X98775537Y-41088918D01*
X99073088Y-41212168D01*
X99388967Y-41275000D01*
X99711033Y-41275000D01*
X100026912Y-41212168D01*
X100324463Y-41088918D01*
X100592252Y-40909987D01*
X100819987Y-40682252D01*
X100879957Y-40592500D01*
X109241928Y-40592500D01*
X109245000Y-41006750D01*
X109403750Y-41165500D01*
X110353000Y-41165500D01*
X110353000Y-40116250D01*
X110351125Y-40114375D01*
X110353000Y-40112500D01*
X110353000Y-39038250D01*
X109503750Y-39038250D01*
X109345000Y-39197000D01*
X109341928Y-39636250D01*
X109354188Y-39760732D01*
X109390498Y-39880430D01*
X109449463Y-39990744D01*
X109514992Y-40070592D01*
X109428815Y-40141315D01*
X109349463Y-40238006D01*
X109290498Y-40348320D01*
X109254188Y-40468018D01*
X109241928Y-40592500D01*
X100879957Y-40592500D01*
X100998918Y-40414463D01*
X101122168Y-40116912D01*
X101185000Y-39801033D01*
X101185000Y-39478967D01*
X101122168Y-39163088D01*
X100998918Y-38865537D01*
X100819987Y-38597748D01*
X100592252Y-38370013D01*
X100324463Y-38191082D01*
X100312798Y-38186250D01*
X109341928Y-38186250D01*
X109345000Y-38625500D01*
X109503750Y-38784250D01*
X110353000Y-38784250D01*
X110353000Y-37710000D01*
X110194250Y-37551250D01*
X109980000Y-37548178D01*
X109855518Y-37560438D01*
X109735820Y-37596748D01*
X109625506Y-37655713D01*
X109528815Y-37735065D01*
X109449463Y-37831756D01*
X109390498Y-37942070D01*
X109354188Y-38061768D01*
X109341928Y-38186250D01*
X100312798Y-38186250D01*
X100026912Y-38067832D01*
X99711033Y-38005000D01*
X99388967Y-38005000D01*
X99073088Y-38067832D01*
X98775537Y-38191082D01*
X98507748Y-38370013D01*
X98280013Y-38597748D01*
X98101082Y-38865537D01*
X97977832Y-39163088D01*
X97915000Y-39478967D01*
X87500061Y-39478967D01*
X90311928Y-36667100D01*
X90311928Y-37540000D01*
X90324188Y-37664482D01*
X90360498Y-37784180D01*
X90419463Y-37894494D01*
X90498815Y-37991185D01*
X90595506Y-38070537D01*
X90705820Y-38129502D01*
X90825518Y-38165812D01*
X90950000Y-38178072D01*
X94150000Y-38178072D01*
X94274482Y-38165812D01*
X94394180Y-38129502D01*
X94504494Y-38070537D01*
X94601185Y-37991185D01*
X94680537Y-37894494D01*
X94739502Y-37784180D01*
X94775812Y-37664482D01*
X94788072Y-37540000D01*
X94788072Y-35974999D01*
X111883767Y-35974999D01*
X115300136Y-39391369D01*
X115298178Y-39411250D01*
X115298178Y-39961250D01*
X115310438Y-40085732D01*
X115310595Y-40086250D01*
X115310438Y-40086768D01*
X115298178Y-40211250D01*
X115298178Y-40761250D01*
X115310438Y-40885732D01*
X115310595Y-40886250D01*
X115310438Y-40886768D01*
X115298178Y-41011250D01*
X115298178Y-41324250D01*
X113418072Y-41324250D01*
X113418072Y-40592500D01*
X113405812Y-40468018D01*
X113369502Y-40348320D01*
X113310537Y-40238006D01*
X113231185Y-40141315D01*
X113167135Y-40088751D01*
X113257962Y-40014212D01*
X113368405Y-39879636D01*
X113450472Y-39726100D01*
X113501008Y-39559504D01*
X113518072Y-39386250D01*
X113518072Y-38436250D01*
X113501008Y-38262996D01*
X113450472Y-38096400D01*
X113368405Y-37942864D01*
X113257962Y-37808288D01*
X113123386Y-37697845D01*
X112969850Y-37615778D01*
X112803254Y-37565242D01*
X112630000Y-37548178D01*
X112130000Y-37548178D01*
X111956746Y-37565242D01*
X111790150Y-37615778D01*
X111636614Y-37697845D01*
X111502038Y-37808288D01*
X111496658Y-37814844D01*
X111431185Y-37735065D01*
X111334494Y-37655713D01*
X111224180Y-37596748D01*
X111104482Y-37560438D01*
X110980000Y-37548178D01*
X110765750Y-37551250D01*
X110607000Y-37710000D01*
X110607000Y-38784250D01*
X110627000Y-38784250D01*
X110627000Y-39038250D01*
X110607000Y-39038250D01*
X110607000Y-40112500D01*
X110608875Y-40114375D01*
X110607000Y-40116250D01*
X110607000Y-41165500D01*
X110627000Y-41165500D01*
X110627000Y-41419500D01*
X110607000Y-41419500D01*
X110607000Y-41439500D01*
X110353000Y-41439500D01*
X110353000Y-41419500D01*
X109403750Y-41419500D01*
X109245000Y-41578250D01*
X109241928Y-41992500D01*
X109254188Y-42116982D01*
X109290498Y-42236680D01*
X109349463Y-42346994D01*
X109386809Y-42392500D01*
X109349463Y-42438006D01*
X109290498Y-42548320D01*
X109254188Y-42668018D01*
X109241928Y-42792500D01*
X109241928Y-44192500D01*
X109254188Y-44316982D01*
X109290498Y-44436680D01*
X109349463Y-44546994D01*
X109428815Y-44643685D01*
X109525506Y-44723037D01*
X109635820Y-44782002D01*
X109718000Y-44806931D01*
X109718000Y-44856871D01*
X109602038Y-44952038D01*
X109491595Y-45086614D01*
X109409528Y-45240150D01*
X109358992Y-45406746D01*
X109341928Y-45580000D01*
X109341928Y-46530000D01*
X109358992Y-46703254D01*
X109409528Y-46869850D01*
X109491595Y-47023386D01*
X109602038Y-47157962D01*
X109736614Y-47268405D01*
X109890150Y-47350472D01*
X110056746Y-47401008D01*
X110230000Y-47418072D01*
X110730000Y-47418072D01*
X110903254Y-47401008D01*
X111069850Y-47350472D01*
X111223386Y-47268405D01*
X111357962Y-47157962D01*
X111363342Y-47151406D01*
X111428815Y-47231185D01*
X111525506Y-47310537D01*
X111635820Y-47369502D01*
X111755518Y-47405812D01*
X111880000Y-47418072D01*
X112094250Y-47415000D01*
X112253000Y-47256250D01*
X112253000Y-46182000D01*
X112507000Y-46182000D01*
X112507000Y-47256250D01*
X112665750Y-47415000D01*
X112880000Y-47418072D01*
X113004482Y-47405812D01*
X113124180Y-47369502D01*
X113234494Y-47310537D01*
X113331185Y-47231185D01*
X113410537Y-47134494D01*
X113469502Y-47024180D01*
X113505812Y-46904482D01*
X113518072Y-46780000D01*
X113515000Y-46340750D01*
X113356250Y-46182000D01*
X112507000Y-46182000D01*
X112253000Y-46182000D01*
X112233000Y-46182000D01*
X112233000Y-45928000D01*
X112253000Y-45928000D01*
X112253000Y-45908000D01*
X112507000Y-45908000D01*
X112507000Y-45928000D01*
X113356250Y-45928000D01*
X113515000Y-45769250D01*
X113518072Y-45330000D01*
X113505812Y-45205518D01*
X113486083Y-45140479D01*
X113583023Y-45060923D01*
X113606885Y-45031847D01*
X114990482Y-43648250D01*
X115528706Y-43648250D01*
X115575009Y-43686250D01*
X115485065Y-43760065D01*
X115405713Y-43856756D01*
X115393333Y-43879917D01*
X115301250Y-43972000D01*
X115301872Y-43979396D01*
X114886399Y-44394869D01*
X114857329Y-44418726D01*
X114833472Y-44447796D01*
X114833471Y-44447797D01*
X114762105Y-44534756D01*
X114691349Y-44667133D01*
X114647777Y-44810770D01*
X114633064Y-44960148D01*
X114636751Y-44997581D01*
X114636750Y-48712871D01*
X114520788Y-48808038D01*
X114515408Y-48814594D01*
X114449935Y-48734815D01*
X114353244Y-48655463D01*
X114242930Y-48596498D01*
X114123232Y-48560188D01*
X113998750Y-48547928D01*
X113784500Y-48551000D01*
X113625750Y-48709750D01*
X113625750Y-49784000D01*
X113645750Y-49784000D01*
X113645750Y-50038000D01*
X113625750Y-50038000D01*
X113625750Y-51112250D01*
X113784500Y-51271000D01*
X113998750Y-51274072D01*
X114123232Y-51261812D01*
X114242930Y-51225502D01*
X114353244Y-51166537D01*
X114449935Y-51087185D01*
X114515408Y-51007406D01*
X114520788Y-51013962D01*
X114655364Y-51124405D01*
X114681000Y-51138108D01*
X114681000Y-51651574D01*
X114677314Y-51689000D01*
X114681000Y-51726426D01*
X114681000Y-51915886D01*
X114640149Y-51928278D01*
X114486613Y-52010345D01*
X114352038Y-52120788D01*
X114241595Y-52255363D01*
X114159528Y-52408899D01*
X114108992Y-52575495D01*
X114091928Y-52748749D01*
X114091928Y-53121049D01*
X106155508Y-53131547D01*
X106210537Y-53064494D01*
X106269502Y-52954180D01*
X106305812Y-52834482D01*
X106318072Y-52710000D01*
X106318072Y-51810000D01*
X106305812Y-51685518D01*
X106269502Y-51565820D01*
X106210537Y-51455506D01*
X106131185Y-51358815D01*
X106034494Y-51279463D01*
X105924180Y-51220498D01*
X105804482Y-51184188D01*
X105680000Y-51171928D01*
X105069559Y-51171928D01*
X104533631Y-50636000D01*
X112360678Y-50636000D01*
X112372938Y-50760482D01*
X112409248Y-50880180D01*
X112468213Y-50990494D01*
X112547565Y-51087185D01*
X112644256Y-51166537D01*
X112754570Y-51225502D01*
X112874268Y-51261812D01*
X112998750Y-51274072D01*
X113213000Y-51271000D01*
X113371750Y-51112250D01*
X113371750Y-50038000D01*
X112522500Y-50038000D01*
X112363750Y-50196750D01*
X112360678Y-50636000D01*
X104533631Y-50636000D01*
X103083631Y-49186000D01*
X112360678Y-49186000D01*
X112363750Y-49625250D01*
X112522500Y-49784000D01*
X113371750Y-49784000D01*
X113371750Y-48709750D01*
X113213000Y-48551000D01*
X112998750Y-48547928D01*
X112874268Y-48560188D01*
X112754570Y-48596498D01*
X112644256Y-48655463D01*
X112547565Y-48734815D01*
X112468213Y-48831506D01*
X112409248Y-48941820D01*
X112372938Y-49061518D01*
X112360678Y-49186000D01*
X103083631Y-49186000D01*
X100312000Y-46414370D01*
X100312000Y-46094080D01*
X100324463Y-46088918D01*
X100592252Y-45909987D01*
X100819987Y-45682252D01*
X100998918Y-45414463D01*
X101122168Y-45116912D01*
X101185000Y-44801033D01*
X101185000Y-44478967D01*
X101122168Y-44163088D01*
X100998918Y-43865537D01*
X100819987Y-43597748D01*
X100592252Y-43370013D01*
X100324463Y-43191082D01*
X100026912Y-43067832D01*
X99711033Y-43005000D01*
X99388967Y-43005000D01*
X99073088Y-43067832D01*
X98775537Y-43191082D01*
X98507748Y-43370013D01*
X98280013Y-43597748D01*
X98101082Y-43865537D01*
X97977832Y-44163088D01*
X97915000Y-44478967D01*
X97915000Y-44801033D01*
X97977832Y-45116912D01*
X98101082Y-45414463D01*
X98280013Y-45682252D01*
X98507748Y-45909987D01*
X98775537Y-46088918D01*
X98788001Y-46094081D01*
X98788001Y-46692567D01*
X98784314Y-46730000D01*
X98799027Y-46879378D01*
X98842599Y-47023015D01*
X98913355Y-47155392D01*
X98932296Y-47178471D01*
X99008579Y-47271422D01*
X99037649Y-47295279D01*
X103841928Y-52099559D01*
X103841928Y-52710000D01*
X103854188Y-52834482D01*
X103890498Y-52954180D01*
X103949463Y-53064494D01*
X104006824Y-53134389D01*
X86445250Y-53157619D01*
X80027631Y-46740000D01*
X90311928Y-46740000D01*
X90311928Y-48740000D01*
X90324188Y-48864482D01*
X90360498Y-48984180D01*
X90419463Y-49094494D01*
X90498815Y-49191185D01*
X90595506Y-49270537D01*
X90705820Y-49329502D01*
X90825518Y-49365812D01*
X90950000Y-49378072D01*
X94150000Y-49378072D01*
X94274482Y-49365812D01*
X94394180Y-49329502D01*
X94504494Y-49270537D01*
X94601185Y-49191185D01*
X94680537Y-49094494D01*
X94739502Y-48984180D01*
X94775812Y-48864482D01*
X94788072Y-48740000D01*
X94788072Y-46740000D01*
X94775812Y-46615518D01*
X94739502Y-46495820D01*
X94680537Y-46385506D01*
X94601185Y-46288815D01*
X94504494Y-46209463D01*
X94394180Y-46150498D01*
X94274482Y-46114188D01*
X94150000Y-46101928D01*
X90950000Y-46101928D01*
X90825518Y-46114188D01*
X90705820Y-46150498D01*
X90595506Y-46209463D01*
X90498815Y-46288815D01*
X90419463Y-46385506D01*
X90360498Y-46495820D01*
X90324188Y-46615518D01*
X90311928Y-46740000D01*
X80027631Y-46740000D01*
X74328072Y-41040442D01*
X74328072Y-40030000D01*
X77451928Y-40030000D01*
X77451928Y-41130000D01*
X77464188Y-41254482D01*
X77500498Y-41374180D01*
X77559463Y-41484494D01*
X77638815Y-41581185D01*
X77735506Y-41660537D01*
X77845820Y-41719502D01*
X77965518Y-41755812D01*
X78090000Y-41768072D01*
X79890000Y-41768072D01*
X80014482Y-41755812D01*
X80134180Y-41719502D01*
X80244494Y-41660537D01*
X80341185Y-41581185D01*
X80420537Y-41484494D01*
X80479502Y-41374180D01*
X80515812Y-41254482D01*
X80528072Y-41130000D01*
X80528072Y-40030000D01*
X80515812Y-39905518D01*
X80479502Y-39785820D01*
X80420537Y-39675506D01*
X80341185Y-39578815D01*
X80244494Y-39499463D01*
X80134180Y-39440498D01*
X80014482Y-39404188D01*
X79890000Y-39391928D01*
X78090000Y-39391928D01*
X77965518Y-39404188D01*
X77845820Y-39440498D01*
X77735506Y-39499463D01*
X77638815Y-39578815D01*
X77559463Y-39675506D01*
X77500498Y-39785820D01*
X77464188Y-39905518D01*
X77451928Y-40030000D01*
X74328072Y-40030000D01*
X74315812Y-39905518D01*
X74279502Y-39785820D01*
X74220537Y-39675506D01*
X74141185Y-39578815D01*
X74044494Y-39499463D01*
X73934180Y-39440498D01*
X73814482Y-39404188D01*
X73690000Y-39391928D01*
X71890000Y-39391928D01*
X71765518Y-39404188D01*
X71645820Y-39440498D01*
X71535506Y-39499463D01*
X71438815Y-39578815D01*
X71359463Y-39675506D01*
X71300498Y-39785820D01*
X71264188Y-39905518D01*
X71251928Y-40030000D01*
X71251928Y-41130000D01*
X71264188Y-41254482D01*
X71300498Y-41374180D01*
X71359463Y-41484494D01*
X71438815Y-41581185D01*
X71535506Y-41660537D01*
X71645820Y-41719502D01*
X71765518Y-41755812D01*
X71890000Y-41768072D01*
X72900442Y-41768072D01*
X84292835Y-53160466D01*
X70924529Y-53178149D01*
X65220260Y-47473880D01*
X65220260Y-47086630D01*
X69374428Y-51240798D01*
X69374428Y-51250001D01*
X69391492Y-51423255D01*
X69442028Y-51589851D01*
X69524095Y-51743387D01*
X69634538Y-51877962D01*
X69769113Y-51988405D01*
X69922649Y-52070472D01*
X70089245Y-52121008D01*
X70262499Y-52138072D01*
X70787501Y-52138072D01*
X70960755Y-52121008D01*
X71127351Y-52070472D01*
X71280887Y-51988405D01*
X71362137Y-51921724D01*
X71386315Y-51951185D01*
X71483006Y-52030537D01*
X71593320Y-52089502D01*
X71713018Y-52125812D01*
X71837500Y-52138072D01*
X72064250Y-52135000D01*
X72223000Y-51976250D01*
X72223000Y-50927000D01*
X72477000Y-50927000D01*
X72477000Y-51976250D01*
X72635750Y-52135000D01*
X72862500Y-52138072D01*
X72986982Y-52125812D01*
X73106680Y-52089502D01*
X73216994Y-52030537D01*
X73313685Y-51951185D01*
X73393037Y-51854494D01*
X73452002Y-51744180D01*
X73488312Y-51624482D01*
X73500572Y-51500000D01*
X73497500Y-51085750D01*
X73338750Y-50927000D01*
X72477000Y-50927000D01*
X72223000Y-50927000D01*
X72203000Y-50927000D01*
X72203000Y-50673000D01*
X72223000Y-50673000D01*
X72223000Y-49623750D01*
X72477000Y-49623750D01*
X72477000Y-50673000D01*
X73338750Y-50673000D01*
X73497500Y-50514250D01*
X73500572Y-50100000D01*
X73488312Y-49975518D01*
X73452002Y-49855820D01*
X73393037Y-49745506D01*
X73313685Y-49648815D01*
X73216994Y-49569463D01*
X73106680Y-49510498D01*
X72986982Y-49474188D01*
X72862500Y-49461928D01*
X72635750Y-49465000D01*
X72477000Y-49623750D01*
X72223000Y-49623750D01*
X72064250Y-49465000D01*
X71837500Y-49461928D01*
X71713018Y-49474188D01*
X71593320Y-49510498D01*
X71483006Y-49569463D01*
X71386315Y-49648815D01*
X71362137Y-49678276D01*
X71280887Y-49611595D01*
X71127351Y-49529528D01*
X70960755Y-49478992D01*
X70787501Y-49461928D01*
X70262499Y-49461928D01*
X70089245Y-49478992D01*
X69922649Y-49529528D01*
X69854725Y-49565835D01*
X66220260Y-45931370D01*
X66220260Y-45872061D01*
X66180486Y-45672102D01*
X66102465Y-45483744D01*
X65989197Y-45314226D01*
X65845034Y-45170063D01*
X65675516Y-45056795D01*
X65487158Y-44978774D01*
X65287199Y-44939000D01*
X65220260Y-44939000D01*
X65220260Y-42425622D01*
X69507429Y-46712792D01*
X69442028Y-46835149D01*
X69391492Y-47001745D01*
X69374428Y-47174999D01*
X69374428Y-48075001D01*
X69391492Y-48248255D01*
X69442028Y-48414851D01*
X69524095Y-48568387D01*
X69634538Y-48702962D01*
X69769113Y-48813405D01*
X69922649Y-48895472D01*
X70089245Y-48946008D01*
X70262499Y-48963072D01*
X70787501Y-48963072D01*
X70960755Y-48946008D01*
X71127351Y-48895472D01*
X71280887Y-48813405D01*
X71362137Y-48746724D01*
X71386315Y-48776185D01*
X71483006Y-48855537D01*
X71593320Y-48914502D01*
X71713018Y-48950812D01*
X71837500Y-48963072D01*
X72064250Y-48960000D01*
X72223000Y-48801250D01*
X72223000Y-47752000D01*
X72477000Y-47752000D01*
X72477000Y-48801250D01*
X72635750Y-48960000D01*
X72862500Y-48963072D01*
X72986982Y-48950812D01*
X73106680Y-48914502D01*
X73216994Y-48855537D01*
X73313685Y-48776185D01*
X73393037Y-48679494D01*
X73452002Y-48569180D01*
X73488312Y-48449482D01*
X73500572Y-48325000D01*
X73497500Y-47910750D01*
X73338750Y-47752000D01*
X72477000Y-47752000D01*
X72223000Y-47752000D01*
X72203000Y-47752000D01*
X72203000Y-47498000D01*
X72223000Y-47498000D01*
X72223000Y-46448750D01*
X72477000Y-46448750D01*
X72477000Y-47498000D01*
X73338750Y-47498000D01*
X73497500Y-47339250D01*
X73500572Y-46925000D01*
X73488312Y-46800518D01*
X73452002Y-46680820D01*
X73393037Y-46570506D01*
X73313685Y-46473815D01*
X73216994Y-46394463D01*
X73106680Y-46335498D01*
X72986982Y-46299188D01*
X72862500Y-46286928D01*
X72635750Y-46290000D01*
X72477000Y-46448750D01*
X72223000Y-46448750D01*
X72064250Y-46290000D01*
X71837500Y-46286928D01*
X71713018Y-46299188D01*
X71593320Y-46335498D01*
X71483006Y-46394463D01*
X71386315Y-46473815D01*
X71362137Y-46503276D01*
X71280887Y-46436595D01*
X71250853Y-46420541D01*
X71232402Y-46359717D01*
X71161645Y-46227340D01*
X71066422Y-46111310D01*
X71037352Y-46087453D01*
X64061552Y-39111654D01*
X64037690Y-39082578D01*
X63921660Y-38987355D01*
X63789283Y-38916598D01*
X63645646Y-38873026D01*
X63533694Y-38862000D01*
X63533691Y-38862000D01*
X63496268Y-38858314D01*
X63458845Y-38862000D01*
X58613711Y-38862000D01*
X58571774Y-38820063D01*
X58402256Y-38706795D01*
X58213898Y-38628774D01*
X58013939Y-38589000D01*
X57926130Y-38589000D01*
X60185130Y-36330000D01*
X71251928Y-36330000D01*
X71251928Y-37430000D01*
X71264188Y-37554482D01*
X71300498Y-37674180D01*
X71359463Y-37784494D01*
X71438815Y-37881185D01*
X71535506Y-37960537D01*
X71645820Y-38019502D01*
X71765518Y-38055812D01*
X71890000Y-38068072D01*
X73690000Y-38068072D01*
X73814482Y-38055812D01*
X73934180Y-38019502D01*
X74044494Y-37960537D01*
X74141185Y-37881185D01*
X74220537Y-37784494D01*
X74279502Y-37674180D01*
X74315812Y-37554482D01*
X74328072Y-37430000D01*
X77451928Y-37430000D01*
X77464188Y-37554482D01*
X77500498Y-37674180D01*
X77559463Y-37784494D01*
X77638815Y-37881185D01*
X77735506Y-37960537D01*
X77845820Y-38019502D01*
X77965518Y-38055812D01*
X78090000Y-38068072D01*
X78704250Y-38065000D01*
X78863000Y-37906250D01*
X78863000Y-37007000D01*
X79117000Y-37007000D01*
X79117000Y-37906250D01*
X79275750Y-38065000D01*
X79890000Y-38068072D01*
X80014482Y-38055812D01*
X80134180Y-38019502D01*
X80244494Y-37960537D01*
X80341185Y-37881185D01*
X80420537Y-37784494D01*
X80479502Y-37674180D01*
X80515812Y-37554482D01*
X80528072Y-37430000D01*
X80525000Y-37165750D01*
X80366250Y-37007000D01*
X79117000Y-37007000D01*
X78863000Y-37007000D01*
X77613750Y-37007000D01*
X77455000Y-37165750D01*
X77451928Y-37430000D01*
X74328072Y-37430000D01*
X74328072Y-36330000D01*
X77451928Y-36330000D01*
X77455000Y-36594250D01*
X77613750Y-36753000D01*
X78863000Y-36753000D01*
X78863000Y-35853750D01*
X79117000Y-35853750D01*
X79117000Y-36753000D01*
X80366250Y-36753000D01*
X80525000Y-36594250D01*
X80528072Y-36330000D01*
X80515812Y-36205518D01*
X80479502Y-36085820D01*
X80420537Y-35975506D01*
X80341185Y-35878815D01*
X80244494Y-35799463D01*
X80134180Y-35740498D01*
X80014482Y-35704188D01*
X79890000Y-35691928D01*
X79275750Y-35695000D01*
X79117000Y-35853750D01*
X78863000Y-35853750D01*
X78704250Y-35695000D01*
X78090000Y-35691928D01*
X77965518Y-35704188D01*
X77845820Y-35740498D01*
X77735506Y-35799463D01*
X77638815Y-35878815D01*
X77559463Y-35975506D01*
X77500498Y-36085820D01*
X77464188Y-36205518D01*
X77451928Y-36330000D01*
X74328072Y-36330000D01*
X74315812Y-36205518D01*
X74279502Y-36085820D01*
X74220537Y-35975506D01*
X74141185Y-35878815D01*
X74044494Y-35799463D01*
X73934180Y-35740498D01*
X73814482Y-35704188D01*
X73690000Y-35691928D01*
X71890000Y-35691928D01*
X71765518Y-35704188D01*
X71645820Y-35740498D01*
X71535506Y-35799463D01*
X71438815Y-35878815D01*
X71359463Y-35975506D01*
X71300498Y-36085820D01*
X71264188Y-36205518D01*
X71251928Y-36330000D01*
X60185130Y-36330000D01*
X63257478Y-33257653D01*
X63312500Y-33263072D01*
X64062500Y-33263072D01*
X64235754Y-33246008D01*
X64402350Y-33195472D01*
X64555886Y-33113405D01*
X64690462Y-33002962D01*
X64800905Y-32868386D01*
X64882972Y-32714850D01*
X64933508Y-32548254D01*
X64950572Y-32375000D01*
X64950572Y-31125000D01*
X64933508Y-30951746D01*
X64882972Y-30785150D01*
X64800905Y-30631614D01*
X64690462Y-30497038D01*
X64555886Y-30386595D01*
X64402350Y-30304528D01*
X64235754Y-30253992D01*
X64062500Y-30236928D01*
X63312500Y-30236928D01*
X63139246Y-30253992D01*
X62972650Y-30304528D01*
X62819114Y-30386595D01*
X62684538Y-30497038D01*
X62574095Y-30631614D01*
X62492028Y-30785150D01*
X62441492Y-30951746D01*
X62424428Y-31125000D01*
X62424428Y-31935441D01*
X56383649Y-37976221D01*
X56354579Y-38000078D01*
X56330722Y-38029148D01*
X56330721Y-38029149D01*
X56259355Y-38116108D01*
X56188599Y-38248485D01*
X56145027Y-38392122D01*
X56130314Y-38541500D01*
X56134001Y-38578933D01*
X56134000Y-39938289D01*
X56092063Y-39980226D01*
X55978795Y-40149744D01*
X55900774Y-40338102D01*
X55861000Y-40538061D01*
X55861000Y-40728000D01*
X55270000Y-40728000D01*
X55270000Y-40595448D01*
X55233108Y-40409978D01*
X55160741Y-40235269D01*
X55055681Y-40078036D01*
X54921964Y-39944319D01*
X54775697Y-39846586D01*
X54782931Y-39742536D01*
X54570000Y-39529605D01*
X54570000Y-39395448D01*
X54533108Y-39209978D01*
X54504108Y-39139965D01*
X54505269Y-39140741D01*
X54565149Y-39165544D01*
X54962536Y-39562931D01*
X55158270Y-39549323D01*
X55231581Y-39375008D01*
X55266979Y-39201942D01*
X55414731Y-39140741D01*
X55571964Y-39035681D01*
X55705681Y-38901964D01*
X55810741Y-38744731D01*
X55883108Y-38570022D01*
X55920000Y-38384552D01*
X55920000Y-38195448D01*
X55883108Y-38009978D01*
X55810741Y-37835269D01*
X55705681Y-37678036D01*
X55571964Y-37544319D01*
X55414731Y-37439259D01*
X55240022Y-37366892D01*
X55054552Y-37330000D01*
X54953733Y-37330000D01*
X54874734Y-37182203D01*
X54745396Y-37024604D01*
X54587797Y-36895266D01*
X54407993Y-36799159D01*
X54212895Y-36739976D01*
X54060838Y-36725000D01*
X53359162Y-36725000D01*
X53207105Y-36739976D01*
X53012007Y-36799159D01*
X52832203Y-36895266D01*
X52674604Y-37024604D01*
X52545266Y-37182203D01*
X52449159Y-37362007D01*
X52389976Y-37557105D01*
X52369993Y-37760000D01*
X52389976Y-37962895D01*
X52449159Y-38157993D01*
X52545266Y-38337797D01*
X52674604Y-38495396D01*
X52832203Y-38624734D01*
X53012007Y-38720841D01*
X53026564Y-38725257D01*
X52998036Y-38744319D01*
X52864319Y-38878036D01*
X52759259Y-39035269D01*
X52686892Y-39209978D01*
X52650000Y-39395448D01*
X52650000Y-39584552D01*
X52686892Y-39770022D01*
X52736589Y-39890000D01*
X52686892Y-40009978D01*
X52650000Y-40195448D01*
X52650000Y-40384552D01*
X52686892Y-40570022D01*
X52736589Y-40690000D01*
X52686892Y-40809978D01*
X52650000Y-40995448D01*
X52650000Y-41184552D01*
X52686892Y-41370022D01*
X52759259Y-41544731D01*
X52864319Y-41701964D01*
X52998036Y-41835681D01*
X53079330Y-41890000D01*
X52998036Y-41944319D01*
X52864319Y-42078036D01*
X52759259Y-42235269D01*
X52686892Y-42409978D01*
X52650000Y-42595448D01*
X52650000Y-42784552D01*
X52686892Y-42970022D01*
X52736589Y-43090000D01*
X52686892Y-43209978D01*
X52650000Y-43395448D01*
X52650000Y-43584552D01*
X52686892Y-43770022D01*
X52736589Y-43890000D01*
X52686892Y-44009978D01*
X52650000Y-44195448D01*
X52650000Y-44384552D01*
X52686892Y-44570022D01*
X52759259Y-44744731D01*
X52864319Y-44901964D01*
X52998036Y-45035681D01*
X53026564Y-45054743D01*
X53012007Y-45059159D01*
X52832203Y-45155266D01*
X52674604Y-45284604D01*
X52545266Y-45442203D01*
X52449159Y-45622007D01*
X52389976Y-45817105D01*
X52369993Y-46020000D01*
X52389976Y-46222895D01*
X52449159Y-46417993D01*
X52545266Y-46597797D01*
X52674604Y-46755396D01*
X52832203Y-46884734D01*
X53012007Y-46980841D01*
X53207105Y-47040024D01*
X53359162Y-47055000D01*
X54060838Y-47055000D01*
X54212895Y-47040024D01*
X54407993Y-46980841D01*
X54587797Y-46884734D01*
X54745396Y-46755396D01*
X54874734Y-46597797D01*
X54875521Y-46596325D01*
X54960000Y-46604645D01*
X55148192Y-46586110D01*
X55329153Y-46531216D01*
X55495928Y-46442073D01*
X55642107Y-46322107D01*
X55762073Y-46175928D01*
X55851216Y-46009154D01*
X55906110Y-45828193D01*
X55920000Y-45687162D01*
X55920000Y-45292839D01*
X55906110Y-45151808D01*
X55851216Y-44970846D01*
X55762073Y-44804072D01*
X55642107Y-44657893D01*
X55495928Y-44537927D01*
X55329154Y-44448784D01*
X55235662Y-44420423D01*
X55234608Y-44414972D01*
X55163187Y-44239874D01*
X55158270Y-44230677D01*
X54962536Y-44217069D01*
X54787234Y-44392371D01*
X54771808Y-44393890D01*
X54590847Y-44448784D01*
X54553223Y-44468894D01*
X54570000Y-44384552D01*
X54570000Y-44250395D01*
X54782931Y-44037464D01*
X54775697Y-43933414D01*
X54921964Y-43835681D01*
X55055681Y-43701964D01*
X55160741Y-43544731D01*
X55233108Y-43370022D01*
X55266927Y-43199999D01*
X60259869Y-43199999D01*
X60643178Y-43583308D01*
X60643178Y-44106251D01*
X60660242Y-44279505D01*
X60710778Y-44446101D01*
X60792845Y-44599637D01*
X60903288Y-44734212D01*
X61037863Y-44844655D01*
X61191399Y-44926722D01*
X61357995Y-44977258D01*
X61531249Y-44994322D01*
X62056251Y-44994322D01*
X62229505Y-44977258D01*
X62396101Y-44926722D01*
X62549637Y-44844655D01*
X62684212Y-44734212D01*
X62706250Y-44707359D01*
X62728288Y-44734212D01*
X62856750Y-44839638D01*
X62856751Y-47706317D01*
X62853064Y-47743750D01*
X62867777Y-47893128D01*
X62911349Y-48036765D01*
X62982105Y-48169142D01*
X63019660Y-48214902D01*
X63077329Y-48285172D01*
X63106399Y-48309029D01*
X67979414Y-53182044D01*
X45209988Y-53212163D01*
X45209985Y-46380000D01*
X46419993Y-46380000D01*
X46439976Y-46582895D01*
X46499159Y-46777993D01*
X46595266Y-46957797D01*
X46724604Y-47115396D01*
X46882203Y-47244734D01*
X47062007Y-47340841D01*
X47257105Y-47400024D01*
X47409162Y-47415000D01*
X48110838Y-47415000D01*
X48262895Y-47400024D01*
X48457993Y-47340841D01*
X48637797Y-47244734D01*
X48795396Y-47115396D01*
X48924734Y-46957797D01*
X49020841Y-46777993D01*
X49080024Y-46582895D01*
X49100007Y-46380000D01*
X49080024Y-46177105D01*
X49020841Y-45982007D01*
X48924734Y-45802203D01*
X48795396Y-45644604D01*
X48637797Y-45515266D01*
X48457993Y-45419159D01*
X48262895Y-45359976D01*
X48110838Y-45345000D01*
X47409162Y-45345000D01*
X47257105Y-45359976D01*
X47062007Y-45419159D01*
X46882203Y-45515266D01*
X46724604Y-45644604D01*
X46595266Y-45802203D01*
X46499159Y-45982007D01*
X46439976Y-46177105D01*
X46419993Y-46380000D01*
X45209985Y-46380000D01*
X45209980Y-37400000D01*
X46419993Y-37400000D01*
X46439976Y-37602895D01*
X46499159Y-37797993D01*
X46595266Y-37977797D01*
X46724604Y-38135396D01*
X46882203Y-38264734D01*
X47062007Y-38360841D01*
X47257105Y-38420024D01*
X47409162Y-38435000D01*
X48110838Y-38435000D01*
X48262895Y-38420024D01*
X48457993Y-38360841D01*
X48637797Y-38264734D01*
X48795396Y-38135396D01*
X48924734Y-37977797D01*
X49020841Y-37797993D01*
X49080024Y-37602895D01*
X49100007Y-37400000D01*
X49080024Y-37197105D01*
X49020841Y-37002007D01*
X48924734Y-36822203D01*
X48795396Y-36664604D01*
X48637797Y-36535266D01*
X48457993Y-36439159D01*
X48262895Y-36379976D01*
X48110838Y-36365000D01*
X47409162Y-36365000D01*
X47257105Y-36379976D01*
X47062007Y-36439159D01*
X46882203Y-36535266D01*
X46724604Y-36664604D01*
X46595266Y-36822203D01*
X46499159Y-37002007D01*
X46439976Y-37197105D01*
X46419993Y-37400000D01*
X45209980Y-37400000D01*
X45209976Y-30930823D01*
X45339254Y-30930823D01*
X45339254Y-31309177D01*
X45413067Y-31680261D01*
X45557857Y-32029815D01*
X45768059Y-32344404D01*
X46035596Y-32611941D01*
X46350185Y-32822143D01*
X46699739Y-32966933D01*
X47070823Y-33040746D01*
X47449177Y-33040746D01*
X47820261Y-32966933D01*
X48169815Y-32822143D01*
X48484404Y-32611941D01*
X48751941Y-32344404D01*
X48962143Y-32029815D01*
X49106933Y-31680261D01*
X49180746Y-31309177D01*
X49180746Y-30930823D01*
X49106933Y-30559739D01*
X48962143Y-30210185D01*
X48751941Y-29895596D01*
X48484404Y-29628059D01*
X48169815Y-29417857D01*
X47820261Y-29273067D01*
X47449177Y-29199254D01*
X47070823Y-29199254D01*
X46699739Y-29273067D01*
X46350185Y-29417857D01*
X46035596Y-29628059D01*
X45768059Y-29895596D01*
X45557857Y-30210185D01*
X45413067Y-30559739D01*
X45339254Y-30930823D01*
X45209976Y-30930823D01*
X45209975Y-30462289D01*
X45238601Y-30170336D01*
X45314011Y-29920563D01*
X45436503Y-29690191D01*
X45601404Y-29488003D01*
X45802436Y-29321696D01*
X46031951Y-29197597D01*
X46281187Y-29120446D01*
X46570857Y-29090001D01*
X138537712Y-29089975D01*
X138829663Y-29118601D01*
G04 #@! TA.AperFunction,Conductor*
D26*
G36*
X138829663Y-29118601D02*
G01*
X139079439Y-29194013D01*
X139309809Y-29316503D01*
X139511996Y-29481403D01*
X139678308Y-29682441D01*
X139802402Y-29911947D01*
X139879554Y-30161188D01*
X139909995Y-30450817D01*
X139906289Y-53086903D01*
X135547001Y-53092669D01*
X135547001Y-47005462D01*
X135550687Y-46968039D01*
X135546448Y-46925000D01*
X135535975Y-46818661D01*
X135492403Y-46675024D01*
X135445536Y-46587342D01*
X135421646Y-46542646D01*
X135374937Y-46485732D01*
X135326423Y-46426617D01*
X135297347Y-46402755D01*
X135261559Y-46366967D01*
X135406774Y-46269937D01*
X135550937Y-46125774D01*
X135664205Y-45956256D01*
X135742226Y-45767898D01*
X135748388Y-45736922D01*
X135937898Y-45699226D01*
X136126256Y-45621205D01*
X136295774Y-45507937D01*
X136439937Y-45363774D01*
X136553205Y-45194256D01*
X136631226Y-45005898D01*
X136656365Y-44879514D01*
X136750952Y-44840335D01*
X136920470Y-44727067D01*
X137064633Y-44582904D01*
X137177901Y-44413386D01*
X137251988Y-44234525D01*
X137285862Y-44227787D01*
X137474220Y-44149766D01*
X137643738Y-44036498D01*
X137787901Y-43892335D01*
X137901169Y-43722817D01*
X137979190Y-43534459D01*
X137982029Y-43520184D01*
X137990736Y-43518452D01*
X138179094Y-43440431D01*
X138348612Y-43327163D01*
X138492775Y-43183000D01*
X138606043Y-43013482D01*
X138684064Y-42825124D01*
X138723838Y-42625165D01*
X138723838Y-42421287D01*
X138684064Y-42221328D01*
X138606043Y-42032970D01*
X138492775Y-41863452D01*
X138348612Y-41719289D01*
X138179094Y-41606021D01*
X137990736Y-41528000D01*
X137790777Y-41488226D01*
X137731469Y-41488226D01*
X135680545Y-39437303D01*
X135656683Y-39408227D01*
X135540653Y-39313004D01*
X135408276Y-39242247D01*
X135264639Y-39198675D01*
X135152687Y-39187649D01*
X135152684Y-39187649D01*
X135115261Y-39183963D01*
X135077838Y-39187649D01*
X129478881Y-39187649D01*
X129470628Y-39179396D01*
X129471250Y-39172000D01*
X129379167Y-39079917D01*
X129366787Y-39056756D01*
X129287435Y-38960065D01*
X129197491Y-38886250D01*
X129287435Y-38812435D01*
X129366787Y-38715744D01*
X129379167Y-38692583D01*
X129471250Y-38600500D01*
X129461704Y-38486913D01*
X129462062Y-38485732D01*
X129474322Y-38361250D01*
X129474322Y-37929500D01*
X129919371Y-37929500D01*
X130014538Y-38045462D01*
X130021094Y-38050842D01*
X129941315Y-38116315D01*
X129861963Y-38213006D01*
X129802998Y-38323320D01*
X129766688Y-38443018D01*
X129754428Y-38567500D01*
X129757500Y-38781750D01*
X129916250Y-38940500D01*
X130990500Y-38940500D01*
X130990500Y-38920500D01*
X131244500Y-38920500D01*
X131244500Y-38940500D01*
X132318750Y-38940500D01*
X132477500Y-38781750D01*
X132480572Y-38567500D01*
X132468312Y-38443018D01*
X132432002Y-38323320D01*
X132373037Y-38213006D01*
X132293685Y-38116315D01*
X132213906Y-38050842D01*
X132220462Y-38045462D01*
X132330905Y-37910886D01*
X132412972Y-37757350D01*
X132463508Y-37590754D01*
X132480572Y-37417500D01*
X132480572Y-36917500D01*
X132463508Y-36744246D01*
X132412972Y-36577650D01*
X132337792Y-36436999D01*
X132381898Y-36428226D01*
X132570256Y-36350205D01*
X132739774Y-36236937D01*
X132883937Y-36092774D01*
X132997205Y-35923256D01*
X133075226Y-35734898D01*
X133115000Y-35534939D01*
X133115000Y-35331061D01*
X133075226Y-35131102D01*
X132997205Y-34942744D01*
X132883937Y-34773226D01*
X132739774Y-34629063D01*
X132570256Y-34515795D01*
X132381898Y-34437774D01*
X132181939Y-34398000D01*
X131978061Y-34398000D01*
X131778102Y-34437774D01*
X131589744Y-34515795D01*
X131420226Y-34629063D01*
X131276063Y-34773226D01*
X131162795Y-34942744D01*
X131084774Y-35131102D01*
X131045000Y-35331061D01*
X131045000Y-35390370D01*
X130605149Y-35830221D01*
X130576079Y-35854078D01*
X130552222Y-35883148D01*
X130552221Y-35883149D01*
X130480855Y-35970108D01*
X130434373Y-36057070D01*
X130302650Y-36097028D01*
X130149114Y-36179095D01*
X130014538Y-36289538D01*
X129919371Y-36405500D01*
X129042423Y-36405500D01*
X129005000Y-36401814D01*
X128967577Y-36405500D01*
X128967574Y-36405500D01*
X128855622Y-36416526D01*
X128711985Y-36460098D01*
X128657913Y-36489000D01*
X128579607Y-36530855D01*
X128537219Y-36565643D01*
X128463578Y-36626078D01*
X128439716Y-36655154D01*
X127921692Y-37173178D01*
X127336250Y-37173178D01*
X127295288Y-37177212D01*
X127299322Y-37136250D01*
X127299322Y-35636250D01*
X127287062Y-35511768D01*
X127250752Y-35392070D01*
X127191787Y-35281756D01*
X127148250Y-35228706D01*
X127148250Y-33718992D01*
X127192137Y-33682974D01*
X127216315Y-33712435D01*
X127313006Y-33791787D01*
X127423320Y-33850752D01*
X127543018Y-33887062D01*
X127667500Y-33899322D01*
X127894250Y-33896250D01*
X128053000Y-33737500D01*
X128053000Y-32688250D01*
X128307000Y-32688250D01*
X128307000Y-33737500D01*
X128465750Y-33896250D01*
X128692500Y-33899322D01*
X128816982Y-33887062D01*
X128936680Y-33850752D01*
X129046994Y-33791787D01*
X129143685Y-33712435D01*
X129223037Y-33615744D01*
X129282002Y-33505430D01*
X129318312Y-33385732D01*
X129330572Y-33261250D01*
X129327500Y-32847000D01*
X129168750Y-32688250D01*
X128307000Y-32688250D01*
X128053000Y-32688250D01*
X128033000Y-32688250D01*
X128033000Y-32434250D01*
X128053000Y-32434250D01*
X128053000Y-31385000D01*
X128307000Y-31385000D01*
X128307000Y-32434250D01*
X129168750Y-32434250D01*
X129327500Y-32275500D01*
X129330572Y-31861250D01*
X129318312Y-31736768D01*
X129282002Y-31617070D01*
X129223037Y-31506756D01*
X129143685Y-31410065D01*
X129046994Y-31330713D01*
X128936680Y-31271748D01*
X128816982Y-31235438D01*
X128692500Y-31223178D01*
X128465750Y-31226250D01*
X128307000Y-31385000D01*
X128053000Y-31385000D01*
X127894250Y-31226250D01*
X127667500Y-31223178D01*
X127543018Y-31235438D01*
X127423320Y-31271748D01*
X127313006Y-31330713D01*
X127216315Y-31410065D01*
X127192137Y-31439526D01*
X127110887Y-31372845D01*
X126957351Y-31290778D01*
X126790755Y-31240242D01*
X126617501Y-31223178D01*
X126092499Y-31223178D01*
X125919245Y-31240242D01*
X125752649Y-31290778D01*
X125599113Y-31372845D01*
X125464538Y-31483288D01*
X125354095Y-31617863D01*
X125272028Y-31771399D01*
X125221492Y-31937995D01*
X125204428Y-32111249D01*
X125204428Y-33011251D01*
X125221492Y-33184505D01*
X125272028Y-33351101D01*
X125354095Y-33504637D01*
X125464538Y-33639212D01*
X125599113Y-33749655D01*
X125624251Y-33763091D01*
X125624250Y-34998178D01*
X125311250Y-34998178D01*
X125186768Y-35010438D01*
X125186250Y-35010595D01*
X125185732Y-35010438D01*
X125061250Y-34998178D01*
X124511250Y-34998178D01*
X124386768Y-35010438D01*
X124386250Y-35010595D01*
X124385732Y-35010438D01*
X124261250Y-34998178D01*
X123711250Y-34998178D01*
X123586768Y-35010438D01*
X123586250Y-35010595D01*
X123585732Y-35010438D01*
X123461250Y-34998178D01*
X122911250Y-34998178D01*
X122786768Y-35010438D01*
X122786250Y-35010595D01*
X122785732Y-35010438D01*
X122661250Y-34998178D01*
X122111250Y-34998178D01*
X121986768Y-35010438D01*
X121986250Y-35010595D01*
X121985732Y-35010438D01*
X121861250Y-34998178D01*
X121311250Y-34998178D01*
X121186768Y-35010438D01*
X121186250Y-35010595D01*
X121185732Y-35010438D01*
X121061250Y-34998178D01*
X120511250Y-34998178D01*
X120386768Y-35010438D01*
X120386250Y-35010595D01*
X120385732Y-35010438D01*
X120261250Y-34998178D01*
X119973250Y-34998178D01*
X119973250Y-34553129D01*
X120089212Y-34457962D01*
X120199655Y-34323386D01*
X120281722Y-34169850D01*
X120332258Y-34003254D01*
X120349322Y-33830000D01*
X120349322Y-32880000D01*
X120332258Y-32706746D01*
X120281722Y-32540150D01*
X120199655Y-32386614D01*
X120089212Y-32252038D01*
X120051235Y-32220871D01*
X120121226Y-32051898D01*
X120161000Y-31851939D01*
X120161000Y-31648061D01*
X120121226Y-31448102D01*
X120043205Y-31259744D01*
X119929937Y-31090226D01*
X119785774Y-30946063D01*
X119777651Y-30940635D01*
X135947345Y-30940635D01*
X135947345Y-31319365D01*
X136021231Y-31690818D01*
X136166165Y-32040719D01*
X136376576Y-32355621D01*
X136644379Y-32623424D01*
X136959281Y-32833835D01*
X137309182Y-32978769D01*
X137680635Y-33052655D01*
X138059365Y-33052655D01*
X138430818Y-32978769D01*
X138780719Y-32833835D01*
X139095621Y-32623424D01*
X139363424Y-32355621D01*
X139573835Y-32040719D01*
X139718769Y-31690818D01*
X139792655Y-31319365D01*
X139792655Y-30940635D01*
X139718769Y-30569182D01*
X139573835Y-30219281D01*
X139363424Y-29904379D01*
X139095621Y-29636576D01*
X138780719Y-29426165D01*
X138430818Y-29281231D01*
X138059365Y-29207345D01*
X137680635Y-29207345D01*
X137309182Y-29281231D01*
X136959281Y-29426165D01*
X136644379Y-29636576D01*
X136376576Y-29904379D01*
X136166165Y-30219281D01*
X136021231Y-30569182D01*
X135947345Y-30940635D01*
X119777651Y-30940635D01*
X119616256Y-30832795D01*
X119427898Y-30754774D01*
X119227939Y-30715000D01*
X119024061Y-30715000D01*
X118824102Y-30754774D01*
X118635744Y-30832795D01*
X118466226Y-30946063D01*
X118424289Y-30988000D01*
X67737079Y-30988000D01*
X67733508Y-30951746D01*
X67682972Y-30785150D01*
X67600905Y-30631614D01*
X67490462Y-30497038D01*
X67355886Y-30386595D01*
X67202350Y-30304528D01*
X67035754Y-30253992D01*
X66862500Y-30236928D01*
X66112500Y-30236928D01*
X65939246Y-30253992D01*
X65772650Y-30304528D01*
X65619114Y-30386595D01*
X65484538Y-30497038D01*
X65374095Y-30631614D01*
X65292028Y-30785150D01*
X65241492Y-30951746D01*
X65224428Y-31125000D01*
X65224428Y-32375000D01*
X65241492Y-32548254D01*
X65292028Y-32714850D01*
X65374095Y-32868386D01*
X65484538Y-33002962D01*
X65619114Y-33113405D01*
X65772650Y-33195472D01*
X65939246Y-33246008D01*
X66112500Y-33263072D01*
X66862500Y-33263072D01*
X67035754Y-33246008D01*
X67202350Y-33195472D01*
X67355886Y-33113405D01*
X67490462Y-33002962D01*
X67600905Y-32868386D01*
X67682972Y-32714850D01*
X67733508Y-32548254D01*
X67737079Y-32512000D01*
X116184800Y-32512000D01*
X116173178Y-32630000D01*
X116176250Y-33069250D01*
X116335000Y-33228000D01*
X117184250Y-33228000D01*
X117184250Y-33208000D01*
X117438250Y-33208000D01*
X117438250Y-33228000D01*
X117458250Y-33228000D01*
X117458250Y-33482000D01*
X117438250Y-33482000D01*
X117438250Y-34556250D01*
X117597000Y-34715000D01*
X117811250Y-34718072D01*
X117935732Y-34705812D01*
X118055430Y-34669502D01*
X118165744Y-34610537D01*
X118262435Y-34531185D01*
X118327908Y-34451406D01*
X118333288Y-34457962D01*
X118449250Y-34553129D01*
X118449251Y-35198242D01*
X118380713Y-35281756D01*
X118321748Y-35392070D01*
X118285438Y-35511768D01*
X118273178Y-35636250D01*
X118273178Y-37136250D01*
X118285438Y-37260732D01*
X118321748Y-37380430D01*
X118380713Y-37490744D01*
X118460065Y-37587435D01*
X118556756Y-37666787D01*
X118579917Y-37679167D01*
X118672000Y-37771250D01*
X118785587Y-37761704D01*
X118786768Y-37762062D01*
X118911250Y-37774322D01*
X119461250Y-37774322D01*
X119585732Y-37762062D01*
X119586250Y-37761905D01*
X119586768Y-37762062D01*
X119711250Y-37774322D01*
X120261250Y-37774322D01*
X120385732Y-37762062D01*
X120386250Y-37761905D01*
X120386768Y-37762062D01*
X120511250Y-37774322D01*
X121061250Y-37774322D01*
X121185732Y-37762062D01*
X121186250Y-37761905D01*
X121186768Y-37762062D01*
X121311250Y-37774322D01*
X121861250Y-37774322D01*
X121985732Y-37762062D01*
X121986250Y-37761905D01*
X121986768Y-37762062D01*
X122111250Y-37774322D01*
X122661250Y-37774322D01*
X122785732Y-37762062D01*
X122786250Y-37761905D01*
X122786768Y-37762062D01*
X122911250Y-37774322D01*
X123461250Y-37774322D01*
X123585732Y-37762062D01*
X123586250Y-37761905D01*
X123586768Y-37762062D01*
X123711250Y-37774322D01*
X124261250Y-37774322D01*
X124385732Y-37762062D01*
X124386250Y-37761905D01*
X124386768Y-37762062D01*
X124511250Y-37774322D01*
X125061250Y-37774322D01*
X125185732Y-37762062D01*
X125186250Y-37761905D01*
X125186768Y-37762062D01*
X125311250Y-37774322D01*
X125861250Y-37774322D01*
X125985732Y-37762062D01*
X125986250Y-37761905D01*
X125986768Y-37762062D01*
X126111250Y-37774322D01*
X126661250Y-37774322D01*
X126702212Y-37770288D01*
X126698178Y-37811250D01*
X126698178Y-38361250D01*
X126710438Y-38485732D01*
X126710796Y-38486913D01*
X126701250Y-38600500D01*
X126793333Y-38692583D01*
X126805713Y-38715744D01*
X126885065Y-38812435D01*
X126975009Y-38886250D01*
X126885065Y-38960065D01*
X126805713Y-39056756D01*
X126793333Y-39079917D01*
X126701250Y-39172000D01*
X126710796Y-39285587D01*
X126710438Y-39286768D01*
X126698178Y-39411250D01*
X126698178Y-39961250D01*
X126710438Y-40085732D01*
X126710595Y-40086250D01*
X126710438Y-40086768D01*
X126698178Y-40211250D01*
X126698178Y-40761250D01*
X126710438Y-40885732D01*
X126710595Y-40886250D01*
X126710438Y-40886768D01*
X126698178Y-41011250D01*
X126698178Y-41561250D01*
X126710438Y-41685732D01*
X126710595Y-41686250D01*
X126710438Y-41686768D01*
X126698178Y-41811250D01*
X126698178Y-42361250D01*
X126710438Y-42485732D01*
X126710595Y-42486250D01*
X126710438Y-42486768D01*
X126698178Y-42611250D01*
X126698178Y-43161250D01*
X126710438Y-43285732D01*
X126710595Y-43286250D01*
X126710438Y-43286768D01*
X126698178Y-43411250D01*
X126698178Y-43961250D01*
X126710438Y-44085732D01*
X126710595Y-44086250D01*
X126710438Y-44086768D01*
X126698178Y-44211250D01*
X126698178Y-44761250D01*
X126710438Y-44885732D01*
X126710796Y-44886913D01*
X126701250Y-45000500D01*
X126793333Y-45092583D01*
X126805713Y-45115744D01*
X126885065Y-45212435D01*
X126975009Y-45286250D01*
X126885065Y-45360065D01*
X126805713Y-45456756D01*
X126793333Y-45479917D01*
X126701250Y-45572000D01*
X126710796Y-45685587D01*
X126710438Y-45686768D01*
X126698178Y-45811250D01*
X126698178Y-46361250D01*
X126702212Y-46402212D01*
X126661250Y-46398178D01*
X126111250Y-46398178D01*
X125986768Y-46410438D01*
X125986250Y-46410595D01*
X125985732Y-46410438D01*
X125861250Y-46398178D01*
X125311250Y-46398178D01*
X125186768Y-46410438D01*
X125186250Y-46410595D01*
X125185732Y-46410438D01*
X125061250Y-46398178D01*
X124511250Y-46398178D01*
X124386768Y-46410438D01*
X124386250Y-46410595D01*
X124385732Y-46410438D01*
X124261250Y-46398178D01*
X123711250Y-46398178D01*
X123586768Y-46410438D01*
X123585587Y-46410796D01*
X123472000Y-46401250D01*
X123379917Y-46493333D01*
X123356756Y-46505713D01*
X123260065Y-46585065D01*
X123186250Y-46675009D01*
X123112435Y-46585065D01*
X123015744Y-46505713D01*
X122992583Y-46493333D01*
X122900500Y-46401250D01*
X122786913Y-46410796D01*
X122785732Y-46410438D01*
X122661250Y-46398178D01*
X122111250Y-46398178D01*
X121986768Y-46410438D01*
X121986250Y-46410595D01*
X121985732Y-46410438D01*
X121861250Y-46398178D01*
X121311250Y-46398178D01*
X121186768Y-46410438D01*
X121186250Y-46410595D01*
X121185732Y-46410438D01*
X121061250Y-46398178D01*
X120511250Y-46398178D01*
X120386768Y-46410438D01*
X120386250Y-46410595D01*
X120385732Y-46410438D01*
X120261250Y-46398178D01*
X119711250Y-46398178D01*
X119586768Y-46410438D01*
X119586250Y-46410595D01*
X119585732Y-46410438D01*
X119461250Y-46398178D01*
X118911250Y-46398178D01*
X118786768Y-46410438D01*
X118786250Y-46410595D01*
X118785732Y-46410438D01*
X118661250Y-46398178D01*
X118525251Y-46398178D01*
X118525251Y-45587071D01*
X118528937Y-45549648D01*
X118524829Y-45507937D01*
X118514225Y-45400271D01*
X118470653Y-45256634D01*
X118399896Y-45124257D01*
X118304673Y-45008227D01*
X118275597Y-44984365D01*
X118072364Y-44781132D01*
X118074322Y-44761250D01*
X118074322Y-44211250D01*
X118062062Y-44086768D01*
X118061704Y-44085587D01*
X118071250Y-43972000D01*
X117979167Y-43879917D01*
X117966787Y-43856756D01*
X117887435Y-43760065D01*
X117797491Y-43686250D01*
X117887435Y-43612435D01*
X117966787Y-43515744D01*
X117979167Y-43492583D01*
X118071250Y-43400500D01*
X118061704Y-43286913D01*
X118062062Y-43285732D01*
X118074322Y-43161250D01*
X118074322Y-42611250D01*
X118062062Y-42486768D01*
X118061905Y-42486250D01*
X118062062Y-42485732D01*
X118074322Y-42361250D01*
X118074322Y-41811250D01*
X118062062Y-41686768D01*
X118061905Y-41686250D01*
X118062062Y-41685732D01*
X118074322Y-41561250D01*
X118074322Y-41011250D01*
X118062062Y-40886768D01*
X118061905Y-40886250D01*
X118062062Y-40885732D01*
X118074322Y-40761250D01*
X118074322Y-40211250D01*
X118062062Y-40086768D01*
X118061905Y-40086250D01*
X118062062Y-40085732D01*
X118074322Y-39961250D01*
X118074322Y-39411250D01*
X118062062Y-39286768D01*
X118061905Y-39286250D01*
X118062062Y-39285732D01*
X118074322Y-39161250D01*
X118074322Y-38611250D01*
X118062062Y-38486768D01*
X118061905Y-38486250D01*
X118062062Y-38485732D01*
X118074322Y-38361250D01*
X118074322Y-37811250D01*
X118070131Y-37768698D01*
X118100500Y-37771250D01*
X118259250Y-37612500D01*
X118259250Y-36513250D01*
X117635000Y-36513250D01*
X117476250Y-36672000D01*
X117473186Y-37133037D01*
X117477314Y-37177222D01*
X117436250Y-37173178D01*
X116850809Y-37173178D01*
X115317094Y-35639463D01*
X117473186Y-35639463D01*
X117476250Y-36100500D01*
X117635000Y-36259250D01*
X118259250Y-36259250D01*
X118259250Y-35160000D01*
X118100500Y-35001250D01*
X117983619Y-35011073D01*
X117864105Y-35047985D01*
X117754089Y-35107504D01*
X117657799Y-35187342D01*
X117578934Y-35284432D01*
X117520526Y-35395042D01*
X117484820Y-35514921D01*
X117473186Y-35639463D01*
X115317094Y-35639463D01*
X113757631Y-34080000D01*
X116173178Y-34080000D01*
X116185438Y-34204482D01*
X116221748Y-34324180D01*
X116280713Y-34434494D01*
X116360065Y-34531185D01*
X116456756Y-34610537D01*
X116567070Y-34669502D01*
X116686768Y-34705812D01*
X116811250Y-34718072D01*
X117025500Y-34715000D01*
X117184250Y-34556250D01*
X117184250Y-33482000D01*
X116335000Y-33482000D01*
X116176250Y-33640750D01*
X116173178Y-34080000D01*
X113757631Y-34080000D01*
X112566284Y-32888654D01*
X112542422Y-32859578D01*
X112426392Y-32764355D01*
X112294015Y-32693598D01*
X112150378Y-32650026D01*
X112038426Y-32639000D01*
X112038423Y-32639000D01*
X112001000Y-32635314D01*
X111963577Y-32639000D01*
X88175415Y-32639000D01*
X88137999Y-32635315D01*
X88100583Y-32639000D01*
X88100574Y-32639000D01*
X87988622Y-32650026D01*
X87844985Y-32693598D01*
X87712608Y-32764355D01*
X87596578Y-32859578D01*
X87572721Y-32888648D01*
X84537649Y-35923721D01*
X84508579Y-35947578D01*
X84484722Y-35976648D01*
X84484721Y-35976649D01*
X84413355Y-36063608D01*
X84342599Y-36195985D01*
X84299027Y-36339622D01*
X84284314Y-36489000D01*
X84288001Y-36526433D01*
X84288001Y-38001928D01*
X84050000Y-38001928D01*
X83925518Y-38014188D01*
X83805820Y-38050498D01*
X83695506Y-38109463D01*
X83598815Y-38188815D01*
X83519463Y-38285506D01*
X83460498Y-38395820D01*
X83424188Y-38515518D01*
X83411928Y-38640000D01*
X83411928Y-40640000D01*
X83424188Y-40764482D01*
X83460498Y-40884180D01*
X83519463Y-40994494D01*
X83598815Y-41091185D01*
X83695506Y-41170537D01*
X83799223Y-41225976D01*
X83650186Y-41279956D01*
X83509296Y-41569571D01*
X83427616Y-41881108D01*
X83408282Y-42202595D01*
X83452039Y-42521675D01*
X83557205Y-42826088D01*
X83650186Y-43000044D01*
X83914587Y-43095808D01*
X84870395Y-42140000D01*
X84856253Y-42125858D01*
X85035858Y-41946253D01*
X85050000Y-41960395D01*
X85064143Y-41946253D01*
X85243748Y-42125858D01*
X85229605Y-42140000D01*
X85243748Y-42154143D01*
X85064143Y-42333748D01*
X85050000Y-42319605D01*
X84094192Y-43275413D01*
X84104935Y-43305075D01*
X84007748Y-43370013D01*
X83780013Y-43597748D01*
X83601082Y-43865537D01*
X83477832Y-44163088D01*
X83415000Y-44478967D01*
X83415000Y-44801033D01*
X83477832Y-45116912D01*
X83601082Y-45414463D01*
X83780013Y-45682252D01*
X84007748Y-45909987D01*
X84275537Y-46088918D01*
X84573088Y-46212168D01*
X84888967Y-46275000D01*
X85211033Y-46275000D01*
X85526912Y-46212168D01*
X85824463Y-46088918D01*
X86092252Y-45909987D01*
X86319987Y-45682252D01*
X86498918Y-45414463D01*
X86622168Y-45116912D01*
X86685000Y-44801033D01*
X86685000Y-44478967D01*
X86622168Y-44163088D01*
X86617006Y-44150625D01*
X86889354Y-43878277D01*
X86918423Y-43854421D01*
X86958466Y-43805628D01*
X87013646Y-43738392D01*
X87075993Y-43621748D01*
X87084403Y-43606014D01*
X87127975Y-43462377D01*
X87139001Y-43350425D01*
X87139001Y-43350422D01*
X87142687Y-43312999D01*
X87139001Y-43275576D01*
X87139001Y-39840027D01*
X87500061Y-39478967D01*
X97915000Y-39478967D01*
X97915000Y-39801033D01*
X97977832Y-40116912D01*
X98101082Y-40414463D01*
X98280013Y-40682252D01*
X98507748Y-40909987D01*
X98775537Y-41088918D01*
X99073088Y-41212168D01*
X99388967Y-41275000D01*
X99711033Y-41275000D01*
X100026912Y-41212168D01*
X100324463Y-41088918D01*
X100592252Y-40909987D01*
X100819987Y-40682252D01*
X100879957Y-40592500D01*
X109241928Y-40592500D01*
X109245000Y-41006750D01*
X109403750Y-41165500D01*
X110353000Y-41165500D01*
X110353000Y-40116250D01*
X110351125Y-40114375D01*
X110353000Y-40112500D01*
X110353000Y-39038250D01*
X109503750Y-39038250D01*
X109345000Y-39197000D01*
X109341928Y-39636250D01*
X109354188Y-39760732D01*
X109390498Y-39880430D01*
X109449463Y-39990744D01*
X109514992Y-40070592D01*
X109428815Y-40141315D01*
X109349463Y-40238006D01*
X109290498Y-40348320D01*
X109254188Y-40468018D01*
X109241928Y-40592500D01*
X100879957Y-40592500D01*
X100998918Y-40414463D01*
X101122168Y-40116912D01*
X101185000Y-39801033D01*
X101185000Y-39478967D01*
X101122168Y-39163088D01*
X100998918Y-38865537D01*
X100819987Y-38597748D01*
X100592252Y-38370013D01*
X100324463Y-38191082D01*
X100312798Y-38186250D01*
X109341928Y-38186250D01*
X109345000Y-38625500D01*
X109503750Y-38784250D01*
X110353000Y-38784250D01*
X110353000Y-37710000D01*
X110194250Y-37551250D01*
X109980000Y-37548178D01*
X109855518Y-37560438D01*
X109735820Y-37596748D01*
X109625506Y-37655713D01*
X109528815Y-37735065D01*
X109449463Y-37831756D01*
X109390498Y-37942070D01*
X109354188Y-38061768D01*
X109341928Y-38186250D01*
X100312798Y-38186250D01*
X100026912Y-38067832D01*
X99711033Y-38005000D01*
X99388967Y-38005000D01*
X99073088Y-38067832D01*
X98775537Y-38191082D01*
X98507748Y-38370013D01*
X98280013Y-38597748D01*
X98101082Y-38865537D01*
X97977832Y-39163088D01*
X97915000Y-39478967D01*
X87500061Y-39478967D01*
X90311928Y-36667100D01*
X90311928Y-37540000D01*
X90324188Y-37664482D01*
X90360498Y-37784180D01*
X90419463Y-37894494D01*
X90498815Y-37991185D01*
X90595506Y-38070537D01*
X90705820Y-38129502D01*
X90825518Y-38165812D01*
X90950000Y-38178072D01*
X94150000Y-38178072D01*
X94274482Y-38165812D01*
X94394180Y-38129502D01*
X94504494Y-38070537D01*
X94601185Y-37991185D01*
X94680537Y-37894494D01*
X94739502Y-37784180D01*
X94775812Y-37664482D01*
X94788072Y-37540000D01*
X94788072Y-35974999D01*
X111883767Y-35974999D01*
X115300136Y-39391369D01*
X115298178Y-39411250D01*
X115298178Y-39961250D01*
X115310438Y-40085732D01*
X115310595Y-40086250D01*
X115310438Y-40086768D01*
X115298178Y-40211250D01*
X115298178Y-40761250D01*
X115310438Y-40885732D01*
X115310595Y-40886250D01*
X115310438Y-40886768D01*
X115298178Y-41011250D01*
X115298178Y-41324250D01*
X113418072Y-41324250D01*
X113418072Y-40592500D01*
X113405812Y-40468018D01*
X113369502Y-40348320D01*
X113310537Y-40238006D01*
X113231185Y-40141315D01*
X113167135Y-40088751D01*
X113257962Y-40014212D01*
X113368405Y-39879636D01*
X113450472Y-39726100D01*
X113501008Y-39559504D01*
X113518072Y-39386250D01*
X113518072Y-38436250D01*
X113501008Y-38262996D01*
X113450472Y-38096400D01*
X113368405Y-37942864D01*
X113257962Y-37808288D01*
X113123386Y-37697845D01*
X112969850Y-37615778D01*
X112803254Y-37565242D01*
X112630000Y-37548178D01*
X112130000Y-37548178D01*
X111956746Y-37565242D01*
X111790150Y-37615778D01*
X111636614Y-37697845D01*
X111502038Y-37808288D01*
X111496658Y-37814844D01*
X111431185Y-37735065D01*
X111334494Y-37655713D01*
X111224180Y-37596748D01*
X111104482Y-37560438D01*
X110980000Y-37548178D01*
X110765750Y-37551250D01*
X110607000Y-37710000D01*
X110607000Y-38784250D01*
X110627000Y-38784250D01*
X110627000Y-39038250D01*
X110607000Y-39038250D01*
X110607000Y-40112500D01*
X110608875Y-40114375D01*
X110607000Y-40116250D01*
X110607000Y-41165500D01*
X110627000Y-41165500D01*
X110627000Y-41419500D01*
X110607000Y-41419500D01*
X110607000Y-41439500D01*
X110353000Y-41439500D01*
X110353000Y-41419500D01*
X109403750Y-41419500D01*
X109245000Y-41578250D01*
X109241928Y-41992500D01*
X109254188Y-42116982D01*
X109290498Y-42236680D01*
X109349463Y-42346994D01*
X109386809Y-42392500D01*
X109349463Y-42438006D01*
X109290498Y-42548320D01*
X109254188Y-42668018D01*
X109241928Y-42792500D01*
X109241928Y-44192500D01*
X109254188Y-44316982D01*
X109290498Y-44436680D01*
X109349463Y-44546994D01*
X109428815Y-44643685D01*
X109525506Y-44723037D01*
X109635820Y-44782002D01*
X109718000Y-44806931D01*
X109718000Y-44856871D01*
X109602038Y-44952038D01*
X109491595Y-45086614D01*
X109409528Y-45240150D01*
X109358992Y-45406746D01*
X109341928Y-45580000D01*
X109341928Y-46530000D01*
X109358992Y-46703254D01*
X109409528Y-46869850D01*
X109491595Y-47023386D01*
X109602038Y-47157962D01*
X109736614Y-47268405D01*
X109890150Y-47350472D01*
X110056746Y-47401008D01*
X110230000Y-47418072D01*
X110730000Y-47418072D01*
X110903254Y-47401008D01*
X111069850Y-47350472D01*
X111223386Y-47268405D01*
X111357962Y-47157962D01*
X111363342Y-47151406D01*
X111428815Y-47231185D01*
X111525506Y-47310537D01*
X111635820Y-47369502D01*
X111755518Y-47405812D01*
X111880000Y-47418072D01*
X112094250Y-47415000D01*
X112253000Y-47256250D01*
X112253000Y-46182000D01*
X112507000Y-46182000D01*
X112507000Y-47256250D01*
X112665750Y-47415000D01*
X112880000Y-47418072D01*
X113004482Y-47405812D01*
X113124180Y-47369502D01*
X113234494Y-47310537D01*
X113331185Y-47231185D01*
X113410537Y-47134494D01*
X113469502Y-47024180D01*
X113505812Y-46904482D01*
X113518072Y-46780000D01*
X113515000Y-46340750D01*
X113356250Y-46182000D01*
X112507000Y-46182000D01*
X112253000Y-46182000D01*
X112233000Y-46182000D01*
X112233000Y-45928000D01*
X112253000Y-45928000D01*
X112253000Y-45908000D01*
X112507000Y-45908000D01*
X112507000Y-45928000D01*
X113356250Y-45928000D01*
X113515000Y-45769250D01*
X113518072Y-45330000D01*
X113505812Y-45205518D01*
X113486083Y-45140479D01*
X113583023Y-45060923D01*
X113606885Y-45031847D01*
X114990482Y-43648250D01*
X115528706Y-43648250D01*
X115575009Y-43686250D01*
X115485065Y-43760065D01*
X115405713Y-43856756D01*
X115393333Y-43879917D01*
X115301250Y-43972000D01*
X115301872Y-43979396D01*
X114886399Y-44394869D01*
X114857329Y-44418726D01*
X114833472Y-44447796D01*
X114833471Y-44447797D01*
X114762105Y-44534756D01*
X114691349Y-44667133D01*
X114647777Y-44810770D01*
X114633064Y-44960148D01*
X114636751Y-44997581D01*
X114636750Y-48712871D01*
X114520788Y-48808038D01*
X114515408Y-48814594D01*
X114449935Y-48734815D01*
X114353244Y-48655463D01*
X114242930Y-48596498D01*
X114123232Y-48560188D01*
X113998750Y-48547928D01*
X113784500Y-48551000D01*
X113625750Y-48709750D01*
X113625750Y-49784000D01*
X113645750Y-49784000D01*
X113645750Y-50038000D01*
X113625750Y-50038000D01*
X113625750Y-51112250D01*
X113784500Y-51271000D01*
X113998750Y-51274072D01*
X114123232Y-51261812D01*
X114242930Y-51225502D01*
X114353244Y-51166537D01*
X114449935Y-51087185D01*
X114515408Y-51007406D01*
X114520788Y-51013962D01*
X114655364Y-51124405D01*
X114681000Y-51138108D01*
X114681000Y-51651574D01*
X114677314Y-51689000D01*
X114681000Y-51726426D01*
X114681000Y-51915886D01*
X114640149Y-51928278D01*
X114486613Y-52010345D01*
X114352038Y-52120788D01*
X114241595Y-52255363D01*
X114159528Y-52408899D01*
X114108992Y-52575495D01*
X114091928Y-52748749D01*
X114091928Y-53121049D01*
X106155508Y-53131547D01*
X106210537Y-53064494D01*
X106269502Y-52954180D01*
X106305812Y-52834482D01*
X106318072Y-52710000D01*
X106318072Y-51810000D01*
X106305812Y-51685518D01*
X106269502Y-51565820D01*
X106210537Y-51455506D01*
X106131185Y-51358815D01*
X106034494Y-51279463D01*
X105924180Y-51220498D01*
X105804482Y-51184188D01*
X105680000Y-51171928D01*
X105069559Y-51171928D01*
X104533631Y-50636000D01*
X112360678Y-50636000D01*
X112372938Y-50760482D01*
X112409248Y-50880180D01*
X112468213Y-50990494D01*
X112547565Y-51087185D01*
X112644256Y-51166537D01*
X112754570Y-51225502D01*
X112874268Y-51261812D01*
X112998750Y-51274072D01*
X113213000Y-51271000D01*
X113371750Y-51112250D01*
X113371750Y-50038000D01*
X112522500Y-50038000D01*
X112363750Y-50196750D01*
X112360678Y-50636000D01*
X104533631Y-50636000D01*
X103083631Y-49186000D01*
X112360678Y-49186000D01*
X112363750Y-49625250D01*
X112522500Y-49784000D01*
X113371750Y-49784000D01*
X113371750Y-48709750D01*
X113213000Y-48551000D01*
X112998750Y-48547928D01*
X112874268Y-48560188D01*
X112754570Y-48596498D01*
X112644256Y-48655463D01*
X112547565Y-48734815D01*
X112468213Y-48831506D01*
X112409248Y-48941820D01*
X112372938Y-49061518D01*
X112360678Y-49186000D01*
X103083631Y-49186000D01*
X100312000Y-46414370D01*
X100312000Y-46094080D01*
X100324463Y-46088918D01*
X100592252Y-45909987D01*
X100819987Y-45682252D01*
X100998918Y-45414463D01*
X101122168Y-45116912D01*
X101185000Y-44801033D01*
X101185000Y-44478967D01*
X101122168Y-44163088D01*
X100998918Y-43865537D01*
X100819987Y-43597748D01*
X100592252Y-43370013D01*
X100324463Y-43191082D01*
X100026912Y-43067832D01*
X99711033Y-43005000D01*
X99388967Y-43005000D01*
X99073088Y-43067832D01*
X98775537Y-43191082D01*
X98507748Y-43370013D01*
X98280013Y-43597748D01*
X98101082Y-43865537D01*
X97977832Y-44163088D01*
X97915000Y-44478967D01*
X97915000Y-44801033D01*
X97977832Y-45116912D01*
X98101082Y-45414463D01*
X98280013Y-45682252D01*
X98507748Y-45909987D01*
X98775537Y-46088918D01*
X98788001Y-46094081D01*
X98788001Y-46692567D01*
X98784314Y-46730000D01*
X98799027Y-46879378D01*
X98842599Y-47023015D01*
X98913355Y-47155392D01*
X98932296Y-47178471D01*
X99008579Y-47271422D01*
X99037649Y-47295279D01*
X103841928Y-52099559D01*
X103841928Y-52710000D01*
X103854188Y-52834482D01*
X103890498Y-52954180D01*
X103949463Y-53064494D01*
X104006824Y-53134389D01*
X86445250Y-53157619D01*
X80027631Y-46740000D01*
X90311928Y-46740000D01*
X90311928Y-48740000D01*
X90324188Y-48864482D01*
X90360498Y-48984180D01*
X90419463Y-49094494D01*
X90498815Y-49191185D01*
X90595506Y-49270537D01*
X90705820Y-49329502D01*
X90825518Y-49365812D01*
X90950000Y-49378072D01*
X94150000Y-49378072D01*
X94274482Y-49365812D01*
X94394180Y-49329502D01*
X94504494Y-49270537D01*
X94601185Y-49191185D01*
X94680537Y-49094494D01*
X94739502Y-48984180D01*
X94775812Y-48864482D01*
X94788072Y-48740000D01*
X94788072Y-46740000D01*
X94775812Y-46615518D01*
X94739502Y-46495820D01*
X94680537Y-46385506D01*
X94601185Y-46288815D01*
X94504494Y-46209463D01*
X94394180Y-46150498D01*
X94274482Y-46114188D01*
X94150000Y-46101928D01*
X90950000Y-46101928D01*
X90825518Y-46114188D01*
X90705820Y-46150498D01*
X90595506Y-46209463D01*
X90498815Y-46288815D01*
X90419463Y-46385506D01*
X90360498Y-46495820D01*
X90324188Y-46615518D01*
X90311928Y-46740000D01*
X80027631Y-46740000D01*
X74328072Y-41040442D01*
X74328072Y-40030000D01*
X77451928Y-40030000D01*
X77451928Y-41130000D01*
X77464188Y-41254482D01*
X77500498Y-41374180D01*
X77559463Y-41484494D01*
X77638815Y-41581185D01*
X77735506Y-41660537D01*
X77845820Y-41719502D01*
X77965518Y-41755812D01*
X78090000Y-41768072D01*
X79890000Y-41768072D01*
X80014482Y-41755812D01*
X80134180Y-41719502D01*
X80244494Y-41660537D01*
X80341185Y-41581185D01*
X80420537Y-41484494D01*
X80479502Y-41374180D01*
X80515812Y-41254482D01*
X80528072Y-41130000D01*
X80528072Y-40030000D01*
X80515812Y-39905518D01*
X80479502Y-39785820D01*
X80420537Y-39675506D01*
X80341185Y-39578815D01*
X80244494Y-39499463D01*
X80134180Y-39440498D01*
X80014482Y-39404188D01*
X79890000Y-39391928D01*
X78090000Y-39391928D01*
X77965518Y-39404188D01*
X77845820Y-39440498D01*
X77735506Y-39499463D01*
X77638815Y-39578815D01*
X77559463Y-39675506D01*
X77500498Y-39785820D01*
X77464188Y-39905518D01*
X77451928Y-40030000D01*
X74328072Y-40030000D01*
X74315812Y-39905518D01*
X74279502Y-39785820D01*
X74220537Y-39675506D01*
X74141185Y-39578815D01*
X74044494Y-39499463D01*
X73934180Y-39440498D01*
X73814482Y-39404188D01*
X73690000Y-39391928D01*
X71890000Y-39391928D01*
X71765518Y-39404188D01*
X71645820Y-39440498D01*
X71535506Y-39499463D01*
X71438815Y-39578815D01*
X71359463Y-39675506D01*
X71300498Y-39785820D01*
X71264188Y-39905518D01*
X71251928Y-40030000D01*
X71251928Y-41130000D01*
X71264188Y-41254482D01*
X71300498Y-41374180D01*
X71359463Y-41484494D01*
X71438815Y-41581185D01*
X71535506Y-41660537D01*
X71645820Y-41719502D01*
X71765518Y-41755812D01*
X71890000Y-41768072D01*
X72900442Y-41768072D01*
X84292835Y-53160466D01*
X70924529Y-53178149D01*
X65220260Y-47473880D01*
X65220260Y-47086630D01*
X69374428Y-51240798D01*
X69374428Y-51250001D01*
X69391492Y-51423255D01*
X69442028Y-51589851D01*
X69524095Y-51743387D01*
X69634538Y-51877962D01*
X69769113Y-51988405D01*
X69922649Y-52070472D01*
X70089245Y-52121008D01*
X70262499Y-52138072D01*
X70787501Y-52138072D01*
X70960755Y-52121008D01*
X71127351Y-52070472D01*
X71280887Y-51988405D01*
X71362137Y-51921724D01*
X71386315Y-51951185D01*
X71483006Y-52030537D01*
X71593320Y-52089502D01*
X71713018Y-52125812D01*
X71837500Y-52138072D01*
X72064250Y-52135000D01*
X72223000Y-51976250D01*
X72223000Y-50927000D01*
X72477000Y-50927000D01*
X72477000Y-51976250D01*
X72635750Y-52135000D01*
X72862500Y-52138072D01*
X72986982Y-52125812D01*
X73106680Y-52089502D01*
X73216994Y-52030537D01*
X73313685Y-51951185D01*
X73393037Y-51854494D01*
X73452002Y-51744180D01*
X73488312Y-51624482D01*
X73500572Y-51500000D01*
X73497500Y-51085750D01*
X73338750Y-50927000D01*
X72477000Y-50927000D01*
X72223000Y-50927000D01*
X72203000Y-50927000D01*
X72203000Y-50673000D01*
X72223000Y-50673000D01*
X72223000Y-49623750D01*
X72477000Y-49623750D01*
X72477000Y-50673000D01*
X73338750Y-50673000D01*
X73497500Y-50514250D01*
X73500572Y-50100000D01*
X73488312Y-49975518D01*
X73452002Y-49855820D01*
X73393037Y-49745506D01*
X73313685Y-49648815D01*
X73216994Y-49569463D01*
X73106680Y-49510498D01*
X72986982Y-49474188D01*
X72862500Y-49461928D01*
X72635750Y-49465000D01*
X72477000Y-49623750D01*
X72223000Y-49623750D01*
X72064250Y-49465000D01*
X71837500Y-49461928D01*
X71713018Y-49474188D01*
X71593320Y-49510498D01*
X71483006Y-49569463D01*
X71386315Y-49648815D01*
X71362137Y-49678276D01*
X71280887Y-49611595D01*
X71127351Y-49529528D01*
X70960755Y-49478992D01*
X70787501Y-49461928D01*
X70262499Y-49461928D01*
X70089245Y-49478992D01*
X69922649Y-49529528D01*
X69854725Y-49565835D01*
X66220260Y-45931370D01*
X66220260Y-45872061D01*
X66180486Y-45672102D01*
X66102465Y-45483744D01*
X65989197Y-45314226D01*
X65845034Y-45170063D01*
X65675516Y-45056795D01*
X65487158Y-44978774D01*
X65287199Y-44939000D01*
X65220260Y-44939000D01*
X65220260Y-42425622D01*
X69507429Y-46712792D01*
X69442028Y-46835149D01*
X69391492Y-47001745D01*
X69374428Y-47174999D01*
X69374428Y-48075001D01*
X69391492Y-48248255D01*
X69442028Y-48414851D01*
X69524095Y-48568387D01*
X69634538Y-48702962D01*
X69769113Y-48813405D01*
X69922649Y-48895472D01*
X70089245Y-48946008D01*
X70262499Y-48963072D01*
X70787501Y-48963072D01*
X70960755Y-48946008D01*
X71127351Y-48895472D01*
X71280887Y-48813405D01*
X71362137Y-48746724D01*
X71386315Y-48776185D01*
X71483006Y-48855537D01*
X71593320Y-48914502D01*
X71713018Y-48950812D01*
X71837500Y-48963072D01*
X72064250Y-48960000D01*
X72223000Y-48801250D01*
X72223000Y-47752000D01*
X72477000Y-47752000D01*
X72477000Y-48801250D01*
X72635750Y-48960000D01*
X72862500Y-48963072D01*
X72986982Y-48950812D01*
X73106680Y-48914502D01*
X73216994Y-48855537D01*
X73313685Y-48776185D01*
X73393037Y-48679494D01*
X73452002Y-48569180D01*
X73488312Y-48449482D01*
X73500572Y-48325000D01*
X73497500Y-47910750D01*
X73338750Y-47752000D01*
X72477000Y-47752000D01*
X72223000Y-47752000D01*
X72203000Y-47752000D01*
X72203000Y-47498000D01*
X72223000Y-47498000D01*
X72223000Y-46448750D01*
X72477000Y-46448750D01*
X72477000Y-47498000D01*
X73338750Y-47498000D01*
X73497500Y-47339250D01*
X73500572Y-46925000D01*
X73488312Y-46800518D01*
X73452002Y-46680820D01*
X73393037Y-46570506D01*
X73313685Y-46473815D01*
X73216994Y-46394463D01*
X73106680Y-46335498D01*
X72986982Y-46299188D01*
X72862500Y-46286928D01*
X72635750Y-46290000D01*
X72477000Y-46448750D01*
X72223000Y-46448750D01*
X72064250Y-46290000D01*
X71837500Y-46286928D01*
X71713018Y-46299188D01*
X71593320Y-46335498D01*
X71483006Y-46394463D01*
X71386315Y-46473815D01*
X71362137Y-46503276D01*
X71280887Y-46436595D01*
X71250853Y-46420541D01*
X71232402Y-46359717D01*
X71161645Y-46227340D01*
X71066422Y-46111310D01*
X71037352Y-46087453D01*
X64061552Y-39111654D01*
X64037690Y-39082578D01*
X63921660Y-38987355D01*
X63789283Y-38916598D01*
X63645646Y-38873026D01*
X63533694Y-38862000D01*
X63533691Y-38862000D01*
X63496268Y-38858314D01*
X63458845Y-38862000D01*
X58613711Y-38862000D01*
X58571774Y-38820063D01*
X58402256Y-38706795D01*
X58213898Y-38628774D01*
X58013939Y-38589000D01*
X57926130Y-38589000D01*
X60185130Y-36330000D01*
X71251928Y-36330000D01*
X71251928Y-37430000D01*
X71264188Y-37554482D01*
X71300498Y-37674180D01*
X71359463Y-37784494D01*
X71438815Y-37881185D01*
X71535506Y-37960537D01*
X71645820Y-38019502D01*
X71765518Y-38055812D01*
X71890000Y-38068072D01*
X73690000Y-38068072D01*
X73814482Y-38055812D01*
X73934180Y-38019502D01*
X74044494Y-37960537D01*
X74141185Y-37881185D01*
X74220537Y-37784494D01*
X74279502Y-37674180D01*
X74315812Y-37554482D01*
X74328072Y-37430000D01*
X77451928Y-37430000D01*
X77464188Y-37554482D01*
X77500498Y-37674180D01*
X77559463Y-37784494D01*
X77638815Y-37881185D01*
X77735506Y-37960537D01*
X77845820Y-38019502D01*
X77965518Y-38055812D01*
X78090000Y-38068072D01*
X78704250Y-38065000D01*
X78863000Y-37906250D01*
X78863000Y-37007000D01*
X79117000Y-37007000D01*
X79117000Y-37906250D01*
X79275750Y-38065000D01*
X79890000Y-38068072D01*
X80014482Y-38055812D01*
X80134180Y-38019502D01*
X80244494Y-37960537D01*
X80341185Y-37881185D01*
X80420537Y-37784494D01*
X80479502Y-37674180D01*
X80515812Y-37554482D01*
X80528072Y-37430000D01*
X80525000Y-37165750D01*
X80366250Y-37007000D01*
X79117000Y-37007000D01*
X78863000Y-37007000D01*
X77613750Y-37007000D01*
X77455000Y-37165750D01*
X77451928Y-37430000D01*
X74328072Y-37430000D01*
X74328072Y-36330000D01*
X77451928Y-36330000D01*
X77455000Y-36594250D01*
X77613750Y-36753000D01*
X78863000Y-36753000D01*
X78863000Y-35853750D01*
X79117000Y-35853750D01*
X79117000Y-36753000D01*
X80366250Y-36753000D01*
X80525000Y-36594250D01*
X80528072Y-36330000D01*
X80515812Y-36205518D01*
X80479502Y-36085820D01*
X80420537Y-35975506D01*
X80341185Y-35878815D01*
X80244494Y-35799463D01*
X80134180Y-35740498D01*
X80014482Y-35704188D01*
X79890000Y-35691928D01*
X79275750Y-35695000D01*
X79117000Y-35853750D01*
X78863000Y-35853750D01*
X78704250Y-35695000D01*
X78090000Y-35691928D01*
X77965518Y-35704188D01*
X77845820Y-35740498D01*
X77735506Y-35799463D01*
X77638815Y-35878815D01*
X77559463Y-35975506D01*
X77500498Y-36085820D01*
X77464188Y-36205518D01*
X77451928Y-36330000D01*
X74328072Y-36330000D01*
X74315812Y-36205518D01*
X74279502Y-36085820D01*
X74220537Y-35975506D01*
X74141185Y-35878815D01*
X74044494Y-35799463D01*
X73934180Y-35740498D01*
X73814482Y-35704188D01*
X73690000Y-35691928D01*
X71890000Y-35691928D01*
X71765518Y-35704188D01*
X71645820Y-35740498D01*
X71535506Y-35799463D01*
X71438815Y-35878815D01*
X71359463Y-35975506D01*
X71300498Y-36085820D01*
X71264188Y-36205518D01*
X71251928Y-36330000D01*
X60185130Y-36330000D01*
X63257478Y-33257653D01*
X63312500Y-33263072D01*
X64062500Y-33263072D01*
X64235754Y-33246008D01*
X64402350Y-33195472D01*
X64555886Y-33113405D01*
X64690462Y-33002962D01*
X64800905Y-32868386D01*
X64882972Y-32714850D01*
X64933508Y-32548254D01*
X64950572Y-32375000D01*
X64950572Y-31125000D01*
X64933508Y-30951746D01*
X64882972Y-30785150D01*
X64800905Y-30631614D01*
X64690462Y-30497038D01*
X64555886Y-30386595D01*
X64402350Y-30304528D01*
X64235754Y-30253992D01*
X64062500Y-30236928D01*
X63312500Y-30236928D01*
X63139246Y-30253992D01*
X62972650Y-30304528D01*
X62819114Y-30386595D01*
X62684538Y-30497038D01*
X62574095Y-30631614D01*
X62492028Y-30785150D01*
X62441492Y-30951746D01*
X62424428Y-31125000D01*
X62424428Y-31935441D01*
X56383649Y-37976221D01*
X56354579Y-38000078D01*
X56330722Y-38029148D01*
X56330721Y-38029149D01*
X56259355Y-38116108D01*
X56188599Y-38248485D01*
X56145027Y-38392122D01*
X56130314Y-38541500D01*
X56134001Y-38578933D01*
X56134000Y-39938289D01*
X56092063Y-39980226D01*
X55978795Y-40149744D01*
X55900774Y-40338102D01*
X55861000Y-40538061D01*
X55861000Y-40728000D01*
X55270000Y-40728000D01*
X55270000Y-40595448D01*
X55233108Y-40409978D01*
X55160741Y-40235269D01*
X55055681Y-40078036D01*
X54921964Y-39944319D01*
X54775697Y-39846586D01*
X54782931Y-39742536D01*
X54570000Y-39529605D01*
X54570000Y-39395448D01*
X54533108Y-39209978D01*
X54504108Y-39139965D01*
X54505269Y-39140741D01*
X54565149Y-39165544D01*
X54962536Y-39562931D01*
X55158270Y-39549323D01*
X55231581Y-39375008D01*
X55266979Y-39201942D01*
X55414731Y-39140741D01*
X55571964Y-39035681D01*
X55705681Y-38901964D01*
X55810741Y-38744731D01*
X55883108Y-38570022D01*
X55920000Y-38384552D01*
X55920000Y-38195448D01*
X55883108Y-38009978D01*
X55810741Y-37835269D01*
X55705681Y-37678036D01*
X55571964Y-37544319D01*
X55414731Y-37439259D01*
X55240022Y-37366892D01*
X55054552Y-37330000D01*
X54953733Y-37330000D01*
X54874734Y-37182203D01*
X54745396Y-37024604D01*
X54587797Y-36895266D01*
X54407993Y-36799159D01*
X54212895Y-36739976D01*
X54060838Y-36725000D01*
X53359162Y-36725000D01*
X53207105Y-36739976D01*
X53012007Y-36799159D01*
X52832203Y-36895266D01*
X52674604Y-37024604D01*
X52545266Y-37182203D01*
X52449159Y-37362007D01*
X52389976Y-37557105D01*
X52369993Y-37760000D01*
X52389976Y-37962895D01*
X52449159Y-38157993D01*
X52545266Y-38337797D01*
X52674604Y-38495396D01*
X52832203Y-38624734D01*
X53012007Y-38720841D01*
X53026564Y-38725257D01*
X52998036Y-38744319D01*
X52864319Y-38878036D01*
X52759259Y-39035269D01*
X52686892Y-39209978D01*
X52650000Y-39395448D01*
X52650000Y-39584552D01*
X52686892Y-39770022D01*
X52736589Y-39890000D01*
X52686892Y-40009978D01*
X52650000Y-40195448D01*
X52650000Y-40384552D01*
X52686892Y-40570022D01*
X52736589Y-40690000D01*
X52686892Y-40809978D01*
X52650000Y-40995448D01*
X52650000Y-41184552D01*
X52686892Y-41370022D01*
X52759259Y-41544731D01*
X52864319Y-41701964D01*
X52998036Y-41835681D01*
X53079330Y-41890000D01*
X52998036Y-41944319D01*
X52864319Y-42078036D01*
X52759259Y-42235269D01*
X52686892Y-42409978D01*
X52650000Y-42595448D01*
X52650000Y-42784552D01*
X52686892Y-42970022D01*
X52736589Y-43090000D01*
X52686892Y-43209978D01*
X52650000Y-43395448D01*
X52650000Y-43584552D01*
X52686892Y-43770022D01*
X52736589Y-43890000D01*
X52686892Y-44009978D01*
X52650000Y-44195448D01*
X52650000Y-44384552D01*
X52686892Y-44570022D01*
X52759259Y-44744731D01*
X52864319Y-44901964D01*
X52998036Y-45035681D01*
X53026564Y-45054743D01*
X53012007Y-45059159D01*
X52832203Y-45155266D01*
X52674604Y-45284604D01*
X52545266Y-45442203D01*
X52449159Y-45622007D01*
X52389976Y-45817105D01*
X52369993Y-46020000D01*
X52389976Y-46222895D01*
X52449159Y-46417993D01*
X52545266Y-46597797D01*
X52674604Y-46755396D01*
X52832203Y-46884734D01*
X53012007Y-46980841D01*
X53207105Y-47040024D01*
X53359162Y-47055000D01*
X54060838Y-47055000D01*
X54212895Y-47040024D01*
X54407993Y-46980841D01*
X54587797Y-46884734D01*
X54745396Y-46755396D01*
X54874734Y-46597797D01*
X54875521Y-46596325D01*
X54960000Y-46604645D01*
X55148192Y-46586110D01*
X55329153Y-46531216D01*
X55495928Y-46442073D01*
X55642107Y-46322107D01*
X55762073Y-46175928D01*
X55851216Y-46009154D01*
X55906110Y-45828193D01*
X55920000Y-45687162D01*
X55920000Y-45292839D01*
X55906110Y-45151808D01*
X55851216Y-44970846D01*
X55762073Y-44804072D01*
X55642107Y-44657893D01*
X55495928Y-44537927D01*
X55329154Y-44448784D01*
X55235662Y-44420423D01*
X55234608Y-44414972D01*
X55163187Y-44239874D01*
X55158270Y-44230677D01*
X54962536Y-44217069D01*
X54787234Y-44392371D01*
X54771808Y-44393890D01*
X54590847Y-44448784D01*
X54553223Y-44468894D01*
X54570000Y-44384552D01*
X54570000Y-44250395D01*
X54782931Y-44037464D01*
X54775697Y-43933414D01*
X54921964Y-43835681D01*
X55055681Y-43701964D01*
X55160741Y-43544731D01*
X55233108Y-43370022D01*
X55266927Y-43199999D01*
X60259869Y-43199999D01*
X60643178Y-43583308D01*
X60643178Y-44106251D01*
X60660242Y-44279505D01*
X60710778Y-44446101D01*
X60792845Y-44599637D01*
X60903288Y-44734212D01*
X61037863Y-44844655D01*
X61191399Y-44926722D01*
X61357995Y-44977258D01*
X61531249Y-44994322D01*
X62056251Y-44994322D01*
X62229505Y-44977258D01*
X62396101Y-44926722D01*
X62549637Y-44844655D01*
X62684212Y-44734212D01*
X62706250Y-44707359D01*
X62728288Y-44734212D01*
X62856750Y-44839638D01*
X62856751Y-47706317D01*
X62853064Y-47743750D01*
X62867777Y-47893128D01*
X62911349Y-48036765D01*
X62982105Y-48169142D01*
X63019660Y-48214902D01*
X63077329Y-48285172D01*
X63106399Y-48309029D01*
X67979414Y-53182044D01*
X45209988Y-53212163D01*
X45209985Y-46380000D01*
X46419993Y-46380000D01*
X46439976Y-46582895D01*
X46499159Y-46777993D01*
X46595266Y-46957797D01*
X46724604Y-47115396D01*
X46882203Y-47244734D01*
X47062007Y-47340841D01*
X47257105Y-47400024D01*
X47409162Y-47415000D01*
X48110838Y-47415000D01*
X48262895Y-47400024D01*
X48457993Y-47340841D01*
X48637797Y-47244734D01*
X48795396Y-47115396D01*
X48924734Y-46957797D01*
X49020841Y-46777993D01*
X49080024Y-46582895D01*
X49100007Y-46380000D01*
X49080024Y-46177105D01*
X49020841Y-45982007D01*
X48924734Y-45802203D01*
X48795396Y-45644604D01*
X48637797Y-45515266D01*
X48457993Y-45419159D01*
X48262895Y-45359976D01*
X48110838Y-45345000D01*
X47409162Y-45345000D01*
X47257105Y-45359976D01*
X47062007Y-45419159D01*
X46882203Y-45515266D01*
X46724604Y-45644604D01*
X46595266Y-45802203D01*
X46499159Y-45982007D01*
X46439976Y-46177105D01*
X46419993Y-46380000D01*
X45209985Y-46380000D01*
X45209980Y-37400000D01*
X46419993Y-37400000D01*
X46439976Y-37602895D01*
X46499159Y-37797993D01*
X46595266Y-37977797D01*
X46724604Y-38135396D01*
X46882203Y-38264734D01*
X47062007Y-38360841D01*
X47257105Y-38420024D01*
X47409162Y-38435000D01*
X48110838Y-38435000D01*
X48262895Y-38420024D01*
X48457993Y-38360841D01*
X48637797Y-38264734D01*
X48795396Y-38135396D01*
X48924734Y-37977797D01*
X49020841Y-37797993D01*
X49080024Y-37602895D01*
X49100007Y-37400000D01*
X49080024Y-37197105D01*
X49020841Y-37002007D01*
X48924734Y-36822203D01*
X48795396Y-36664604D01*
X48637797Y-36535266D01*
X48457993Y-36439159D01*
X48262895Y-36379976D01*
X48110838Y-36365000D01*
X47409162Y-36365000D01*
X47257105Y-36379976D01*
X47062007Y-36439159D01*
X46882203Y-36535266D01*
X46724604Y-36664604D01*
X46595266Y-36822203D01*
X46499159Y-37002007D01*
X46439976Y-37197105D01*
X46419993Y-37400000D01*
X45209980Y-37400000D01*
X45209976Y-30930823D01*
X45339254Y-30930823D01*
X45339254Y-31309177D01*
X45413067Y-31680261D01*
X45557857Y-32029815D01*
X45768059Y-32344404D01*
X46035596Y-32611941D01*
X46350185Y-32822143D01*
X46699739Y-32966933D01*
X47070823Y-33040746D01*
X47449177Y-33040746D01*
X47820261Y-32966933D01*
X48169815Y-32822143D01*
X48484404Y-32611941D01*
X48751941Y-32344404D01*
X48962143Y-32029815D01*
X49106933Y-31680261D01*
X49180746Y-31309177D01*
X49180746Y-30930823D01*
X49106933Y-30559739D01*
X48962143Y-30210185D01*
X48751941Y-29895596D01*
X48484404Y-29628059D01*
X48169815Y-29417857D01*
X47820261Y-29273067D01*
X47449177Y-29199254D01*
X47070823Y-29199254D01*
X46699739Y-29273067D01*
X46350185Y-29417857D01*
X46035596Y-29628059D01*
X45768059Y-29895596D01*
X45557857Y-30210185D01*
X45413067Y-30559739D01*
X45339254Y-30930823D01*
X45209976Y-30930823D01*
X45209975Y-30462289D01*
X45238601Y-30170336D01*
X45314011Y-29920563D01*
X45436503Y-29690191D01*
X45601404Y-29488003D01*
X45802436Y-29321696D01*
X46031951Y-29197597D01*
X46281187Y-29120446D01*
X46570857Y-29090001D01*
X138537712Y-29089975D01*
X138829663Y-29118601D01*
G37*
G04 #@! TD.AperFunction*
D24*
X123260065Y-48987435D02*
X123356756Y-49066787D01*
X123379917Y-49079167D01*
X123472000Y-49171250D01*
X123585587Y-49161704D01*
X123586768Y-49162062D01*
X123711250Y-49174322D01*
X124024251Y-49174322D01*
X124024250Y-49485956D01*
X123960732Y-49466688D01*
X123836250Y-49454428D01*
X123622000Y-49457500D01*
X123463250Y-49616250D01*
X123463250Y-50690500D01*
X123483250Y-50690500D01*
X123483250Y-50944500D01*
X123463250Y-50944500D01*
X123463250Y-50964500D01*
X123209250Y-50964500D01*
X123209250Y-50944500D01*
X123189250Y-50944500D01*
X123189250Y-50690500D01*
X123209250Y-50690500D01*
X123209250Y-49616250D01*
X123148250Y-49555250D01*
X123148250Y-48943794D01*
X123186250Y-48897491D01*
X123260065Y-48987435D01*
G04 #@! TA.AperFunction,Conductor*
D26*
G36*
X123260065Y-48987435D02*
G01*
X123356756Y-49066787D01*
X123379917Y-49079167D01*
X123472000Y-49171250D01*
X123585587Y-49161704D01*
X123586768Y-49162062D01*
X123711250Y-49174322D01*
X124024251Y-49174322D01*
X124024250Y-49485956D01*
X123960732Y-49466688D01*
X123836250Y-49454428D01*
X123622000Y-49457500D01*
X123463250Y-49616250D01*
X123463250Y-50690500D01*
X123483250Y-50690500D01*
X123483250Y-50944500D01*
X123463250Y-50944500D01*
X123463250Y-50964500D01*
X123209250Y-50964500D01*
X123209250Y-50944500D01*
X123189250Y-50944500D01*
X123189250Y-50690500D01*
X123209250Y-50690500D01*
X123209250Y-49616250D01*
X123148250Y-49555250D01*
X123148250Y-48943794D01*
X123186250Y-48897491D01*
X123260065Y-48987435D01*
G37*
G04 #@! TD.AperFunction*
D24*
X129802998Y-44517070D02*
X129766688Y-44636768D01*
X129754428Y-44761250D01*
X129757500Y-44975500D01*
X129916250Y-45134250D01*
X130990500Y-45134250D01*
X130990500Y-45114250D01*
X131244500Y-45114250D01*
X131244500Y-45134250D01*
X131264500Y-45134250D01*
X131264500Y-45388250D01*
X131244500Y-45388250D01*
X131244500Y-45408250D01*
X130990500Y-45408250D01*
X130990500Y-45388250D01*
X129916250Y-45388250D01*
X129757500Y-45547000D01*
X129754428Y-45761250D01*
X129766688Y-45885732D01*
X129802998Y-46005430D01*
X129861963Y-46115744D01*
X129941315Y-46212435D01*
X130021094Y-46277908D01*
X130014538Y-46283288D01*
X129919371Y-46399250D01*
X129476880Y-46399250D01*
X129471144Y-46393514D01*
X129474322Y-46361250D01*
X129474322Y-45811250D01*
X129462062Y-45686768D01*
X129461704Y-45685587D01*
X129471250Y-45572000D01*
X129379167Y-45479917D01*
X129366787Y-45456756D01*
X129287435Y-45360065D01*
X129197491Y-45286250D01*
X129287435Y-45212435D01*
X129366787Y-45115744D01*
X129379167Y-45092583D01*
X129471250Y-45000500D01*
X129461704Y-44886913D01*
X129462062Y-44885732D01*
X129474322Y-44761250D01*
X129474322Y-44448250D01*
X129839784Y-44448250D01*
X129802998Y-44517070D01*
G04 #@! TA.AperFunction,Conductor*
D26*
G36*
X129802998Y-44517070D02*
G01*
X129766688Y-44636768D01*
X129754428Y-44761250D01*
X129757500Y-44975500D01*
X129916250Y-45134250D01*
X130990500Y-45134250D01*
X130990500Y-45114250D01*
X131244500Y-45114250D01*
X131244500Y-45134250D01*
X131264500Y-45134250D01*
X131264500Y-45388250D01*
X131244500Y-45388250D01*
X131244500Y-45408250D01*
X130990500Y-45408250D01*
X130990500Y-45388250D01*
X129916250Y-45388250D01*
X129757500Y-45547000D01*
X129754428Y-45761250D01*
X129766688Y-45885732D01*
X129802998Y-46005430D01*
X129861963Y-46115744D01*
X129941315Y-46212435D01*
X130021094Y-46277908D01*
X130014538Y-46283288D01*
X129919371Y-46399250D01*
X129476880Y-46399250D01*
X129471144Y-46393514D01*
X129474322Y-46361250D01*
X129474322Y-45811250D01*
X129462062Y-45686768D01*
X129461704Y-45685587D01*
X129471250Y-45572000D01*
X129379167Y-45479917D01*
X129366787Y-45456756D01*
X129287435Y-45360065D01*
X129197491Y-45286250D01*
X129287435Y-45212435D01*
X129366787Y-45115744D01*
X129379167Y-45092583D01*
X129471250Y-45000500D01*
X129461704Y-44886913D01*
X129462062Y-44885732D01*
X129474322Y-44761250D01*
X129474322Y-44448250D01*
X129839784Y-44448250D01*
X129802998Y-44517070D01*
G37*
G04 #@! TD.AperFunction*
D24*
X112307000Y-43365500D02*
X112327000Y-43365500D01*
X112327000Y-43619500D01*
X112307000Y-43619500D01*
X112307000Y-43639500D01*
X112053000Y-43639500D01*
X112053000Y-43619500D01*
X112033000Y-43619500D01*
X112033000Y-43365500D01*
X112053000Y-43365500D01*
X112053000Y-43345500D01*
X112307000Y-43345500D01*
X112307000Y-43365500D01*
G04 #@! TA.AperFunction,Conductor*
D26*
G36*
X112307000Y-43365500D02*
G01*
X112327000Y-43365500D01*
X112327000Y-43619500D01*
X112307000Y-43619500D01*
X112307000Y-43639500D01*
X112053000Y-43639500D01*
X112053000Y-43619500D01*
X112033000Y-43619500D01*
X112033000Y-43365500D01*
X112053000Y-43365500D01*
X112053000Y-43345500D01*
X112307000Y-43345500D01*
X112307000Y-43365500D01*
G37*
G04 #@! TD.AperFunction*
G04 #@! TD*
M02*
