G04 #@! TF.GenerationSoftware,KiCad,Pcbnew,(5.1.9)-1*
G04 #@! TF.CreationDate,2021-01-29T11:52:33-08:00*
G04 #@! TF.ProjectId,foursu-pcb,666f7572-7375-42d7-9063-622e6b696361,rev?*
G04 #@! TF.SameCoordinates,Original*
G04 #@! TF.FileFunction,Soldermask,Top*
G04 #@! TF.FilePolarity,Negative*
%FSLAX46Y46*%
G04 Gerber Fmt 4.6, Leading zero omitted, Abs format (unit mm)*
G04 Created by KiCad (PCBNEW (5.1.9)-1) date 2021-01-29 11:52:33*
%MOMM*%
%LPD*%
G01*
G04 APERTURE LIST*
%ADD10R,2.000000X2.000000*%
%ADD11C,2.000000*%
%ADD12R,2.000000X3.200000*%
%ADD13C,1.750000*%
%ADD14C,3.987800*%
%ADD15O,1.600000X1.600000*%
%ADD16R,1.600000X1.600000*%
%ADD17C,0.100000*%
%ADD18C,2.082800*%
G04 APERTURE END LIST*
D10*
G04 #@! TO.C,SW1*
X94130000Y-130300000D03*
D11*
X91630000Y-130300000D03*
X89130000Y-130300000D03*
D12*
X97230000Y-137800000D03*
X86030000Y-137800000D03*
D11*
X94130000Y-144800000D03*
X89130000Y-144800000D03*
G04 #@! TD*
D13*
G04 #@! TO.C,MX4*
X132808990Y-156783809D03*
X122871010Y-158896191D03*
D14*
X127840000Y-157840000D03*
G04 #@! TD*
D13*
G04 #@! TO.C,MX3*
X114228990Y-160733809D03*
X104291010Y-162846191D03*
D14*
X109260000Y-161790000D03*
G04 #@! TD*
D13*
G04 #@! TO.C,MX2*
X78988990Y-162816191D03*
X69051010Y-160703809D03*
D14*
X74020000Y-161760000D03*
G04 #@! TD*
D13*
G04 #@! TO.C,MX1*
X60418990Y-158886191D03*
X50481010Y-156773809D03*
D14*
X55450000Y-157830000D03*
G04 #@! TD*
D15*
G04 #@! TO.C,D5*
X91643750Y-154173750D03*
D16*
X91643750Y-161793750D03*
G04 #@! TD*
G04 #@! TO.C,D4*
G36*
G01*
X132877217Y-168444542D02*
X132877217Y-168444542D01*
G75*
G02*
X133493406Y-167495695I782518J166329D01*
G01*
X133493406Y-167495695D01*
G75*
G02*
X134442253Y-168111884I166329J-782518D01*
G01*
X134442253Y-168111884D01*
G75*
G02*
X133826064Y-169060731I-782518J-166329D01*
G01*
X133826064Y-169060731D01*
G75*
G02*
X132877217Y-168444542I-166329J782518D01*
G01*
G37*
D17*
G36*
X125590061Y-170811347D02*
G01*
X125257403Y-169246311D01*
X126822439Y-168913653D01*
X127155097Y-170478689D01*
X125590061Y-170811347D01*
G37*
G04 #@! TD*
G04 #@! TO.C,D3*
G36*
G01*
X114311232Y-172410079D02*
X114311232Y-172410079D01*
G75*
G02*
X114927421Y-171461232I782518J166329D01*
G01*
X114927421Y-171461232D01*
G75*
G02*
X115876268Y-172077421I166329J-782518D01*
G01*
X115876268Y-172077421D01*
G75*
G02*
X115260079Y-173026268I-782518J-166329D01*
G01*
X115260079Y-173026268D01*
G75*
G02*
X114311232Y-172410079I-166329J782518D01*
G01*
G37*
G36*
X107024076Y-174776884D02*
G01*
X106691418Y-173211848D01*
X108256454Y-172879190D01*
X108589112Y-174444226D01*
X107024076Y-174776884D01*
G37*
G04 #@! TD*
G04 #@! TO.C,D2*
G36*
G01*
X72914717Y-174324208D02*
X72914717Y-174324208D01*
G75*
G02*
X73863564Y-173708019I782518J-166329D01*
G01*
X73863564Y-173708019D01*
G75*
G02*
X74479753Y-174656866I-166329J-782518D01*
G01*
X74479753Y-174656866D01*
G75*
G02*
X73530906Y-175273055I-782518J166329D01*
G01*
X73530906Y-175273055D01*
G75*
G02*
X72914717Y-174324208I166329J782518D01*
G01*
G37*
G36*
X65294903Y-173522439D02*
G01*
X65627561Y-171957403D01*
X67192597Y-172290061D01*
X66859939Y-173855097D01*
X65294903Y-173522439D01*
G37*
G04 #@! TD*
G04 #@! TO.C,D1*
G36*
G01*
X54658467Y-169561708D02*
X54658467Y-169561708D01*
G75*
G02*
X55607314Y-168945519I782518J-166329D01*
G01*
X55607314Y-168945519D01*
G75*
G02*
X56223503Y-169894366I-166329J-782518D01*
G01*
X56223503Y-169894366D01*
G75*
G02*
X55274656Y-170510555I-782518J166329D01*
G01*
X55274656Y-170510555D01*
G75*
G02*
X54658467Y-169561708I166329J782518D01*
G01*
G37*
G36*
X47038653Y-168759939D02*
G01*
X47371311Y-167194903D01*
X48936347Y-167527561D01*
X48603689Y-169092597D01*
X47038653Y-168759939D01*
G37*
G04 #@! TD*
D18*
G04 #@! TO.C,B1*
X44770000Y-129880000D03*
X47310000Y-129880000D03*
X49850000Y-129880000D03*
X52390000Y-129880000D03*
X54930000Y-129880000D03*
X57470000Y-129880000D03*
X60010000Y-129880000D03*
X62550000Y-129880000D03*
X65090000Y-129880000D03*
X67630000Y-129880000D03*
X70170000Y-129880000D03*
X72710000Y-129880000D03*
X72710000Y-145120000D03*
X70170000Y-145120000D03*
X67630000Y-145120000D03*
X65090000Y-145120000D03*
X62550000Y-145120000D03*
X60010000Y-145120000D03*
X57470000Y-145120000D03*
X54930000Y-145120000D03*
X52390000Y-145120000D03*
X49850000Y-145120000D03*
X47310000Y-145120000D03*
X44770000Y-145120000D03*
G04 #@! TD*
M02*
