G04 #@! TF.GenerationSoftware,KiCad,Pcbnew,(5.1.9)-1*
G04 #@! TF.CreationDate,2021-03-05T20:18:36-08:00*
G04 #@! TF.ProjectId,foursu-pcb,666f7572-7375-42d7-9063-622e6b696361,rev?*
G04 #@! TF.SameCoordinates,Original*
G04 #@! TF.FileFunction,Copper,L1,Top*
G04 #@! TF.FilePolarity,Positive*
%FSLAX46Y46*%
G04 Gerber Fmt 4.6, Leading zero omitted, Abs format (unit mm)*
G04 Created by KiCad (PCBNEW (5.1.9)-1) date 2021-03-05 20:18:36*
%MOMM*%
%LPD*%
G01*
G04 APERTURE LIST*
G04 #@! TA.AperFunction,ComponentPad*
%ADD10C,0.100000*%
G04 #@! TD*
G04 #@! TA.AperFunction,ComponentPad*
%ADD11C,1.905000*%
G04 #@! TD*
G04 #@! TA.AperFunction,ComponentPad*
%ADD12C,2.250000*%
G04 #@! TD*
G04 #@! TA.AperFunction,ComponentPad*
%ADD13C,0.650000*%
G04 #@! TD*
G04 #@! TA.AperFunction,ComponentPad*
%ADD14O,1.400000X0.800000*%
G04 #@! TD*
G04 #@! TA.AperFunction,SMDPad,CuDef*
%ADD15R,0.700000X0.300000*%
G04 #@! TD*
G04 #@! TA.AperFunction,ComponentPad*
%ADD16R,2.000000X2.000000*%
G04 #@! TD*
G04 #@! TA.AperFunction,ComponentPad*
%ADD17C,2.000000*%
G04 #@! TD*
G04 #@! TA.AperFunction,ComponentPad*
%ADD18R,3.200000X2.000000*%
G04 #@! TD*
G04 #@! TA.AperFunction,ViaPad*
%ADD19C,0.800000*%
G04 #@! TD*
G04 #@! TA.AperFunction,Conductor*
%ADD20C,0.254000*%
G04 #@! TD*
G04 #@! TA.AperFunction,Conductor*
%ADD21C,0.381000*%
G04 #@! TD*
G04 APERTURE END LIST*
G04 #@! TA.AperFunction,ComponentPad*
D10*
G04 #@! TO.P,MX4,4*
G04 #@! TO.N,N/C*
G36*
X129969789Y-70333413D02*
G01*
X129573718Y-68470042D01*
X131437089Y-68073971D01*
X131833160Y-69937342D01*
X129969789Y-70333413D01*
G37*
G04 #@! TD.AperFunction*
D11*
G04 #@! TO.P,MX4,3*
X128218944Y-69731788D03*
D12*
G04 #@! TO.P,MX4,1*
G04 #@! TO.N,COL3*
X125127984Y-61105939D03*
G04 #@! TA.AperFunction,ComponentPad*
G36*
G01*
X123589363Y-63781658D02*
X123589356Y-63781654D01*
G75*
G02*
X123174907Y-62245593I560806J975255D01*
G01*
X124152731Y-60545133D01*
G75*
G02*
X125688792Y-60130684I975255J-560806D01*
G01*
X125688792Y-60130684D01*
G75*
G02*
X126103241Y-61666745I-560806J-975255D01*
G01*
X125125417Y-63367205D01*
G75*
G02*
X123589356Y-63781654I-975255J560806D01*
G01*
G37*
G04 #@! TD.AperFunction*
G04 #@! TO.P,MX4,2*
G04 #@! TO.N,Net-(D4-Pad2)*
X129833304Y-59001664D03*
G04 #@! TA.AperFunction,ComponentPad*
G36*
G01*
X130073280Y-60691084D02*
X130072401Y-60691208D01*
G75*
G02*
X128800865Y-59734942I-157635J1113901D01*
G01*
X128719403Y-59159300D01*
G75*
G02*
X129675669Y-57887764I1113901J157635D01*
G01*
X129675669Y-57887764D01*
G75*
G02*
X130947205Y-58844030I157635J-1113901D01*
G01*
X131028667Y-59419672D01*
G75*
G02*
X130072401Y-60691208I-1113901J-157635D01*
G01*
G37*
G04 #@! TD.AperFunction*
G04 #@! TD*
G04 #@! TA.AperFunction,ComponentPad*
D10*
G04 #@! TO.P,MX3,4*
G04 #@! TO.N,N/C*
G36*
X111382289Y-74287163D02*
G01*
X110986218Y-72423792D01*
X112849589Y-72027721D01*
X113245660Y-73891092D01*
X111382289Y-74287163D01*
G37*
G04 #@! TD.AperFunction*
D11*
G04 #@! TO.P,MX3,3*
X109631444Y-73685538D03*
D12*
G04 #@! TO.P,MX3,1*
G04 #@! TO.N,COL2*
X106540484Y-65059689D03*
G04 #@! TA.AperFunction,ComponentPad*
G36*
G01*
X105001863Y-67735408D02*
X105001856Y-67735404D01*
G75*
G02*
X104587407Y-66199343I560806J975255D01*
G01*
X105565231Y-64498883D01*
G75*
G02*
X107101292Y-64084434I975255J-560806D01*
G01*
X107101292Y-64084434D01*
G75*
G02*
X107515741Y-65620495I-560806J-975255D01*
G01*
X106537917Y-67320955D01*
G75*
G02*
X105001856Y-67735404I-975255J560806D01*
G01*
G37*
G04 #@! TD.AperFunction*
G04 #@! TO.P,MX3,2*
G04 #@! TO.N,Net-(D3-Pad2)*
X111245804Y-62955414D03*
G04 #@! TA.AperFunction,ComponentPad*
G36*
G01*
X111485780Y-64644834D02*
X111484901Y-64644958D01*
G75*
G02*
X110213365Y-63688692I-157635J1113901D01*
G01*
X110131903Y-63113050D01*
G75*
G02*
X111088169Y-61841514I1113901J157635D01*
G01*
X111088169Y-61841514D01*
G75*
G02*
X112359705Y-62797780I157635J-1113901D01*
G01*
X112441167Y-63373422D01*
G75*
G02*
X111484901Y-64644958I-1113901J-157635D01*
G01*
G37*
G04 #@! TD.AperFunction*
G04 #@! TD*
G04 #@! TA.AperFunction,ComponentPad*
D10*
G04 #@! TO.P,MX2,4*
G04 #@! TO.N,N/C*
G36*
X74341335Y-74425438D02*
G01*
X74737406Y-72562067D01*
X76600777Y-72958138D01*
X76204706Y-74821509D01*
X74341335Y-74425438D01*
G37*
G04 #@! TD.AperFunction*
D11*
G04 #@! TO.P,MX2,3*
X72986561Y-73163692D03*
D12*
G04 #@! TO.P,MX2,1*
G04 #@! TO.N,COL1*
X73671278Y-64026380D03*
G04 #@! TA.AperFunction,ComponentPad*
G36*
G01*
X71177364Y-65844958D02*
X71177360Y-65844952D01*
G75*
G02*
X71423513Y-64273119I908993J662840D01*
G01*
X73008439Y-63117389D01*
G75*
G02*
X74580272Y-63363542I662840J-908993D01*
G01*
X74580272Y-63363542D01*
G75*
G02*
X74334119Y-64935375I-908993J-662840D01*
G01*
X72749193Y-66091105D01*
G75*
G02*
X71177360Y-65844952I-662840J908993D01*
G01*
G37*
G04 #@! TD.AperFunction*
G04 #@! TO.P,MX2,2*
G04 #@! TO.N,Net-(D2-Pad2)*
X78825686Y-64017856D03*
G04 #@! TA.AperFunction,ComponentPad*
G36*
G01*
X78357768Y-65658824D02*
X78356914Y-65658580D01*
G75*
G02*
X77584257Y-64267807I309058J1081715D01*
G01*
X77743971Y-63708797D01*
G75*
G02*
X79134744Y-62936140I1081715J-309058D01*
G01*
X79134744Y-62936140D01*
G75*
G02*
X79907401Y-64326913I-309058J-1081715D01*
G01*
X79747687Y-64885923D01*
G75*
G02*
X78356914Y-65658580I-1081715J309058D01*
G01*
G37*
G04 #@! TD.AperFunction*
G04 #@! TD*
G04 #@! TA.AperFunction,ComponentPad*
D10*
G04 #@! TO.P,MX1,4*
G04 #@! TO.N,N/C*
G36*
X55751335Y-70475438D02*
G01*
X56147406Y-68612067D01*
X58010777Y-69008138D01*
X57614706Y-70871509D01*
X55751335Y-70475438D01*
G37*
G04 #@! TD.AperFunction*
D11*
G04 #@! TO.P,MX1,3*
X54396561Y-69213692D03*
D12*
G04 #@! TO.P,MX1,1*
G04 #@! TO.N,COL0*
X55081278Y-60076380D03*
G04 #@! TA.AperFunction,ComponentPad*
G36*
G01*
X52587364Y-61894958D02*
X52587360Y-61894952D01*
G75*
G02*
X52833513Y-60323119I908993J662840D01*
G01*
X54418439Y-59167389D01*
G75*
G02*
X55990272Y-59413542I662840J-908993D01*
G01*
X55990272Y-59413542D01*
G75*
G02*
X55744119Y-60985375I-908993J-662840D01*
G01*
X54159193Y-62141105D01*
G75*
G02*
X52587360Y-61894952I-662840J908993D01*
G01*
G37*
G04 #@! TD.AperFunction*
G04 #@! TO.P,MX1,2*
G04 #@! TO.N,Net-(D1-Pad2)*
X60235686Y-60067856D03*
G04 #@! TA.AperFunction,ComponentPad*
G36*
G01*
X59767768Y-61708824D02*
X59766914Y-61708580D01*
G75*
G02*
X58994257Y-60317807I309058J1081715D01*
G01*
X59153971Y-59758797D01*
G75*
G02*
X60544744Y-58986140I1081715J-309058D01*
G01*
X60544744Y-58986140D01*
G75*
G02*
X61317401Y-60376913I-309058J-1081715D01*
G01*
X61157687Y-60935923D01*
G75*
G02*
X59766914Y-61708580I-1081715J309058D01*
G01*
G37*
G04 #@! TD.AperFunction*
G04 #@! TD*
D13*
G04 #@! TO.P,J1,B11*
G04 #@! TO.N,N/C*
X53610000Y-39490000D03*
G04 #@! TO.P,J1,B10*
X53610000Y-40290000D03*
G04 #@! TO.P,J1,B8*
G04 #@! TO.N,Net-(J1-PadB8)*
X53610000Y-41090000D03*
G04 #@! TO.P,J1,B5*
G04 #@! TO.N,Net-(J1-PadB5)*
X53610000Y-42690000D03*
G04 #@! TO.P,J1,B3*
G04 #@! TO.N,N/C*
X53610000Y-43490000D03*
G04 #@! TO.P,J1,B2*
X53610000Y-44290000D03*
G04 #@! TO.P,J1,B12*
G04 #@! TO.N,GND*
X54310000Y-39090000D03*
G04 #@! TO.P,J1,B9*
G04 #@! TO.N,VCC*
X54310000Y-40690000D03*
G04 #@! TO.P,J1,B7*
G04 #@! TO.N,D-*
X54310000Y-41490000D03*
G04 #@! TO.P,J1,B6*
G04 #@! TO.N,D+*
X54310000Y-42290000D03*
G04 #@! TO.P,J1,B4*
G04 #@! TO.N,VCC*
X54310000Y-43090000D03*
G04 #@! TO.P,J1,B1*
G04 #@! TO.N,GND*
X54310000Y-44690000D03*
D14*
G04 #@! TO.P,J1,S1*
G04 #@! TO.N,Net-(J1-PadS1)*
X47760000Y-37400000D03*
X47760000Y-46380000D03*
X53710000Y-46020000D03*
D15*
G04 #@! TO.P,J1,A11*
G04 #@! TO.N,N/C*
X55620000Y-44140000D03*
G04 #@! TO.P,J1,A8*
G04 #@! TO.N,Net-(J1-PadA8)*
X55620000Y-42640000D03*
G04 #@! TO.P,J1,A9*
G04 #@! TO.N,VCC*
X55620000Y-43140000D03*
G04 #@! TO.P,J1,A10*
G04 #@! TO.N,N/C*
X55620000Y-43640000D03*
G04 #@! TO.P,J1,A12*
G04 #@! TO.N,GND*
X55620000Y-44640000D03*
G04 #@! TO.P,J1,A7*
G04 #@! TO.N,Net-(J1-PadA7)*
X55620000Y-42140000D03*
G04 #@! TO.P,J1,A6*
G04 #@! TO.N,Net-(J1-PadA6)*
X55620000Y-41640000D03*
G04 #@! TO.P,J1,A5*
G04 #@! TO.N,Net-(J1-PadA5)*
X55620000Y-41140000D03*
G04 #@! TO.P,J1,A4*
G04 #@! TO.N,VCC*
X55620000Y-40640000D03*
G04 #@! TO.P,J1,A3*
G04 #@! TO.N,N/C*
X55620000Y-40140000D03*
G04 #@! TO.P,J1,A2*
X55620000Y-39640000D03*
G04 #@! TO.P,J1,A1*
G04 #@! TO.N,GND*
X55620000Y-39140000D03*
D14*
G04 #@! TO.P,J1,S1*
G04 #@! TO.N,Net-(J1-PadS1)*
X53710000Y-37760000D03*
G04 #@! TD*
D16*
G04 #@! TO.P,SW1,A*
G04 #@! TO.N,ENC1*
X85050000Y-39640000D03*
D17*
G04 #@! TO.P,SW1,C*
G04 #@! TO.N,GND*
X85050000Y-42140000D03*
G04 #@! TO.P,SW1,B*
G04 #@! TO.N,ENC0*
X85050000Y-44640000D03*
D18*
G04 #@! TO.P,SW1,MP*
G04 #@! TO.N,N/C*
X92550000Y-36540000D03*
X92550000Y-47740000D03*
D17*
G04 #@! TO.P,SW1,S2*
G04 #@! TO.N,COL4*
X99550000Y-39640000D03*
G04 #@! TO.P,SW1,S1*
G04 #@! TO.N,Net-(D5-Pad2)*
X99550000Y-44640000D03*
G04 #@! TD*
D19*
G04 #@! TO.N,COL4*
X134747000Y-45466000D03*
G04 #@! TO.N,COL3*
X135636000Y-44704000D03*
G04 #@! TO.N,COL2*
X136260696Y-43923130D03*
G04 #@! TO.N,COL1*
X136983964Y-43232561D03*
G04 #@! TO.N,COL0*
X137688838Y-42523226D03*
G04 #@! TO.N,ROW0*
X129667000Y-55372000D03*
X109347000Y-55372000D03*
G04 #@! TO.N,GND*
X70739000Y-39370000D03*
G04 #@! TO.N,+5V*
X120207548Y-53401452D03*
X125664452Y-53401452D03*
X132080000Y-35433000D03*
X132588000Y-45847000D03*
X119126000Y-31750000D03*
X116586000Y-51689000D03*
G04 #@! TO.N,VCC*
X56896000Y-40640000D03*
G04 #@! TO.N,Net-(J1-PadB5)*
X65185260Y-45974000D03*
G04 #@! TO.N,Net-(J1-PadA5)*
X57912000Y-39624000D03*
G04 #@! TO.N,Net-(R2-Pad1)*
X124048451Y-52674451D03*
G04 #@! TD*
D20*
G04 #@! TO.N,COL4*
X99550000Y-39640000D02*
X108167001Y-31022999D01*
X108167001Y-31022999D02*
X128745961Y-31022999D01*
X128745961Y-31022999D02*
X134747000Y-37024038D01*
X134747000Y-37024038D02*
X134747000Y-45466000D01*
G04 #@! TO.N,COL3*
X134366000Y-51748962D02*
X135636000Y-51748962D01*
X124150162Y-62806399D02*
X124150162Y-61964800D01*
X124150162Y-61964800D02*
X134366000Y-51748962D01*
X135636000Y-51748962D02*
X135636000Y-44704000D01*
G04 #@! TO.N,COL2*
X130545182Y-61099265D02*
X135093000Y-56551446D01*
X135093000Y-56551446D02*
X136363001Y-56551446D01*
X105562662Y-66760149D02*
X106191212Y-66131599D01*
X136363001Y-56551446D02*
X136363001Y-44025435D01*
X106191212Y-66131599D02*
X121080390Y-66131599D01*
X121080390Y-66131599D02*
X122859049Y-64352940D01*
X124807746Y-64352940D02*
X128061421Y-61099265D01*
X122859049Y-64352940D02*
X124807746Y-64352940D01*
X128061421Y-61099265D02*
X130545182Y-61099265D01*
X136363001Y-44025435D02*
X136260696Y-43923130D01*
G04 #@! TO.N,COL1*
X72086353Y-65182112D02*
X77063109Y-65182112D01*
X132171989Y-64166695D02*
X132171989Y-60114524D01*
X77063109Y-65182112D02*
X78019231Y-66138234D01*
X78019231Y-66138234D02*
X97504804Y-66138234D01*
X102139971Y-70773401D02*
X125283669Y-70773401D01*
X133441990Y-60114524D02*
X136987697Y-56568816D01*
X97504804Y-66138234D02*
X102139971Y-70773401D01*
X129519033Y-66819651D02*
X132171989Y-64166695D01*
X125283669Y-70773401D02*
X129237419Y-66819651D01*
X129237419Y-66819651D02*
X129519033Y-66819651D01*
X132171989Y-60114524D02*
X133441990Y-60114524D01*
X136987697Y-56568816D02*
X136987697Y-43236294D01*
X136987697Y-43236294D02*
X136983964Y-43232561D01*
G04 #@! TO.N,COL0*
X136440965Y-65792000D02*
X137710965Y-65792000D01*
X53496353Y-61232112D02*
X53496353Y-64745037D01*
X53496353Y-64745037D02*
X57036373Y-68285057D01*
X72361900Y-71227411D02*
X131005554Y-71227411D01*
X57036373Y-68285057D02*
X69419546Y-68285057D01*
X69419546Y-68285057D02*
X72361900Y-71227411D01*
X137710965Y-65792000D02*
X137710965Y-42545353D01*
X131005554Y-71227411D02*
X136440965Y-65792000D01*
X137710965Y-42545353D02*
X137688838Y-42523226D01*
G04 #@! TO.N,ROW0*
X109347000Y-55372000D02*
X129667000Y-55372000D01*
D21*
G04 #@! TO.N,GND*
X58702501Y-39244559D02*
X70613559Y-39244559D01*
X70613559Y-39244559D02*
X70739000Y-39370000D01*
D20*
X55620000Y-44640000D02*
X54360000Y-44640000D01*
X54360000Y-44640000D02*
X54310000Y-44690000D01*
D21*
X52795526Y-38263474D02*
X52619490Y-38087439D01*
X53082561Y-38550510D02*
X52795526Y-38263474D01*
X54278441Y-39099499D02*
X57266559Y-39099499D01*
X58702501Y-42260401D02*
X56282401Y-44680501D01*
X52795526Y-38263474D02*
X53306551Y-38774499D01*
X53306551Y-38774499D02*
X53953441Y-38774499D01*
X53953441Y-38774499D02*
X54278441Y-39099499D01*
X57266559Y-39099499D02*
X57532559Y-38833499D01*
X57532559Y-38833499D02*
X58291441Y-38833499D01*
X58291441Y-38833499D02*
X58702501Y-39244559D01*
X58702501Y-39244559D02*
X58702501Y-42260401D01*
X56282401Y-44680501D02*
X55620000Y-44680501D01*
X54310000Y-39090000D02*
X53770510Y-38550510D01*
X55675501Y-37946559D02*
X55675501Y-39084499D01*
X53770510Y-38550510D02*
X53082561Y-38550510D01*
X52619490Y-38087439D02*
X52619490Y-37432561D01*
X52619490Y-37432561D02*
X53082561Y-36969490D01*
X53082561Y-36969490D02*
X54698432Y-36969490D01*
X55660501Y-39099499D02*
X55620000Y-39099499D01*
X54698432Y-36969490D02*
X55675501Y-37946559D01*
X55675501Y-39084499D02*
X55660501Y-39099499D01*
D20*
G04 #@! TO.N,+5V*
X120207548Y-53401452D02*
X125664452Y-53401452D01*
X125664452Y-53401452D02*
X131002548Y-53401452D01*
X131002548Y-53401452D02*
X132588000Y-51816000D01*
X132588000Y-51816000D02*
X132588000Y-46736000D01*
X132588000Y-46736000D02*
X132588000Y-45847000D01*
X128397000Y-31750000D02*
X132080000Y-35433000D01*
X132080000Y-35433000D02*
X132588000Y-35941000D01*
X132588000Y-35941000D02*
X132588000Y-45847000D01*
X119126000Y-31750000D02*
X128397000Y-31750000D01*
X118298452Y-53401452D02*
X116586000Y-51689000D01*
X120207548Y-53401452D02*
X118298452Y-53401452D01*
G04 #@! TO.N,VCC*
X55620000Y-40640000D02*
X54360000Y-40640000D01*
X54360000Y-40640000D02*
X54310000Y-40690000D01*
X55620000Y-43140000D02*
X54360000Y-43140000D01*
X54360000Y-43140000D02*
X54310000Y-43090000D01*
X55620000Y-40640000D02*
X56896000Y-40640000D01*
G04 #@! TO.N,Net-(J1-PadB5)*
X64412250Y-46747010D02*
X53108863Y-46747010D01*
X53108863Y-46747010D02*
X52682990Y-46321137D01*
X52682990Y-46321137D02*
X52682990Y-43157391D01*
X52682990Y-43157391D02*
X53150381Y-42690000D01*
X53150381Y-42690000D02*
X53610000Y-42690000D01*
X65185260Y-45974000D02*
X64412250Y-46747010D01*
X53445038Y-42690000D02*
X53610000Y-42690000D01*
G04 #@! TO.N,Net-(J1-PadA5)*
X57912000Y-39624000D02*
X57912000Y-40699962D01*
X57912000Y-40699962D02*
X57244961Y-41367001D01*
X57244961Y-41367001D02*
X56547039Y-41367001D01*
X56547039Y-41367001D02*
X56320038Y-41140000D01*
X56320038Y-41140000D02*
X55620000Y-41140000D01*
G04 #@! TO.N,Net-(R2-Pad1)*
X123976750Y-49530000D02*
X123976750Y-47854250D01*
X123976750Y-49530000D02*
X123976750Y-52602750D01*
X123976750Y-52602750D02*
X124048451Y-52674451D01*
G04 #@! TD*
M02*
